<?xml version="1.0" encoding="UTF-8" standalone="no"?>
<!-- Created with Inkscape (http://www.inkscape.org/) -->

<svg
   width="208.16557mm"
   height="186.53412mm"
   viewBox="0 0 208.16557 186.53412"
   version="1.1"
   id="svg1"
   inkscape:version="1.3 (0e150ed, 2023-07-21)"
   sodipodi:docname="iran_terrain.svg"
   xmlns:inkscape="http://www.inkscape.org/namespaces/inkscape"
   xmlns:sodipodi="http://sodipodi.sourceforge.net/DTD/sodipodi-0.dtd"
   xmlns:xlink="http://www.w3.org/1999/xlink"
   xmlns="http://www.w3.org/2000/svg"
   xmlns:svg="http://www.w3.org/2000/svg">
  <sodipodi:namedview
     id="namedview1"
     pagecolor="#ffffff"
     bordercolor="#000000"
     borderopacity="0.25"
     inkscape:showpageshadow="2"
     inkscape:pageopacity="0.0"
     inkscape:pagecheckerboard="0"
     inkscape:deskcolor="#d1d1d1"
     inkscape:document-units="mm"
     inkscape:zoom="0.4204826"
     inkscape:cx="388.83892"
     inkscape:cy="549.36875"
     inkscape:window-width="1424"
     inkscape:window-height="742"
     inkscape:window-x="432"
     inkscape:window-y="96"
     inkscape:window-maximized="0"
     inkscape:current-layer="layer1" />
  <defs
     id="defs1">
    <rect
       x="192.6358"
       y="492.29148"
       width="356.73295"
       height="145.0714"
       id="rect59" />
    <linearGradient
       id="swatch59"
       inkscape:swatch="solid">
      <stop
         style="stop-color:#ffffff;stop-opacity:1;"
         offset="0"
         id="stop59" />
    </linearGradient>
    <linearGradient
       id="swatch1"
       inkscape:swatch="solid">
      <stop
         style="stop-color:#ffffff;stop-opacity:1;"
         offset="0"
         id="stop1" />
    </linearGradient>
    <style
       id="style1"><![CDATA[
.txtEls {
  -inkscape-font-specification:'Arial Black,  Bold';
  fill:#ffffff;
  fill-opacity:1;
  font-family:'Arial Black';
  font-size:54.3694px;
  font-weight:bold;
  letter-spacing:0px;
  line-height:61.1451px;
  stroke-dashoffset:16.2288;
  stroke-linecap:round;
  stroke-width:13.7198;
  word-spacing:0px;
}
]]></style>
    <linearGradient
       inkscape:collect="always"
       xlink:href="#swatch1"
       id="linearGradient57"
       gradientUnits="userSpaceOnUse"
       gradientTransform="matrix(0.92537399,0,0,0.92537399,6.5468098,7.1828216)"
       x1="68.337615"
       y1="74.978172"
       x2="135.48257"
       y2="74.978172" />
    <linearGradient
       inkscape:collect="always"
       xlink:href="#swatch1"
       id="linearGradient58"
       gradientUnits="userSpaceOnUse"
       gradientTransform="matrix(0.92537399,0,0,0.92537399,46.449052,42.3542)"
       x1="68.337615"
       y1="74.978172"
       x2="135.48257"
       y2="74.978172" />
    <linearGradient
       inkscape:collect="always"
       xlink:href="#swatch59"
       id="linearGradient59"
       x1="46.652163"
       y1="112.48736"
       x2="138.10229"
       y2="112.48736"
       gradientUnits="userSpaceOnUse" />
  </defs>
  <g
     inkscape:label="Layer 1"
     inkscape:groupmode="layer"
     id="layer1"
     transform="translate(-1.875638,-2.9575209)">
    <path
       id="path2"
       d="M 8.3392659,2.9818009 C 8.261384,2.9035275 7.848649,3.0209138 7.4216477,3.2418049 6.5613341,3.6860928 5.9982696,4.7160516 5.676789,6.4326424 5.4869542,7.4474421 5.3755017,7.5875379 4.6383783,7.7390018 4.1843657,7.8311404 3.7475212,7.8021114 3.6671203,7.6721013 3.581284,7.5332688 3.3836295,7.5509297 3.1849599,7.7150242 2.9522118,7.9094148 2.7974658,7.9119157 2.6834895,7.7276575 2.5927355,7.581246 2.349259,7.4613369 2.142638,7.4613369 c -0.5384529,0 -0.1962718,2.4991535 0.4383608,3.1983921 0.5905829,0.65131 0.6078743,1.326572 0.049731,1.943799 -0.3274145,0.360989 -0.3569515,0.541483 -0.1272304,0.771195 0.1647161,0.164096 0.2997709,0.448077 0.2997709,0.629834 0,0.181758 0.2332552,0.564196 0.5182586,0.849465 0.3096169,0.309245 0.4378556,0.643706 0.3184526,0.82799 -0.1104441,0.170413 -0.2154587,1.225613 -0.2341375,2.346425 -0.018802,1.119574 -0.075982,2.265652 -0.1272304,2.545843 -0.078885,0.429154 0.027138,0.497319 0.6823434,0.436734 0.6789354,-0.06438 0.7741049,0.0051 0.7637556,0.559142 -0.0064,0.349645 -0.1548729,0.777511 -0.3303163,0.951714 -0.1750673,0.175441 -0.3180755,0.595752 -0.3180755,0.934027 0,0.379912 -0.3949404,1.011011 -1.0314657,1.647161 -0.822825,0.822937 -1.0160678,1.187716 -0.9549769,1.801154 0.062603,0.632361 0.2273205,0.809065 0.9140803,0.98577 0.5113164,0.131278 0.9481637,0.458183 1.1207043,0.838095 0.2159619,0.472055 0.4195559,0.586935 0.8534974,0.478371 0.6631594,-0.166599 1.0102621,0.243607 0.7311915,0.864599 -0.1070332,0.238554 -0.2081374,1.105704 -0.2247966,1.924851 -0.028151,1.40737 0.018668,1.528516 0.8208063,2.140691 1.219913,0.930237 1.4614959,1.48562 0.9718902,2.232831 -0.5576378,0.850705 -0.4999569,1.464144 0.2001831,2.123009 0.5186376,0.48595 0.574805,0.704317 0.4126128,1.591633 -0.1034991,0.566716 -0.3165601,1.157438 -0.4733227,1.313937 -0.3905231,0.391281 -0.3574538,0.692945 0.076488,0.692945 0.6463713,0 1.926743,0.879762 1.9287617,1.32405 5.061e-4,0.238554 -0.1311407,0.725765 -0.2938381,1.081695 -0.2244176,0.492272 -0.222905,0.888605 0.00592,1.652222 0.2731396,0.911312 0.3890076,1.011033 1.2498276,1.082966 0.897294,0.07448 0.950053,0.127479 0.961415,0.96937 0.0064,0.491001 0.08242,1.06401 0.169134,1.273564 0.317568,0.769929 0.4063,2.239124 0.151337,2.494074 -0.48809,0.488481 0.02815,0.74345 1.261186,0.624812 1.189746,-0.113624 1.24844,-0.08709 1.917529,0.878464 0.37967,0.547799 0.690295,1.13221 0.690295,1.300072 0,0.218367 0.612799,0.281477 2.172365,0.223419 1.557427,-0.05682 2.250245,0.01518 2.447905,0.252419 0.171153,0.207004 0.522172,0.271374 0.92494,0.170422 0.542869,-0.136332 0.621757,-0.09091 0.480265,0.277686 -0.09277,0.242344 -0.169136,0.527584 -0.169136,0.633597 0,0.26256 -2.047156,0.889865 -2.635844,0.80909 -0.416145,-0.05806 -0.450604,0.05548 -0.295858,0.973142 0.121296,0.716922 0.08432,1.038772 -0.118774,1.038772 -0.1839,0 -0.232242,0.214577 -0.129123,0.573038 0.297752,1.03502 0.907646,2.22778 1.139385,2.22778 0.293334,0 0.109939,2.542087 -0.206115,2.857615 -0.148941,0.148946 -0.601058,0.138862 -1.200606,-0.02645 -0.528478,-0.146415 -1.044718,-0.213315 -1.14683,-0.150206 -0.101986,0.06312 -0.261274,0.618472 -0.353414,1.235703 -0.143006,0.951685 -0.244109,1.103152 -0.666186,0.992077 -0.336754,-0.08709 -0.497938,-0.0029 -0.497938,0.267583 0,0.218368 -0.228332,0.556642 -0.507277,0.752273 -0.590201,0.413999 -0.953588,1.818843 -0.536938,2.076314 0.300655,0.185547 0.38497,1.22685 0.120794,1.491912 -0.08785,0.08709 -0.483172,-0.0076 -0.878617,-0.213316 -1.058605,-0.546539 -1.335152,-0.477108 -1.143422,0.286528 0.131647,0.525064 0.06021,0.685373 -0.354428,0.793917 -0.731188,0.190598 -0.669089,1.22558 0.130639,2.176034 0.456536,0.541478 0.627058,1.008483 0.57291,1.563864 -0.06512,0.670209 -0.195259,0.80527 -0.840243,0.878463 -0.854884,0.0972 -1.136862,0.407706 -1.142791,1.255908 -0.0025,0.364783 0.220883,0.681582 0.604969,0.855756 0.413621,0.189339 0.904743,0.942872 1.529909,2.350218 0.506392,1.139763 0.919511,2.230301 0.919005,2.42343 -0.002,0.257481 0.227827,0.315539 0.847565,0.214548 1.151752,-0.186779 1.500876,0.08709 1.399269,1.10192 -0.07245,0.725737 0.007,0.86965 0.552211,1.000902 0.447704,0.107302 0.659625,0.350907 0.714908,0.822964 0.04342,0.368564 0.358464,0.854514 0.700645,1.079174 1.003828,0.657605 0.70153,2.177305 -0.432932,2.177305 -0.74053,0 -0.798212,0.488453 -0.09567,0.809061 0.544891,0.247378 0.634633,0.421581 0.510305,0.987036 -0.148812,0.676521 -0.128111,0.689154 1.33326,0.793907 1.840537,0.133801 2.853701,0.791405 6.431269,4.177871 2.535752,2.400694 2.592424,2.436035 3.56318,2.271964 1.295266,-0.218367 2.043243,0.186808 2.043243,1.105677 0,0.38876 0.16863,0.92897 0.37424,1.20035 0.205613,0.27137 0.377147,0.78509 0.381563,1.14102 0.0054,0.43168 0.429904,1.06152 1.281382,1.89962 0.70014,0.68915 1.27305,1.39344 1.27305,1.56259 0,0.16913 0.28652,0.64876 0.636525,1.06528 0.350136,0.41526 0.636526,0.8747 0.636526,1.0186 0,0.14516 -0.445175,1.33162 -0.989939,2.63801 -0.987164,2.36534 -1.573329,5.34789 -1.350046,6.86885 0.104005,0.70935 0.140106,0.72451 1.732616,0.72451 h 1.626088 v 6.62778 l 0.792283,0.4809 c 0.435834,0.26631 0.925441,0.75098 1.088137,1.07918 0.178476,0.36099 0.567484,0.62857 0.98262,0.67652 0.548299,0.0631 0.739142,0.26885 0.947658,1.01859 0.143006,0.51624 0.261274,1.35939 0.26178,1.87263 0.002,1.25979 0.218486,1.73955 0.785463,1.73955 0.260769,0 0.981612,0.35745 1.600842,0.79378 1.318999,0.92989 2.183726,0.90614 1.106947,-0.0302 -0.702537,-0.61126 -0.875208,-1.12902 -0.460954,-1.38486 0.373736,-0.23075 16.857137,0.6172 17.374385,0.89438 0.279574,0.14932 0.477738,0.53833 0.483671,0.94513 0.01187,0.8939 1.460363,3.00162 2.495363,3.63135 0.443156,0.26961 0.806039,0.66946 0.806039,0.88845 0,0.21938 0.397965,0.56546 0.884545,0.76855 0.799722,0.33436 0.861323,0.43054 0.642965,1.00535 -0.133161,0.34962 -0.177469,0.95749 -0.09858,1.35052 0.09463,0.47471 0.01089,0.82435 -0.250538,1.04083 -0.490496,0.4077 -0.288419,1.76848 0.345207,2.31875 0.241581,0.21006 0.81247,0.93719 1.26901,1.61563 0.680454,1.01177 0.939328,1.21296 1.436757,1.11778 0.721849,-0.13804 1.152263,0.57001 1.618647,2.66101 0.506385,2.26992 0.808689,3.09134 1.542274,4.19085 0.386984,0.58037 0.783441,1.52549 0.880631,2.10042 0.09707,0.57532 0.279453,1.04623 0.40529,1.04623 0.125722,0 0.534421,0.46248 0.908657,1.02744 0.422077,0.63754 0.843533,1.00042 1.110352,0.95509 0.236664,-0.04 0.63249,0.0952 0.879505,0.30028 0.322489,0.26771 1.134081,0.37614 2.870105,0.38597 l 2.419878,0.0134 0.797717,0.92645 c 0.509288,0.59161 1.120703,0.99195 1.689195,1.10631 1.399774,0.28211 3.565197,1.35092 3.565197,1.76027 0,0.20358 0.257356,0.55358 0.572904,0.7765 l 0.572913,0.40629 -1.200094,0.9151 0.816519,0.33815 c 0.449091,0.1859 1.262698,0.69181 1.80746,1.12422 2.403225,1.90656 3.168112,2.31032 5.662211,2.9918 1.348028,0.3688 1.706479,0.66604 1.767068,1.46629 0.02148,0.29144 0.272634,0.60194 0.557893,0.69118 0.286518,0.0889 0.790134,0.42953 1.120837,0.75732 0.771197,0.76475 2.143207,1.01821 3.520267,0.6499 0.65634,-0.17557 1.83649,-0.22731 2.98509,-0.12964 1.78728,0.15083 1.91854,0.20411 2.20252,0.88847 0.23605,0.56938 0.46576,0.72767 1.05773,0.72767 0.41526,0 1.04763,0.22933 1.40356,0.50929 0.41653,0.32691 1.03374,0.50942 1.72417,0.50942 0.95801,0 1.24326,-0.1574 2.56857,-1.40964 0.81916,-0.77562 1.74309,-1.47321 2.05232,-1.55072 0.31051,-0.0778 0.62354,-0.29978 0.698,-0.49351 0.1035,-0.2696 0.61216,-0.33271 2.16971,-0.26824 1.67873,0.0701 2.06496,0.0134 2.21516,-0.32438 0.21204,-0.47976 0.21204,-0.46636 0.008,-1.33767 -0.14137,-0.60497 -0.0479,-0.71881 0.9214,-1.12311 0.59576,-0.24802 1.35307,-0.42157 1.6863,-0.3866 0.6071,0.0636 2.3237,-0.70404 2.3237,-1.03878 0,-0.0981 -0.19943,-0.21647 -0.44303,-0.26332 -0.32313,-0.0625 -0.17545,-0.24309 0.54779,-0.66956 1.03752,-0.61231 2.23535,-0.71632 5.36938,-0.46741 3.94941,0.31367 5.15986,1.39688 6.64546,5.94911 0.66519,2.03429 0.7346,2.53222 0.37866,2.66249 -0.46827,0.17051 0.25749,2.85812 0.92645,3.42658 0.40896,0.34864 0.53392,0.6026 0.35216,0.71494 -0.42663,0.2643 -0.33827,1.25827 0.16408,1.82828 0.68033,0.77359 1.08171,1.56538 1.08171,2.13235 0,0.31013 0.17543,0.52118 0.44556,0.53403 0.24485,0.0118 1.10189,0.10351 1.90465,0.20409 0.80276,0.1001 1.62949,0.0873 1.8365,-0.0291 0.53263,-0.29775 1.66988,0.0391 1.66988,0.49504 0,0.23818 0.14389,0.3235 0.38244,0.22681 0.20953,-0.0848 0.544,-0.22037 0.74218,-0.30079 0.20574,-0.0833 0.7914,0.24362 1.36696,0.76428 1.15995,1.04724 2.25681,1.18973 3.49249,0.45262 0.59953,-0.35745 1.29249,-0.4511 3.23249,-0.43736 1.35811,0.0104 2.55216,0.10111 2.65187,0.20222 0.10097,0.10045 0.35341,0.18338 0.56168,0.18338 0.207,0 0.76615,0.40088 1.24326,0.89137 0.98578,1.01569 1.17006,1.05028 2.52817,0.46839 0.54275,-0.23223 1.28618,-0.40326 1.65349,-0.38016 0.36729,0.0227 0.81159,-0.13065 0.98703,-0.34169 0.41779,-0.50385 0.67149,-0.48417 1.51716,0.11842 0.61848,0.44025 0.88481,0.47181 2.18108,0.26127 1.27734,-0.20801 1.51969,-0.18137 1.7999,0.19866 0.26,0.35164 0.38875,0.37524 0.6475,0.12041 0.43419,-0.42852 1.50706,-0.38863 2.12428,0.0784 0.45818,0.3461 0.54273,0.32933 0.93529,-0.19235 0.41146,-0.54528 0.45565,-0.55171 0.91761,-0.13406 0.26631,0.24159 0.65382,0.43927 0.85956,0.43927 0.20573,0 0.5238,0.143 0.70682,0.31806 0.27137,0.26028 0.30041,0.16763 0.15904,-0.50589 -0.1502,-0.71591 -0.0897,-0.86233 0.46575,-1.11579 0.95801,-0.43632 1.43638,-0.13213 1.43638,0.9136 0,0.54135 0.12748,0.90525 0.31807,0.91419 0.17545,0.009 0.71946,0.0562 1.21046,0.10692 0.48972,0.0503 1.79862,0.16028 2.90683,0.24358 1.10946,0.0838 2.16719,0.27756 2.35274,0.43144 0.18426,0.15335 0.99587,0.42258 1.80241,0.59903 v 0 c 0.80655,0.17595 1.5525,0.33474 1.65853,0.35305 0.21583,0.0374 0.26506,-0.28893 0.19816,-1.30259 -0.0341,-0.53251 0.10476,-0.75644 0.58566,-0.93934 0.3471,-0.13162 0.70809,-0.36578 0.80401,-0.52013 0.28653,-0.4645 0.59955,-5.71397 0.35594,-5.97675 -0.38497,-0.41313 -0.24739,-0.90374 0.25118,-0.90374 0.41274,0 0.49856,-0.27995 0.64876,-2.10081 0.0959,-1.15528 0.28779,-2.44449 0.42537,-2.86467 0.27011,-0.81539 1.72542,-1.90947 2.5408,-1.90947 0.33069,0 0.49226,-0.17657 0.49226,-0.53693 0,-0.41071 0.10349,-0.49363 0.44555,-0.35303 0.97315,0.40086 1.41618,0.46198 1.23695,0.17051 -0.0985,-0.15967 -0.10602,-0.66502 -0.0164,-1.12257 0.20068,-1.0196 1.67114,-2.09009 2.56477,-1.86566 0.39634,0.0996 0.66013,0.004 0.83179,-0.30179 0.20321,-0.35897 0.31555,-0.38409 0.57557,-0.12673 0.26,0.25735 0.42535,0.19275 0.84441,-0.33133 0.47963,-0.60156 0.69042,-0.6552 2.74779,-0.69964 l 2.22778,-0.0478 v -1.46679 c 0,-1.1808 0.0796,-1.46683 0.41147,-1.46683 0.31303,0 0.36604,-0.13807 0.22594,-0.5729 -0.10224,-0.31503 -0.24234,-1.00243 -0.31176,-1.52751 -0.10981,-0.84062 -0.0606,-0.95497 0.41147,-0.95497 0.64499,0 0.65635,-0.0882 0.11866,-0.91068 -0.58314,-0.88896 -1.30259,-1.24098 -1.76077,-0.86081 -0.19817,0.1651 -0.55033,0.22821 -0.78131,0.13999 -0.23223,-0.0893 -0.82547,0.0789 -1.3316,0.37714 -0.57305,0.33878 -0.94792,0.43546 -1.00598,0.25987 -0.0505,-0.15336 -0.32438,-0.27857 -0.60838,-0.27857 -0.42283,0 -0.4872,-0.11486 -0.35594,-0.63651 0.11738,-0.46993 0.0581,-0.63704 -0.22719,-0.63704 -0.50867,0 -0.48847,-0.15524 0.15145,-1.19263 0.53266,-0.86084 0.53392,-0.88658 0.0733,-2.06735 -0.49604,-1.27104 -0.81665,-3.28664 -1.02743,-6.44314 l -0.13,-1.93723 -0.86839,0.29891 c -0.47711,0.16407 -0.94666,0.37662 -1.04258,0.47281 -0.32313,0.32387 -0.53517,0.17797 -0.85325,-0.58921 -0.17418,-0.42006 -0.40137,-0.76425 -0.50614,-0.76425 -0.1035,0 -0.49983,-0.24398 -0.87975,-0.54287 -0.52886,-0.41652 -1.08296,-0.55273 -2.38808,-0.58517 -2.08514,-0.0522 -3.67172,-0.71894 -5.56627,-2.33809 -1.53357,-1.30951 -2.147,-2.29604 -2.35653,-3.78709 -0.10603,-0.75088 -0.27642,-1.04029 -0.65256,-1.10984 -0.85323,-0.15827 -1.14607,-0.56647 -1.14607,-1.60033 0,-0.71354 -0.15904,-1.12272 -0.57304,-1.46934 -0.31428,-0.2638 -1.60425,-1.33123 -2.86392,-2.37204 -3.60231,-2.975 -3.72095,-2.16593 1.35182,-9.24685 2.91946,-4.07438 4.42399,-6.4006 4.60575,-7.12383 0.14768,-0.59071 0.44429,-1.21801 0.6576,-1.39475 0.21206,-0.1767 0.38749,-0.46447 0.38749,-0.63992 0,-0.48088 -1.20791,-3.11258 -1.51463,-3.30192 -0.14767,-0.0922 -0.26885,-0.38118 -0.26885,-0.64497 0,-0.26379 -0.11233,-0.54906 -0.24866,-0.63362 -0.29408,-0.18302 -4.8443,-0.77878 -7.8357,-1.02743 -1.94,-0.16155 -2.1003,-0.21708 -2.1003,-0.73459 0,-0.30672 -0.1199,-0.67781 -0.26632,-0.82549 -0.18681,-0.18554 -0.17418,-0.47331 0.0429,-0.94916 0.23856,-0.52129 0.24108,-0.75227 0.0126,-0.98071 -0.16409,-0.1641 -0.29914,-0.6147 -0.29914,-0.99967 0,-0.38623 -0.12622,-0.98072 -0.28273,-1.32152 -0.23603,-0.51877 -0.18808,-0.74849 0.29031,-1.39474 0.69546,-0.94158 0.6109,-1.55123 -0.60207,-4.325544 -0.47081,-1.076644 -1.40231,-3.529082 -2.07127,-5.447645 l -1.21549,-3.491213 1.3051,-1.638348 c 0.71694,-0.902469 1.48056,-1.707749 1.6964,-1.789785 0.32313,-0.123698 0.33953,-0.252448 0.0909,-0.715652 -0.16661,-0.310516 -0.19942,-0.600835 -0.0745,-0.644999 1.32909,-0.467024 0.96305,-1.173844 -0.49478,-0.955477 -1.21803,0.181757 -2.34012,-0.171653 -3.01159,-0.946662 -0.54149,-0.623514 -0.58693,-1.003432 -0.17041,-1.41998 0.22341,-0.22339 0.2272,-0.537687 0.0126,-1.260931 -0.15525,-0.530114 -0.36098,-1.565096 -0.45691,-2.302234 -0.15399,-1.191509 -0.0985,-1.446478 0.50866,-2.32369 0.59323,-0.854515 0.85072,-1.007242 1.94252,-1.152387 0.69421,-0.09215 1.26094,-0.234763 1.26094,-0.318088 0,-0.08327 -0.40138,-0.595755 -0.89112,-1.138474 -1.06655,-1.178924 -1.14734,-1.749412 -0.24865,-1.749412 0.45186,0 0.7144,-0.189338 0.8848,-0.636156 0.13253,-0.349638 0.43041,-0.636147 0.66013,-0.636147 0.30166,0 0.37866,-0.151467 0.27516,-0.544009 -0.0946,-0.363513 0.0303,-0.682842 0.37361,-0.961798 0.4506,-0.364773 0.47585,-0.502346 0.20195,-1.103152 -0.24865,-0.547799 -0.24613,-0.766167 0.0126,-1.077914 0.48847,-0.589452 0.76363,-2.461273 0.52002,-3.540448 -0.16661,-0.739668 -0.13253,-0.985804 0.15021,-1.095599 0.22214,-0.0846 0.34963,-0.450609 0.3269,-0.93782 -0.0215,-0.437976 0.14642,-1.220538 0.37361,-1.738039 0.39886,-0.913813 0.34206,-1.732987 -0.1199,-1.732987 -0.12622,0 -0.2272,-0.662655 -0.2272,-1.471726 0,-1.531035 -0.47837,-2.602656 -1.16122,-2.602656 -0.4607,0 -0.46576,0.04669 0.14767,-1.223069 0.54022,-1.118306 0.48847,-2.008142 -0.1704,-2.971201 -0.40768,-0.595754 -0.44429,-1.508337 -0.0883,-2.176043 0.30294,-0.564195 -0.20194,-2.80205 -0.62731,-2.785654 -0.14641,0.0048 -2.09903,0.166621 -4.33943,0.357201 -2.23913,0.191859 -4.15894,0.295342 -4.26496,0.22973 -0.10476,-0.06436 -0.19186,-0.325669 -0.19186,-0.579349 0,-0.504877 -3.59094,-4.346997 -4.06301,-4.346997 -0.15904,0 -0.76488,-0.22848 -1.34549,-0.509928 -0.70684,-0.340805 -1.14103,-0.425362 -1.31269,-0.254979 -0.40643,0.407677 -0.66266,0.299143 -0.66266,-0.281476 0,-0.45187 -0.10475,-0.509928 -0.66895,-0.368545 -0.5377,0.135042 -0.63868,0.09091 -0.5175,-0.22721 0.10476,-0.272635 0,-0.395072 -0.34333,-0.395072 -0.66896,0 -1.3253,-1.337916 -1.22811,-2.502917 0.077,-0.92521 0.0682,-0.934028 -0.89238,-0.934028 -0.58944,0 -1.08674,-0.157781 -1.26976,-0.405177 -0.33574,-0.45313 -1.70523,-1.117048 -2.81469,-1.366945 -0.55284,-0.123698 -0.85326,-0.03535 -1.21929,0.358461 -0.61217,0.656338 -0.99083,0.656338 -1.82008,0.0051 -0.62354,-0.491003 -0.67023,-0.493529 -0.89995,-0.06438 -0.18681,0.348357 -0.55916,0.454394 -1.60552,0.453131 -1.34297,0 -1.3619,-0.01137 -1.3619,-0.763639 0,-0.658865 -0.10351,-0.774984 -0.76364,-0.848176 -0.42031,-0.04671 -0.96432,-0.265082 -1.21044,-0.485951 -0.50362,-0.451867 -2.0069,-0.786352 -4.67139,-1.040065 -2.08389,-0.196892 -2.71625,-0.575565 -2.48653,-1.488118 0.10729,-0.42789 -0.004,-0.795195 -0.35593,-1.18016 -0.28147,-0.306719 -0.58945,-0.816645 -0.68537,-1.132182 -0.21458,-0.709369 -0.92772,-0.738399 -1.53989,-0.06311 -0.66139,0.730819 -2.55973,0.704291 -3.3587,-0.04671 l -0.59198,-0.55409 -0.72576,0.53643 c -0.63866,0.470791 -0.77119,0.491003 -1.09937,0.162834 -0.29788,-0.299139 -0.5238,-0.316825 -1.1183,-0.09088 -1.17006,0.445551 -1.66231,0.994613 -1.37327,1.536096 0.52633,0.980717 0.34457,1.062754 -1.98165,0.888576 -2.99772,-0.22342 -6.24661,-0.157781 -6.54323,0.13254 -0.13253,0.129989 -0.40643,0.236028 -0.60837,0.236028 -0.2007,0 -0.62984,0.286506 -0.95423,0.637389 -0.32438,0.349645 -0.82547,0.636151 -1.11199,0.636151 -0.28651,0 -0.52129,0.151465 -0.52129,0.337012 0,0.506137 -0.99966,1.320255 -2.33002,1.898348 -1.30888,0.569249 -1.63832,1.159948 -1.23442,2.2202 0.32817,0.865863 0.12874,1.580259 -0.49856,1.779705 -0.26002,0.08203 -0.53897,0.32059 -0.61849,0.528854 -0.10224,0.265053 -0.34205,0.328163 -0.80275,0.212046 -0.40011,-0.09972 -1.00219,0 -1.53357,0.248657 -0.48216,0.228451 -1.26598,0.598285 -1.74309,0.822936 -0.64246,0.302933 -1.20413,0.363522 -2.16467,0.231001 l -1.29627,-0.177966 v 0.983245 c 0,0.541478 0.22215,1.784753 0.49351,2.761686 0.27264,0.976952 0.40138,1.870579 0.28778,1.986696 -0.1136,0.114855 -2.24924,0.42157 -4.745853,0.684102 -4.090774,0.426632 -4.69158,0.552851 -6.07999,1.271043 -1.125879,0.581851 -2.120115,0.863338 -3.6865,1.042564 -1.229629,0.141364 -2.805352,0.525092 -3.692429,0.901209 -0.850465,0.359722 -1.833586,0.709369 -2.18372,0.77498 -0.533916,0.100991 -4.987069,-0.848173 -9.378116,-1.998039 -1.225218,-0.321851 -3.682089,-1.821364 -5.301233,-3.235003 -0.58187,-0.508687 -1.591117,-1.366973 -2.243422,-1.909712 -0.68676,-0.570516 -1.131053,-1.12966 -1.05507,-1.329101 0.07245,-0.188049 0.03698,-0.400104 -0.07888,-0.472056 -0.115868,-0.072 -0.278567,-0.469526 -0.360986,-0.883544 -0.107416,-0.536436 -0.390903,-0.857026 -0.988049,-1.114496 -0.460448,-0.200711 -1.180785,-0.512459 -1.600844,-0.694215 -0.423593,-0.184287 -1.862244,-0.349648 -3.229454,-0.372355 -1.356356,-0.02273 -2.616659,-0.153997 -2.801065,-0.2903 -0.184407,-0.136331 -0.736617,-0.455657 -1.226602,-0.70937 -2.232574,-1.153633 -3.8083,-4.489618 -3.81524,-8.075526 -0.002,-1.207927 -0.07586,-2.554686 -0.163709,-2.992658 -0.154241,-0.772481 -0.198165,-0.796458 -1.527384,-0.796458 -0.7529,0 -1.368725,-0.10475 -1.368725,-0.2335 0,-0.130015 -0.272634,-0.560407 -0.605979,-0.955478 -0.332843,-0.396334 -0.649274,-0.949187 -0.703549,-1.229377 -0.07838,-0.405178 -0.26582,-0.492267 -0.911683,-0.427891 -0.721345,0.07322 -0.854887,-0.02021 -1.192651,-0.826752 -0.209019,-0.501083 -0.561046,-0.910025 -0.783445,-0.910025 -0.626679,0 -1.66004,-0.774983 -1.651205,-1.23822 0.01678,-0.865861 0.717812,-1.397264 1.939111,-1.469193 0.652808,-0.03913 1.304101,-0.186811 1.446604,-0.329433 0.381689,-0.381176 -0.207,-1.50833 -0.931879,-1.784756 -0.329812,-0.124961 -0.752773,-0.597015 -0.939202,-1.04762 -0.304693,-0.735846 -0.290936,-0.854492 0.136066,-1.166264 0.261274,-0.191863 0.690297,-0.348356 0.953084,-0.348356 0.666566,0 1.46238,-0.4645 1.46238,-0.853255 0,-0.1779669 -0.800736,-1.1940313 -1.779445,-2.2555468 C 41.849567,6.0742356 41.728776,5.9947265 40.936873,6.1777471 40.000198,6.3935868 38.454511,7.294795 37.4984,8.1821075 37.105479,8.5468854 36.666613,8.726117 36.362928,8.6466069 35.899449,8.5254354 35.609521,8.7349546 34.685595,9.8608252 34.5051,10.081718 34.102838,10.262213 33.791709,10.262213 c -0.769688,0 -1.947949,1.144815 -2.133365,2.072525 -0.107538,0.536431 -0.231234,0.680316 -0.422585,0.489741 -0.47976,-0.479634 -1.447106,-0.289059 -2.153558,0.425339 -0.37866,0.382463 -0.803263,0.698 -0.943239,0.700526 -0.139977,0.0025 -0.290937,0.319351 -0.335238,0.704317 -0.04632,0.400099 -0.236665,0.699238 -0.445809,0.699238 -0.200563,0 -0.364776,0.171677 -0.364776,0.382464 0,0.455657 -0.745956,0.494767 -1.642875,0.08709 -0.49844,-0.227209 -0.962927,-0.21963 -2.010173,0.03156 -1.206911,0.289033 -1.43764,0.276426 -2.026834,-0.109827 -0.444292,-0.29156 -0.908656,-0.382439 -1.398764,-0.275138 -0.5069,0.111065 -0.834693,0.04037 -1.060121,-0.230999 -0.179863,-0.217103 -0.534919,-0.393808 -0.78938,-0.393808 -0.254837,0 -0.54085,-0.124936 -0.635514,-0.278928 -0.09467,-0.152728 -0.440758,-0.227209 -0.769056,-0.164097 -0.707588,0.135067 -1.486615,-0.612149 -1.735519,-1.664821 -0.222904,-0.941608 -1.02907,-1.711538 -1.79232,-1.711538 -0.646371,0 -0.757823,-0.19439 -1.047622,-1.8314715 C 11.960634,8.4913549 11.78014,8.2338518 11.370935,8.1757928 11.007548,8.1240465 10.795626,7.884233 10.738827,7.4613951 10.691999,7.110513 10.548614,6.7154418 10.420375,6.5829012 c -0.12824,-0.1337791 -0.23275,-0.506137 -0.23275,-0.8279901 0,-0.3294321 -0.154744,-0.5856709 -0.3525319,-0.5856709 -0.1937461,0 -0.4244742,-0.2006815 -0.5132086,-0.4455512 C 9.1458098,4.2377386 8.565072,3.2078046 8.339265,2.9818582 Z M 129.51212,169.26251 c -0.21458,-0.0203 -0.47459,-0.0129 -0.75607,0.036 -0.5806,0.10108 -1.19907,0.18488 -1.37452,0.18779 -0.17545,0.003 -0.31807,0.0918 -0.31807,0.19818 0,0.33284 -1.6396,1.04181 -1.73678,0.7505 -0.0479,-0.14552 -0.3206,-0.2648 -0.6046,-0.2648 -0.41779,0 -0.48594,0.11586 -0.35973,0.61631 0.17293,0.68929 -0.0455,1.48461 -0.35468,1.29325 -0.18806,-0.11637 -0.88731,0.18151 -1.78221,0.75833 -0.44934,0.28942 -0.96936,0.4255 -1.60551,0.42057 -0.25245,-0.003 -0.52255,0.16167 -0.59955,0.3639 -0.0782,0.20156 -0.35846,0.36679 -0.62352,0.36679 -0.45566,0 -0.68286,0.73219 -0.33575,1.08032 0.27642,0.27602 2.33254,-0.48823 3.54551,-1.31801 0.42031,-0.2874 1.0085,-0.52354 1.30637,-0.52405 0.29788,0 0.68411,-0.17355 0.8583,-0.38408 0.45817,-0.55172 1.00218,-0.46943 1.2521,0.19121 0.21709,0.57101 0.21835,0.57101 0.54274,-0.1276 0.17797,-0.38511 0.44429,-0.70014 0.58945,-0.70014 0.37108,0 1.94504,-1.56198 1.94504,-1.92978 0,-0.16624 0.23982,-0.36541 0.53518,-0.44227 0.75983,-0.19869 0.51876,-0.51131 -0.1237,-0.57241 z m -34.50214,2.74124 c -0.605848,0.0726 -0.61468,0.0967 -0.189328,0.52026 0.445558,0.44178 2.194956,0.53934 2.196216,0.12219 0,-0.30913 -1.302583,-0.72628 -2.006888,-0.64245 z m 4.759741,2.06646 c -0.203203,0.0813 -0.142624,0.14148 0.153988,0.15374 0.268851,0.0114 0.419061,-0.0493 0.334481,-0.13355 -0.0846,-0.0848 -0.304182,-0.0937 -0.488469,-0.0202 z m 3.962039,1.34007 c -0.39507,-0.004 -0.73081,0.12028 -0.73081,0.37614 0,0.19374 0.27894,0.49161 0.61973,0.66165 0.43546,0.21695 0.76489,0.23173 1.10317,0.0509 0.43797,-0.23425 0.44681,-0.29876 0.0909,-0.69282 -0.23477,-0.25823 -0.6879,-0.3914 -1.08296,-0.39582 z"
       style="fill:#828282;fill-opacity:1;fill-rule:nonzero;stroke:none;stroke-width:0.0126219" />
    <text
       xml:space="preserve"
       x="93.774704"
       y="125.11364"
       id="text1"
       class="txtEls"
       style="font-size:35.2778px;line-height:39.6743px;text-align:center;text-anchor:middle;fill:#f9f9f9;fill-opacity:1"><tspan
         sodipodi:role="line"
         id="tspan1"
         style="font-size:35.2778px;line-height:39.6743px;text-align:center;direction:ltr;text-anchor:middle;fill:#f9f9f9;fill-opacity:1;stroke-width:13.7198"
         x="93.774704"
         y="125.11364">0</tspan></text>
    <text
       xml:space="preserve"
       x="134.62868"
       y="87.978729"
       id="text1-8"
       style="font-weight:bold;font-size:32.6452px;line-height:36.7136px;font-family:'Arial Black';-inkscape-font-specification:'Arial Black,  Bold';text-align:center;letter-spacing:0px;word-spacing:0px;text-anchor:middle;fill:#f9f9f9;fill-opacity:1;stroke-width:12.6959;stroke-linecap:round;stroke-dashoffset:16.2288"><tspan
         sodipodi:role="line"
         id="tspan1-0"
         style="font-style:normal;font-variant:normal;font-weight:bold;font-stretch:normal;font-size:32.6452px;line-height:36.7136px;font-family:'Microsoft YaHei';-inkscape-font-specification:'Microsoft YaHei Bold';text-align:end;text-anchor:end;fill:#f9f9f9;fill-opacity:1;stroke-width:12.6959"
         x="134.62868"
         y="87.978729">人口</tspan></text>
    <text
       xml:space="preserve"
       x="174.53099"
       y="123.1501"
       id="text1-8-3"
       style="font-weight:bold;font-size:32.6452px;line-height:36.7136px;font-family:'Arial Black';-inkscape-font-specification:'Arial Black,  Bold';text-align:center;letter-spacing:0px;word-spacing:0px;text-anchor:middle;fill:#f9f9f9;fill-opacity:1;stroke-width:12.6959;stroke-linecap:round;stroke-dashoffset:16.2288"><tspan
         sodipodi:role="line"
         id="tspan1-0-7"
         style="font-style:normal;font-variant:normal;font-weight:bold;font-stretch:normal;font-size:32.6452px;line-height:36.7136px;font-family:'Microsoft YaHei';-inkscape-font-specification:'Microsoft YaHei Bold';text-align:end;text-anchor:end;fill:#f9f9f9;fill-opacity:1;stroke-width:12.6959"
         x="174.53099"
         y="123.1501">萬</tspan></text>
  </g>
</svg>
