<?xml version="1.0" encoding="UTF-8" standalone="no"?>
<!-- Created with Inkscape (http://www.inkscape.org/) -->

<svg
   width="108.88431mm"
   height="293.23843mm"
   viewBox="0 0 108.88431 293.23843"
   version="1.1"
   id="svg1"
   inkscape:version="1.3 (0e150ed, 2023-07-21)"
   sodipodi:docname="israel_terrain.svg"
   xmlns:inkscape="http://www.inkscape.org/namespaces/inkscape"
   xmlns:sodipodi="http://sodipodi.sourceforge.net/DTD/sodipodi-0.dtd"
   xmlns="http://www.w3.org/2000/svg"
   xmlns:svg="http://www.w3.org/2000/svg">
  <sodipodi:namedview
     id="namedview1"
     pagecolor="#ffffff"
     bordercolor="#000000"
     borderopacity="0.25"
     inkscape:showpageshadow="2"
     inkscape:pageopacity="0.0"
     inkscape:pagecheckerboard="0"
     inkscape:deskcolor="#d1d1d1"
     inkscape:document-units="mm"
     inkscape:zoom="0.5946522"
     inkscape:cx="216.0927"
     inkscape:cy="551.58293"
     inkscape:window-width="1312"
     inkscape:window-height="738"
     inkscape:window-x="158"
     inkscape:window-y="51"
     inkscape:window-maximized="0"
     inkscape:current-layer="layer1" />
  <defs
     id="defs1" />
  <g
     inkscape:label="Layer 1"
     inkscape:groupmode="layer"
     id="layer1"
     transform="translate(-47.961414,-2.5156087)">
    <path
       id="IL-GH"
       style="fill:#828282;fill-opacity:1;stroke-width:0.37025"
       d="m 155.08717,2.5156087 -3.51399,1.947168 -0.96997,0.7074504 -0.54777,0.8738484 -0.29611,1.9363159 -0.19998,0.5999634 -0.37414,0.5105632 -1.18494,0.966349 -1.28106,0.533301 -0.96997,0.166398 -1.603,-0.136942 -0.39636,0.155546 -0.52916,0.481624 -0.94775,1.514119 -0.65939,0.633037 -1.9513,1.169954 -1.85105,0.870231 -0.29973,0.392741 -0.24081,0.603064 h -5.2e-4 l -0.23306,0.225826 -0.24804,-0.07803 -1.51051,-2.154907 -0.44803,-0.366386 -0.15193,0.159163 -0.61081,1.347721 -0.59997,0.788583 -0.37052,0.311092 -0.54415,1.240234 -0.0295,0.592729 0.22945,1.036629 0.0517,0.921908 -0.31471,0.843876 -0.41082,0.714685 -0.39998,1.840198 -0.12971,1.658813 -0.31832,0.759127 -1.2144,0.514697 -0.14418,0.318327 -0.0853,0.959115 -0.15193,0.181384 -1.07746,0.40721 -1.12551,-0.270268 -0.2775,0.02946 -0.52193,0.384989 -0.31471,0.429432 -1.08882,1.047998 -0.46251,0.244429 -1.75131,0.14056 -1.62213,0.72192 -0.37,-0.10697 -0.96273,-0.570508 -0.59996,-0.68833 -1.07332,-2.040186 -1.26298,-0.30024 -2.45824,0.344682 -2.36213,0.07752 -0.73691,0.240812 -0.36639,0.396358 -0.2222,0.09612 -2.2624,-0.392224 -2.01021,0.170015 -2.84737,0.04082 v 0.718302 l 0.0517,0.06666 v 0.229443 l -0.0703,0.126091 -0.0372,0.696081 -0.0703,0.147795 -0.0186,0.481624 -0.0853,0.06666 0.015,0.229443 h -0.0517 l 0.0372,0.21084 -0.12609,0.189136 0.0372,0.103353 -0.0558,0.170532 0.0372,0.04082 -0.17777,0.147795 v 0.170532 l 0.0703,0.04082 -0.17777,0.31471 -0.0331,0.314709 -0.0889,0.170016 -0.0558,0.314709 -0.12196,0.251664 0.0331,0.211357 -0.0889,0.04444 0.0186,0.06305 -0.10387,0.229443 0.015,0.21084 -0.0889,0.166915 v 0.273885 l -0.0517,0.04444 0.0517,0.10387 0.0186,0.296106 -0.24805,0.46302 -0.0517,0.31471 -0.0708,0.06253 v 0.566891 l -0.10697,0.04392 v 0.188102 l -0.15916,0.399976 0.0181,0.103869 -0.0739,0.251664 v 0.21084 l -0.0331,0.02222 0.0186,0.252181 -0.0558,0.125574 -0.0186,0.611332 -0.24805,1.028878 -0.0331,0.548287 -0.28525,0.754992 v 0.166915 l 0.15916,-0.0186 0.12609,0.04082 V 41.47601 l 0.0703,-0.06253 0.21136,0.01809 0.14418,0.107487 0.12247,0.180867 v 5.17e-4 l 0.17777,0.362252 -0.0186,0.925525 -0.15916,0.818554 0.0186,0.08527 -0.17777,0.610816 0.0367,0.08113 -0.0889,0.06304 -0.14418,0.399976 0.0181,0.08527 -0.0703,0.04082 -0.15916,0.525549 0.0372,0.148312 -0.10748,0.04031 -0.63666,1.492416 -0.37413,0.544153 -0.24805,0.233577 -0.10749,0.229443 -0.0889,0.08527 v 0.103352 l -0.12196,0.06305 v 0.08527 l -0.107484,0.02222 -0.07028,0.144694 -0.12609,0.02222 -0.566374,0.377237 -0.28112,0.08527 0.103353,0.06305 0.144694,-0.02222 0.03307,0.21084 0.177767,0.0186 0.05168,0.08527 -0.01447,0.06305 -0.355534,0.103869 -0.05581,-0.333313 -0.28112,-0.189135 -0.0708,0.0186 0.05219,0.148311 -0.19637,0.02222 -0.08888,0.06305 h -0.229443 l -0.07028,-0.170533 -0.122473,-0.04082 -0.05529,-0.399459 -0.141076,-0.207739 -0.106971,-0.02222 -0.0186,0.04082 v 0.08527 l 0.08888,0.08527 -0.03359,0.125573 h -0.08837 l -0.03721,-0.188619 h -0.07028 v 0.207223 l -0.0708,0.04444 -0.03669,-0.148312 -0.10387,-0.125573 -0.0739,-0.02222 -0.05219,-0.10387 -0.370003,-0.188619 0.01499,-0.08527 -0.0708,-0.02222 -0.03307,-0.08165 -0.08888,-0.02222 0.14056,-0.04082 0.318843,0.22996 0.266134,0.08527 0.444417,0.04031 h 0.07028 l 0.141077,-0.103353 0.03669,0.04031 0.211357,-0.08113 v -0.06666 l -0.459404,0.129708 -0.481108,-0.02222 -0.08888,-0.107487 v -0.06305 l -0.192753,-0.0186 -0.318327,-0.125573 -0.08888,-0.08527 H 96.431323 L 96.27216,47.925757 96.039099,47.81827 h -0.159163 l -0.05219,0.08527 -0.05529,-0.02222 -0.05168,0.04444 -0.07028,0.12609 -0.318843,0.166398 -0.233061,-0.02222 -0.192753,0.04444 -0.392224,0.377755 -0.159164,-0.04082 -0.103869,0.12609 0.07028,0.125574 -0.08888,0.10387 v 0.670243 l 0.05219,0.188619 0.07028,0.06305 -0.05219,0.170532 0.05219,0.01809 v 0.06305 l -0.05219,0.02222 -0.05168,-0.06305 -0.03721,0.06305 h -0.05168 l 0.08888,0.166915 0.01499,0.255282 -0.05168,0.503845 -0.0186,0.04031 h -0.08888 l 0.07028,0.336931 -0.08527,1.070219 -0.0739,0.166398 -0.03307,0.292488 v 0.65164 l -0.0708,0.274402 -0.125573,1.46606 -0.141077,0.336931 -0.07028,0.773596 -0.12609,0.148311 0.05581,0.188619 -0.0739,0.31471 -0.122473,0.273885 -0.177767,0.22996 -0.248047,-0.02222 -0.14056,0.147795 v 0.103869 l -0.19637,0.233061 v 0.166915 l -0.106971,0.314709 v 0.166399 l 0.08888,0.06305 0.01809,0.12609 -0.106971,0.08527 0.01809,0.144178 -0.03669,0.04444 v 0.10387 l 0.0739,0.06305 v 0.06253 l -0.0739,0.148311 0.01809,0.625802 -0.103353,0.692464 -0.0186,0.670243 -0.0186,0.08475 -0.159164,0.148311 0.0186,0.333313 -0.08888,0.463021 0.10387,0.06253 -0.122473,0.207739 -0.10697,0.462505 -0.03359,0.607198 -0.08888,0.207222 -0.08888,0.02222 -0.07028,0.670243 -0.0739,0.211357 0.05529,0.04082 v 0.188619 l -0.07028,0.148312 0.01499,0.355017 -0.05219,0.144694 0.05219,0.08475 -0.10387,0.148311 -0.107487,0.311093 v 0.107487 l 0.0708,0.04031 -0.05219,0.292489 -0.125574,0.12609 v 0.126091 l 0.125574,0.125573 0.03359,0.166915 -0.14056,0.273885 0.03669,0.144694 -0.03669,0.08475 -0.0708,-0.04082 -0.14056,0.522449 -0.107487,0.125574 -0.01809,0.166915 0.05168,0.103353 -0.211357,0.399975 0.08888,0.06305 v 0.126091 l 0.122474,0.0186 0.01809,0.08475 -0.103353,0.207739 -0.12609,-0.0186 -0.14056,0.144177 -0.08888,0.274402 v 0.207222 l 0.05168,0.06305 0.107487,0.02222 0.0186,0.270268 -0.08888,0.170015 -0.0186,0.270268 -0.07028,0.10387 -0.144694,0.629419 -0.103353,0.229443 h -0.08888 l 0.01809,0.10387 0.17415,0.02222 -0.17415,0.229443 -0.01809,0.292489 -0.144694,0.107487 -0.03307,0.248046 0.07028,0.06305 v 0.147794 l -0.12609,0.144694 0.03721,0.08527 -0.07028,0.125574 v 0.166915 l -0.07028,0.04082 0.01809,0.292489 0.103869,-0.04082 0.03721,0.103869 -0.19637,0.336931 -0.0186,0.229443 0.03721,0.06305 -0.08888,0.06253 h -0.05168 l -0.0186,-0.06253 -0.07028,0.02222 v 0.05891 l 0.07028,0.02222 v 0.08527 l -0.03721,0.144694 -0.07028,0.02222 v 0.08527 l 0.05581,0.05891 H 89.7816 l -0.0186,0.04444 h -0.210839 l -0.0186,-0.148311 -0.07028,-0.06305 -0.03721,0.166915 -0.05168,0.04444 -0.692465,0.01809 v 0.107487 h 0.781348 l 0.14056,0.374137 -0.107487,0.566374 -0.192236,0.584977 -0.03721,0.607198 -0.266651,1.296045 -0.03307,0.0186 0.0186,0.06253 -0.144694,0.06305 -0.08888,0.166915 v 0.10697 l -0.103352,0.144694 h 0.173632 v 0.04082 l -0.05168,0.170015 -0.121956,0.05943 -0.07442,0.170016 0.03721,0.06304 h 5.16e-4 l -0.05168,0.310575 -0.05581,0.02222 -0.14056,0.374137 -0.07028,0.04444 -0.08888,0.188619 0.121956,0.08165 -0.103352,0.418579 0.03307,0.251664 -0.03307,0.292489 -0.05581,0.125574 -0.192236,0.185518 v 0.04444 h 0.103352 l -0.08888,0.458886 v 0.248047 l -0.299723,1.381311 -0.107487,0.207223 v 0.251664 l -0.07028,0.188619 -0.121957,0.70745 -0.0186,0.06305 -0.229443,0.125573 0.01447,0.10387 0.08888,0.06305 v 0.08527 l -0.262516,1.188558 0.01447,0.147795 -0.07028,0.06305 -0.07028,0.374138 0.03721,0.355533 -0.05581,0.02222 -0.07028,-0.04444 0.0186,0.251664 -0.159164,0.355534 -0.03721,0.207222 -0.192753,0.377755 -0.03669,0.47749 -0.126091,0.21084 v 0.06305 h 0.05529 l -0.01447,0.311092 -0.199988,0.521932 0.01809,0.06305 -0.08888,0.292489 -0.07028,0.10387 0.0186,0.248047 -0.177767,0.481107 -0.107487,0.166915 -0.121956,0.544153 v 0.333313 l -0.144178,0.144177 0.03669,0.21084 -0.08888,0.207739 -0.03669,0.292489 -0.192753,0.292488 -0.0186,0.248047 -0.159163,0.292489 0.0186,0.166398 -0.08888,0.08527 -0.196371,0.45527 -0.01809,0.107486 0.05529,0.06305 v 0.103869 l -0.107487,0.284738 -0.125573,0.214973 -0.17415,0.936377 -0.251664,0.833025 -0.03359,0.06304 -0.10697,-0.04031 -0.0708,0.06253 -0.03669,0.478007 0.125574,0.08475 0.0186,0.166915 -0.19637,0.103353 0.03721,0.22996 -0.214974,0.540535 v 0.314702 l -0.177767,0.68472 -0.05168,0.0444 0.0186,0.0816 -0.05581,0.14418 -0.159164,0.21084 -0.121956,0.6258 -0.196371,0.60358 h -0.07028 l -0.03721,-0.10387 h -0.05168 l -0.0186,0.12247 0.08888,0.1664 -0.159164,0.31471 -0.107487,0.33331 -0.07028,-0.0222 -0.14056,0.10387 v 0.20722 l 0.08888,0.25167 -0.04806,0.12609 -0.07803,0.0408 -0.01447,0.18862 -0.26665,0.62219 -0.03721,0.14779 0.03721,0.0186 -0.05581,0.063 0.0739,0.10387 -0.106971,0.0408 0.03307,0.0439 -0.01447,0.18552 -0.08888,0.12557 -0.12609,0.39636 -0.196371,0.31109 -0.159163,0.12609 h -0.121956 l -0.196371,0.18862 0.07028,0.0594 v 0.18862 l -0.21084,0.16639 -0.05168,0.45941 -0.08888,0.10387 -0.07441,0.1664 v 0.12195 l -0.103353,0.16692 -0.12609,0.41806 0.08888,0.063 -0.140559,0.18501 -0.05581,0.48162 -0.14056,0.3297 -0.14056,0.55138 0.521932,0.0847 0.299724,0.22996 0.425813,0.0811 1.136882,-0.0181 0.54777,0.31057 0.444417,0.0631 0.992188,-0.0631 0.533301,-0.14779 0.4408,-0.41496 v 5.1e-4 l -0.4408,0.41445 -0.533301,0.14831 -0.992188,0.0625 -0.444417,-0.0625 -0.54777,-0.31109 -1.136882,0.0186 -0.425813,-0.0816 -0.299724,-0.22944 -0.521932,-0.0853 -0.781347,2.69545 -0.444418,1.16272 -0.458886,1.12551 -0.533301,0.78858 -0.01499,0.12609 -0.08888,0.0403 -0.144177,0.24805 h -0.03359 v 0.10387 h -0.05529 l -0.03307,0.063 v 0.14831 l -0.05581,0.0181 -0.01499,0.0853 -0.0739,0.0186 -0.01499,0.25166 -0.10697,0.20723 -0.08888,0.45578 -0.07028,0.0847 v 0.0816 l -0.196371,0.41496 -0.07028,0.31471 -0.584977,1.46244 0.240812,-5.1e-4 0.248047,-0.10387 0.177767,-0.1664 0.318327,-0.0408 v 5.1e-4 l 0.389123,0.47749 0.443901,0.0403 0.618567,-0.22583 0.233061,0.12248 0.122473,0.20722 -0.05219,0.27027 0.05168,-0.27027 -0.121956,-0.20722 -0.233061,-0.12196 -0.618567,0.22583 -0.443901,-0.0408 h -5.16e-4 l -0.388607,-0.47749 -0.318327,0.0408 -0.177767,0.16639 -0.248047,0.10387 h -0.240812 l -0.410828,0.88109 -0.529683,1.33273 -0.14056,0.0816 v 0.0403 h -0.05168 l -0.0186,-0.0811 -0.05529,0.0403 -0.01499,0.54106 0.01499,0.10335 0.08888,0.0408 -0.03359,0.0853 -0.14056,0.14418 -0.03721,0.10387 h -0.40721 l -0.07028,-0.0853 h -0.159163 v 0.0853 l 0.07028,0.0408 v 0.0625 l -0.0186,0.1664 -0.05168,0.063 0.01499,0.20774 -0.0708,0.0403 v 0.0631 l 0.177767,0.10386 -0.03307,0.10387 h -0.144177 l -0.22996,-0.39635 v -0.35192 l 0.107487,-0.24805 0.07028,-0.0444 v -0.14418 h -0.05529 l -0.17415,0.43667 -0.0186,0.28887 0.107487,0.35553 0.192753,0.20723 -0.266651,0.62218 -0.22996,0.41445 -0.17725,0.50022 -0.177767,0.32918 0.01809,0.063 -0.05168,0.0222 -0.107487,0.185 -0.318327,0.7705 -0.318327,0.53691 -0.640788,1.36995 -0.706933,1.22525 -0.144694,0.41496 -0.28112,0.3514 -0.496094,0.99632 -0.19637,0.27027 -1.081071,1.92856 h -0.07028 l -0.03721,-0.0847 -0.08888,0.0631 -0.103869,0.27026 -0.195854,0.24805 0.01809,0.10335 -0.14056,0.28888 -0.355534,0.4594 -0.229444,0.16278 -0.12609,0.43667 -0.973584,1.61798 -0.05529,0.0186 -0.03359,-0.0631 -0.177767,-0.0408 0.159163,-0.185 v -0.0853 l -0.214457,0.25218 v 0.0589 l 0.05529,0.0222 -0.0186,0.185 0.107487,0.0222 0.0186,0.0408 -0.126091,0.185 -0.266134,0.16692 -1.540474,2.5063 2.337842,2.1854 -2.338359,-2.17041 -0.688847,1.11104 -1.599385,2.31046 -2.906283,3.75067 -1.399914,1.55133 -0.496094,0.57722 -0.373621,0.51832 -1.506884,1.81798 -0.940511,1.03301 -1.188558,1.24075 -0.584978,0.5364 -0.692464,0.61857 -2.180745,2.33629 -1.896009,1.85467 -0.140559,0.10748 2.480985,8.23826 0.0088,-0.007 5.263761,17.47129 3.643189,10.66705 5.620329,11.80703 1.847432,7.68635 -0.185001,4.02456 2.76934,3.24735 -1.321884,3.72483 0.163298,2.26188 4.453992,2.91404 1.299662,4.88704 5.498372,15.54685 2.066024,5.71335 -0.129708,1.10691 6.52725,18.32343 -0.04444,3.52123 1.144116,1.99574 0.288871,1.37356 -0.299723,1.99574 -0.599964,1.99213 0.255799,2.12855 0.30334,1.22215 0.840259,1.58802 1.610755,1.86655 0.26665,-0.12247 0.281637,-0.32195 v -0.185 l 0.125573,-0.10025 0.229444,-0.32556 0.15968,-0.10025 v -0.30335 l 0.248047,-0.24442 0.05529,-0.20361 0.229444,-0.14056 0.19637,-0.22221 v -0.0594 h 0.14056 l 0.159164,-0.26665 0.05219,-0.30334 0.07028,-0.14056 0.162781,-0.063 0.03307,-0.10025 h 0.159681 l 0.01809,-0.0997 0.08888,-0.10387 0.03359,-0.19999 0.0739,-0.0217 0.05168,-0.20412 h 0.141077 l 0.159163,0.16329 0.266651,-0.0186 0.12609,0.0408 0.621668,-1.74769 0.685229,-1.37356 0.969967,-1.12551 1.140499,-0.83716 0.836641,-1.02526 -0.01499,-1.42576 -0.170016,-1.53995 v -2.466 l 1.088307,-4.52841 0.185,-1.47691 -0.185,-1.09244 0.28526,-1.37718 1.8805,-3.76204 -0.19947,-5.73144 1.32912,-5.27978 4.93923,-7.08639 -1.99936,-8.84545 1.2144,-2.69544 -0.21859,-1.46606 0.40721,-1.26608 1.418,-1.56993 0.2036,-0.87746 -0.33693,-1.14774 -2.20658,-4.15065 0.25166,-0.9958 0.88109,-1.26659 0.4408,-1.31827 1.44384,-6.69364 0.15192,-1.2144 1.88464,-3.63595 0.94775,-0.8816 0.33693,-1.64021 1.56631,-2.85823 0.89969,-2.09909 0.007,-3.01377 0.56275,-1.54048 0.95188,-1.15135 1.22163,-0.4408 0.32608,-1.4919 -0.32246,-1.21801 0.0222,-1.34049 1.70326,-3.76153 2.39933,-1.57354 1.10691,-1.01855 0.004,-1.52548 -0.52193,-1.44384 -0.15193,-1.20716 0.2589,-1.51051 2.44377,-3.76514 0.39275,-1.35909 0.43304,-1.89963 -0.0667,-1.15858 -0.31833,-1.54771 -0.50746,-1.08831 -2.84685,-3.83232 -0.72967,-1.5844 0.32969,-1.49603 0.68471,-1.21078 0.73691,-1.49604 2.41432,-4.33565 1.0511,-2.99878 0.22583,-1.49603 0.0263,-3.80959 0.008,-1.28881 -0.0227,-5.2e-4 0.0444,-3.07991 0.12919,-3.32848 1.34772,-4.62453 1.38493,-4.35787 0.58859,-1.85518 0.0739,-0.13333 1.54409,-2.76934 -0.78858,-4.36511 0.50385,-1.41852 -0.66301,-1.06246 0.62218,-1.22939 -1.11104,-0.70693 -0.62167,-3.15071 1.15135,-1.11104 0.40359,-2.67323 -1.0666,-2.34714 0.59635,-0.86661 -0.10387,-0.51057 -0.6997,-0.80718 -0.14056,-3.22875 0.18139,-0.36276 0.34416,-0.68885 0.20722,-1.32912 0.89969,-1.21801 0.24443,-0.83303 0.18138,-1.999355 0.41135,-1.873787 0.55139,-1.088306 0.15554,-0.640788 -0.0439,-0.86558 -0.17777,-0.596346 -0.0631,-1.203028 -0.24804,-1.073836 0.22944,-1.662431 -0.43718,-1.085205 0.015,-0.532784 0.3111,-0.873848 -0.49972,-1.340487 0.0481,-0.603581 0.20361,-0.525549 0.18138,-1.125513 -0.15554,-0.4408 -0.47026,-0.584977 0.12196,-1.347721 -1.48105,-0.425814 -1.8805,-0.877466 -0.80357,-0.244429 -1.45159,-0.06305 -0.95498,0.278019 -0.80719,-0.129708 -0.4222,-0.374137 0.0186,-0.381373 -0.45527,-0.584977 -0.37052,-1.088305 0.078,-1.503268 -0.19999,-1.614372 -1.03663,-1.754931 -1.03301,-0.769979 -0.54053,-0.133325 -1.22939,-0.0186 -3.12125,0.574125 -0.74414,-0.0041 -0.50747,-0.133325 -1.00304,-0.496094 -0.98133,-0.718302 -1.13688,-1.181323 -0.8847,-0.481108 -0.61805,0.09612 -0.32815,0.165365 0.006,-0.0062 0.34106,-0.170533 0.61805,-0.0925 0.88108,0.481624 1.1405,1.180806 0.97772,0.718303 1.00304,0.496094 0.50746,0.133325 0.74414,0.0041 3.12126,-0.573608 1.22525,0.02222 0.54105,0.133326 1.03301,0.769978 1.03663,1.754932 0.19999,1.614372 -0.078,1.503267 0.37,1.088306 0.45217,0.584977 -0.0186,0.381372 0.42219,0.374138 0.80667,0.130224 0.9555,-0.278019 1.45107,0.06305 0.79995,0.24443 1.88051,0.877466 1.48105,0.425813 0.52244,0.05168 -0.61133,-1.029395 0.0667,-0.121956 0.47801,-0.14056 0.11111,-0.278019 -0.18552,-1.702739 0.74827,-0.233577 -0.15554,-0.995805 0.21445,-0.19637 0.3111,-0.01085 0.15916,-0.37052 -0.12919,-0.251664 -0.52969,-0.259415 -0.0997,-0.340548 0.0553,-0.381372 0.78859,-1.418002 0.078,-0.384989 -0.12248,-0.203605 -0.47749,-0.192753 -0.40721,-0.929142 -0.41082,0.01137 -0.30386,-0.22996 0.34055,-0.47749 0.6444,-0.136943 0.14056,-0.237194 -0.42943,-0.695565 -0.0408,-0.448035 0.13694,-0.07441 0.37052,0.24443 0.29249,0.0072 0.11472,-0.711067 0.63665,0.0072 0.0631,-0.155546 -0.65526,-1.35909 0.0444,-0.706933 0.30334,-0.703833 -0.12557,-0.469739 -0.47387,-0.259416 -0.1447,-0.348299 0.0925,-1.121379 -0.19999,-0.233577 0.0853,-0.773596 0.92191,-0.699699 0.56275,-0.159164 0.15555,-0.181901 -0.0295,-0.458886 0.72192,-0.285254 -0.11833,-1.062468 0.41444,-0.473873 1.79937,-0.784965 -0.0331,-0.473873 0.0336,0.47439 0.76274,-0.492476 1.58079,-0.111105 0.45527,-0.296622 0.63303,-0.192237 1.01493,-0.718302 0.91777,-0.929142 1.45521,-0.199988 0.25942,-1.025777 0.24804,-0.562757 0.31833,-0.270267 0.66249,-0.08165 1.39216,-0.573609 0.4036,0.229444 0.0594,0.251664 1.99213,-2.314071 1.5658,-2.810164 1.03663,-1.110527 0.93689,-2.058789 1.15549,-2.017964 0.24494,-0.42168 0.29249,-0.807186 -0.004,-0.418579 -0.2186,-0.529167 -1.11052,-1.540474 -0.54829,-5.038969 -0.3328,-1.085205 0.18862,-2.384351 -0.32194,-1.3255 0.15141,-0.395842 0.27027,-0.218591 1.27021,0.33693 0.7183,-0.08527 0.34055,-0.203605 0.0925,-0.185001 -0.0739,-0.326079 -0.72192,-0.818038 -0.14469,-0.414961 0.11885,-0.31471 1.02164,-0.903304 0.15193,-1.987992 -1.34772,-1.947685 -0.48524,-0.225826 -0.87385,-0.0925 -0.52916,-0.189136 -0.12248,-0.821655 0.20412,-0.40721 0.57,-0.622184 0.24081,-0.61805 0.12557,-0.603581 -0.0811,-0.892452 -0.42943,-1.544092 -0.21136,-0.366386 -0.41444,-0.577742 -0.94051,-0.803569 -0.47388,-0.569991 0.73329,-1.251603 0.0961,-0.518315 -0.30748,-3.0840493 0.19637,-1.3735595 0.54416,-1.414384 1.2702,-1.4474568 0.66611,-1.1038086 0.22996,-0.9699667 -0.0889,-0.5441528 z m -13.92989,14.2885333 0.0455,0.150895 -0.54829,1.266073 0.54777,-1.266073 z m -0.50282,1.417485 -0.31057,1.188558 -0.0444,1.654679 0.11472,1.010791 0.24908,1.072286 -0.2496,-1.072286 -0.11472,-1.010791 0.0444,-1.655196 z m 0.0667,5.175911 -0.004,0.51108 -0.2372,0.921908 -0.95136,2.539896 -0.17415,1.658814 -0.0222,1.969389 h -5.2e-4 v -5.17e-4 l 0.0222,-1.969389 0.17415,-1.658813 0.95137,-2.539897 0.23719,-0.921908 z m -1.57407,7.386113 5.2e-4,5.16e-4 -0.68523,0.207223 -0.29972,0.347782 -0.65888,1.259355 -1.048,1.047481 0.0222,0.355534 -5.1e-4,-5.17e-4 -0.0222,-0.355017 h 5.1e-4 l 1.04748,-1.047998 0.65888,-1.258838 0.29972,-0.348299 z m -1.9327,4.602303 5.2e-4,5.17e-4 0.10025,1.643827 z m 0.10749,1.751831 -0.28112,3.879866 -0.12971,0.647506 0.12919,-0.647506 z m -0.41083,4.527889 -0.37,0.818555 -0.0186,0.392224 0.13332,0.321944 h -5.2e-4 l -0.1328,-0.321944 -5.2e-4,-5.17e-4 0.0186,-0.392224 z m 0.51418,1.488281 h 5.2e-4 l 0.26613,0.458887 z m 1.96216,3.580143 0.14883,1.029912 -0.12248,1.139982 0.12196,-1.140499 z m -32.41818,6.426481 v 0.001 l -0.94051,1.491382 z m 31.88178,0.197921 -0.19586,1.324984 -0.71468,1.496033 -1.21078,1.229382 -0.0186,0.147795 0.0181,-0.148312 1.21078,-1.229382 0.71469,-1.495516 z m -32.57424,2.656686 v 10e-4 l -0.12041,0.160714 z m -0.14108,0.189652 -0.60306,0.440283 v -5.17e-4 z m -1.8805,1.276408 0.17776,0.170532 0.32195,0.544153 0.12195,0.06304 0.22996,-0.08527 -5.1e-4,10e-4 -0.22945,0.08527 -0.12195,-0.06305 -0.32246,-0.54467 -0.17725,-0.170016 -0.15969,0.02222 5.2e-4,-5.16e-4 z m 0.0889,2.66237 v 5.16e-4 l -0.17415,0.170533 -1.11828,0.625801 -0.21446,0.29559 0.21446,-0.296623 1.11828,-0.625285 z m -4.05815,2.202966 h 0.31833 l 0.38912,0.10387 0.71055,0.355534 h 0.28525 l 0.19276,-0.166915 -5.2e-4,10e-4 -0.19224,0.166398 h -0.28525 l -0.71107,-0.355534 -0.3886,-0.103869 h -0.31833 l -0.355536,0.144694 -0.177766,0.188102 0.177766,-0.189136 z m -0.533302,0.33383 -0.248047,0.4408 v -10e-4 z m -0.688331,2.054138 h 0.477491 l 0.496092,0.207739 0.29972,0.04444 0.39275,-0.08527 v 5.17e-4 l -0.39275,0.08527 -0.29972,-0.04444 -0.496092,-0.207223 h -0.477491 l -0.248046,0.08165 -0.144694,0.21084 v -0.001 l 0.144694,-0.21084 z m 7.474993,4.547009 -0.0661,0.3514 -5.2e-4,5.17e-4 z m 2.28514,2.862358 -0.004,0.0041 -0.49041,0.356051 z m -1.25109,0.910022 -0.0124,0.0088 -1.58802,0.810803 -2.56574,0.969967 -0.47077,0.355534 5.2e-4,-0.001 0.48524,-0.366386 2.56574,-0.969967 z m -18.135845,6.93136 0.584977,0.103869 5.17e-4,5.17e-4 0.725537,0.314193 0.284737,0.06304 0.459404,-0.02222 0.762744,-0.293005 0.621667,-0.08113 0.974101,0.06305 0.973584,0.229443 h 1.525488 l 0.266651,0.08165 0.210839,0.147795 5.17e-4,0.001 -0.211356,-0.148311 -0.266651,-0.08113 H 94.82522 l -0.974101,-0.229443 -0.973584,-0.06305 -0.622184,0.08113 -0.762744,0.292489 -0.458887,0.02222 -0.285254,-0.06305 -0.725537,-0.31471 -0.584977,-0.103353 -0.56224,0.02274 z m 7.70909,0.963765 0.233061,0.457853 0.440283,0.252181 -0.440283,-0.251147 z m 3.639055,0.794784 0.2837,0.01809 v 0.001 l -0.28318,-0.01809 -1.777156,0.562757 H 98.54954 l -0.284737,-0.06305 -5.17e-4,-5.16e-4 0.285254,0.06253 h 0.458887 z m 0.14831,1.000455 -5.2e-4,0.0041 -0.43253,0.418063 -0.015,0.01499 -1.652616,0.741557 0.0093,-0.01189 1.658296,-0.744657 z m -3.188435,7.717359 -0.0036,0.0098 -0.132809,0.09664 -0.403593,0.288871 -0.868681,1.257288 0.0026,-0.0062 0.877466,-1.26969 z m -10.792106,18.637618 0.355017,0.14418 v 5.2e-4 z m 11.870076,11.41688 -0.0041,0.0124 -3.181718,0.56999 0.0093,-0.0145 z m -5.860624,0.46044 0.988053,0.12247 -0.98857,-0.12196 -0.574125,0.0631 5.17e-4,-5.2e-4 z m 0.98857,0.12247 1.636593,0.0703 v 5.1e-4 z m -15.565975,0.19223 -0.02894,0.11524 0.125573,0.55863 -0.12609,-0.55863 z m 12.280904,2.19264 -2.036051,0.42943 5.17e-4,-5.2e-4 z m -9.91464,1.12137 1.096057,0.62167 0.355534,0.31109 v 5.2e-4 l -0.355534,-0.31109 z m -3.369303,0.37052 0.05219,0.29198 -5.17e-4,5.1e-4 z m 2.817916,0.0625 v 5.2e-4 l -0.196371,0.14779 -0.263033,0.0408 -0.603064,-0.0853 0.603064,0.0847 0.263033,-0.0403 z m 5.657535,1.24747 h 0.143661 v 5.2e-4 h -0.144177 l -0.195854,0.14469 v -5.1e-4 l 0.195854,-0.14418 z m -6.701916,0.3297 0.40721,0.10387 0.159164,-0.0186 v 5.2e-4 l -0.159164,0.0181 -0.40721,-0.10336 -0.125574,0.0439 z m -2.854606,0.10387 0.30024,0.22944 0.710551,0.0408 -0.711068,-0.0403 z m 1.399398,0.37413 0.389123,0.31058 0.159164,0.0222 0.584977,-0.10335 -0.584977,0.10387 -0.159164,-0.0222 z m 6.575826,1.04025 -0.192237,0.14469 -0.411344,0.10336 -0.21084,-0.14418 v -5.2e-4 l 0.21084,0.1447 0.411344,-0.10387 z m 26.76994,2.40347 -0.009,0.0139 -3.21738,0.0853 -2.71456,1.10846 0.0119,-0.0119 2.71767,-1.11466 z m -9.27282,4.49844 -0.0108,0.0109 -2.986897,1.43402 0.01395,-0.0124 z m -33.573658,9.91877 0.0072,1.43299 -0.12609,0.22272 0.125573,-0.22272 z m 54.088688,4.34754 -2.24948,1.98747 -2.12131,1.54771 -0.0217,0.009 2.11667,-1.54615 0.61805,-0.54416 1.64021,-1.44797 z m -6.43785,4.45451 -1.5875,1.78697 -1.86242,1.90686 -0.93689,0.56275 -0.007,0.001 0.92087,-0.55294 1.86242,-1.90686 1.58854,-1.78801 z m -58.600558,3.02048 -0.558105,1.86191 0.159163,2.14353 0.01499,2.00298 -0.0041,0.008 -0.01447,-2.00297 -0.159164,-2.14354 0.306958,-1.0294 0.251665,-0.83664 z m 49.196478,1.66915 0.006,0.002 -1.33118,0.69092 -0.008,-5.2e-4 z" />
  </g>
</svg>
