<?xml version="1.0" encoding="UTF-8" standalone="no"?>
<!-- Created with Inkscape (http://www.inkscape.org/) -->

<svg
   width="208.43874mm"
   height="87.876122mm"
   viewBox="0 0 208.43874 87.876122"
   version="1.1"
   id="svg1"
   inkscape:version="1.3 (0e150ed, 2023-07-21)"
   sodipodi:docname="turkey_terrain.svg"
   xmlns:inkscape="http://www.inkscape.org/namespaces/inkscape"
   xmlns:sodipodi="http://sodipodi.sourceforge.net/DTD/sodipodi-0.dtd"
   xmlns="http://www.w3.org/2000/svg"
   xmlns:svg="http://www.w3.org/2000/svg">
  <sodipodi:namedview
     id="namedview1"
     pagecolor="#ffffff"
     bordercolor="#000000"
     borderopacity="0.25"
     inkscape:showpageshadow="2"
     inkscape:pageopacity="0.0"
     inkscape:pagecheckerboard="0"
     inkscape:deskcolor="#d1d1d1"
     inkscape:document-units="mm"
     inkscape:zoom="1.1893044"
     inkscape:cx="353.56802"
     inkscape:cy="143.78152"
     inkscape:window-width="1312"
     inkscape:window-height="762"
     inkscape:window-x="64"
     inkscape:window-y="54"
     inkscape:window-maximized="0"
     inkscape:current-layer="layer1" />
  <defs
     id="defs1" />
  <g
     inkscape:label="Layer 1"
     inkscape:groupmode="layer"
     id="layer1"
     transform="translate(-0.8433848,-0.89671223)">
    <path
       id="TR-01"
       d="m 17.968487,0.89671223 -0.184535,0.097181 -0.06575,0.19995287 -0.162941,0.042175 0.008,0.3212656 -0.165517,-0.047347 -0.05033,-0.1053676 -0.139296,0.073508 -0.162951,-0.099728 -0.236965,0.070922 -0.250324,-0.2791205 -0.447204,-0.099718 -0.189667,0.134164 -0.289396,0.033919 0.01333,0.3634206 -0.197387,0.2528904 -0.276544,0.018004 0.02875,0.2554667 -0.197387,0.258043 -0.08375,0.086837 -0.347476,-0.060676 -0.22669,0.1999529 -0.386537,-0.039589 -0.221031,0.1264551 -0.07659,0.1814418 -0.334117,-0.08425 -0.2529,-0.2128044 -0.33925,0.3181721 -0.0555,0.1423901 -0.433834,-0.1449564 -0.516077,0.034416 -0.44977,-0.2030365 -0.06893,0.2107454 -0.61836,0.5659398 0.236955,0.3238318 -0.173733,0.2657518 0.14238,0.1922441 -0.158315,0.083753 -0.01283,0.1737428 -0.1501,0.1264452 -0.123879,0.3264081 -1.6685056,0.00497 -0.2210305,0.08425 -0.3839808,0.8974806 -0.018501,0.2765446 0.5366362,0.5525808 0.6106612,0.2235968 0.1156528,-0.042175 0.2554667,0.2210305 0.3130394,0.023674 -0.00298,0.1398135 -0.086837,0.076094 0.4477106,0.4579955 0.420984,0.1711666 0.270885,0.023674 0.06068,0.3315503 -0.126445,0.2076618 0.09768,0.3736955 -0.05292,0.2554667 0.131587,0.3999061 -0.01283,0.3685527 0.115653,0.215888 -0.01333,0.500141 0.197386,0.134164 0.06326,0.402482 -0.05759,0.573638 -0.150099,0.189678 -0.350042,0.187102 -0.442061,-0.258033 -0.279121,0.03959 -0.05809,0.14444 -0.1711663,0.01591 -0.1130865,0.315605 -0.242108,0.07918 -0.049834,0.244674 -0.2529004,0.04735 -0.3999059,0.399905 -0.4734136,0.03183 -0.1423901,-0.147523 -0.2235968,0.09201 -0.05809,0.245181 0.1341541,0.244675 -0.1130865,0.233882 0.037002,0.255466 -0.1315878,0.04218 -0.049834,0.107944 0.08435,0.202519 0.2472505,0.247251 -0.1634677,0.137237 0.00796,0.14444 -0.2107454,0.1686 0.055504,0.06833 0.2734607,-0.0185 -0.044761,0.187102 -0.2050955,0.191726 0.00796,0.137248 0.1922441,0.313039 -0.03183,0.141873 0.1290215,0.02109 0.3078969,0.281677 -0.099718,0.302764 -0.350042,0.202519 0.3603271,0.579299 -0.4076247,0.06326 -0.1973767,0.191727 -0.166034,-0.06018 -0.015915,0.141873 0.1552316,0.265742 -0.086837,0.118746 -0.184018,0.01283 -0.1475227,-0.302755 -0.107944,0.166034 -0.02626,0.307897 -0.2734607,-0.118229 v 0.331541 l -0.1896678,0.02367 0.092009,0.160375 H 6.7176462 v 0.102811 l 0.1079439,0.008 0.012831,0.06834 -0.7921029,0.671307 -0.1711765,0.323842 -0.031333,0.405048 -0.5525711,0.218455 -0.4451441,-0.008 0.2056123,0.263176 0.1105103,0.649722 -0.03183,0.400424 0.074005,0.176309 0.4235497,0.381404 0.4184171,0.121313 0.7946692,-0.111028 0.9211343,0.09768 0.7921029,-0.249817 0.4055657,0.131598 0.4657047,-0.239542 0.2708844,0.06575 0.2950455,0.218455 0.2868294,0.06018 0.636871,-0.555138 0.189678,-0.07918 0.992057,-0.01542 0.173743,-0.08684 0.08425,-0.420983 0.178876,-0.332058 0.434352,-0.489349 0.09201,-0.360327 -0.08684,0.362904 -0.434342,0.489855 -0.178885,0.328975 -0.08684,0.42356 0.294538,0.003 0.334624,-0.178876 0.357761,0.03959 0.118219,0.107944 0.134164,0.360327 0.06326,0.536636 -0.431259,0.397857 -0.289913,0.134154 -0.265752,-0.0555 0.01592,-0.120795 -0.300188,0.286829 -0.14444,0.376262 -0.131588,0.05501 -0.65024,-0.04725 -0.300188,0.102801 -0.618361,0.334117 -0.555147,0.420984 -0.4739309,0.131587 -0.4708373,0.418417 -0.1578079,0.02676 -0.11617,0.144439 -0.2395317,0.11051 -0.010245,0.08684 -0.2184641,0.107944 -0.1367303,0.192244 -0.081764,0.02367 -0.039589,-0.08425 -0.1315978,0.04725 -0.1418629,0.187101 -0.3526182,0.08942 -0.4713646,0.376262 0.2107553,0.04725 0.107944,0.160891 -0.060676,0.165517 -0.1418729,0.04725 0.3207483,0.242108 0.2395417,0.408132 -0.076094,0.1686 0.021088,0.236448 -0.1028014,0.123879 0.044761,0.171167 -0.2184641,0.415841 -0.1711666,0.139306 -0.3104731,0.758174 -0.4184072,0.647157 0.049834,0.176309 0.1737428,0.02934 0.1788854,-0.1686 0.1948104,0.04218 0.08425,-0.144957 0.6738837,-0.328964 0.4158409,-0.355194 0.168083,-0.244675 0.3634106,-0.242098 -0.2050955,-0.50786 -0.034416,-0.347475 0.1367303,0.0185 0.2081791,-0.160891 0.376262,-0.104861 0.033919,-0.123879 0.1896678,-0.06068 0.3711295,-0.294528 0.166024,-0.331541 0.2128047,-0.176309 0.537154,-0.221548 0.129021,-0.197386 0.152666,-0.01025 0.463128,-0.613227 -0.06068,-0.289396 0.139307,-0.08942 0.01591,-0.157798 0.263175,-0.07659 0.131588,0.06575 0.08425,-0.215887 0.168602,-0.03133 -0.07142,-0.384488 0.07918,-0.09972 0.176309,-0.037 0.291972,-0.286819 1.200235,-0.489349 0.48164,-0.350052 0.339249,-0.102801 -0.08684,-0.258043 5.27e-4,-0.002 0.08634,0.257525 0.716039,-0.178885 0.08942,-0.19481 0.463138,-0.410699 0.263176,-0.107954 0.655382,-0.08176 0.547429,-0.223597 0.129021,-0.186594 0.576215,-0.307897 0.602953,-0.473931 0.226163,-0.268318 0.276544,-0.744815 0.531504,-0.581875 0.679016,-0.555138 0.157808,-0.944778 0.471354,-0.902613 1.013134,-0.166034 0.773601,-0.257526 0.847627,-0.163457 0.942202,0.342343 0.254949,0.302237 0.139814,0.06326 0.499634,-0.05501 0.381912,0.07868 0.08684,-0.06834 -0.102811,-0.02109 -0.008,-0.08375 0.247241,-0.126455 0.03133,-0.350042 0.152665,-0.22103 -0.233882,-0.516076 0.06834,-0.168093 -0.08684,-0.102802 0.037,-0.297611 0.07092,-0.05501 -0.04725,-0.131588 0.460562,-0.9237 -0.0555,-0.334625 0.04983,-0.30533 0.629162,-1.070706 0.19481,-0.871261 0.2344,-1.7816017 L 27.953083,8.5293394 27.824062,8.3689652 27.334713,7.789667 27.203126,7.4133953 27.387144,7.2345202 26.736914,6.4264826 26.676735,6.2840925 26.705481,6.0183502 26.308142,5.5238591 26.060901,4.939418 l -0.01591,-0.5921499 0.173743,-0.2631855 0.184018,-0.1207954 0.300188,0.199953 0.157798,-0.029244 -0.134154,-0.4523361 0.05242,-0.4528533 -0.239532,-0.5052835 -0.339259,-0.018501 -0.187102,-0.1233617 -0.186584,0.1865943 -0.04218,-0.076094 -0.105378,0.070922 -0.115652,-0.063262 -0.107944,0.079177 -0.03133,-0.089423 -0.118736,0.1444391 -0.120796,-0.1315877 -0.01084,-0.1578079 -0.233872,-0.037002 -0.197387,-0.1578079 0.02367,0.1475228 -0.06575,0.060676 -0.05033,-0.1634577 -0.07092,0.1788754 -0.150099,-0.1105103 -0.129021,0.1711666 -0.003,0.1423802 0.07659,0.039091 -0.05809,0.150089 0.13673,0.021087 0.02676,0.208179 -0.224104,-0.086837 -0.003,0.1706493 -0.129021,-0.1552316 -0.102284,0.074005 -0.03183,-0.092009 -0.131587,0.018004 0.07659,-0.1629404 -0.09768,-0.023674 -0.04983,0.094595 -0.06068,-0.1233617 -0.310473,-0.1737428 -0.04983,0.089423 -0.373686,-0.065849 0.05242,0.1022941 -0.19482,-0.00796 -0.144439,0.2287393 -0.02924,-0.089423 -0.113087,0.08425 -0.037,-0.086837 -0.147006,0.095093 -0.04217,-0.065749 -0.04476,0.060179 -0.126445,-0.05242 0.08176,0.1238789 -0.160882,0.1444392 -0.07351,0.021087 -0.02875,-0.1238789 -0.173733,0.2369654 -0.01333,-0.07868 -0.147015,-0.00796 -0.08176,0.1973867 0.102294,0.05809 -0.147015,0.065749 0.105377,0.1315878 -0.126455,0.02626 -0.223597,-0.1763091 -0.339766,-0.6209363 -0.08425,0.094595 -0.355184,-0.092009 -0.03959,-0.1341541 -0.197387,0.00298 -0.181451,-0.3397668 -0.166024,0.00597 -0.07092,-0.150099 -0.19482,-0.060676 -0.302237,-0.7551009 -0.326408,-0.029244 -0.107944,-0.3053305 -0.09509,0.023674 -0.06267,-0.1156528 -0.129011,-0.010245 -0.074,-0.1475228 -0.186584,0.00796 -0.05809,-0.097181 -0.223597,0.05809 z m 83.861543,0.13930647 0.0503,0.3130395 -0.47135,0.7792515 -0.8394,0.7946791 -0.48679,0.2395317 -0.679013,0.1130865 -0.600386,0.00796 -1.331315,-0.1002351 -0.415841,-0.1392967 -0.04218,-0.2056127 -0.123879,-0.065849 -0.150099,0.1526653 -0.626079,0.050431 -0.307896,0.168083 -0.410699,0.076591 -0.181451,-0.05809 -0.09768,0.092009 -0.326398,0.03183 -0.62866,-0.1290215 -1.468553,-0.3736858 -0.544863,-0.065749 -1.442343,0.118229 -1.494773,-0.021087 -0.22103,-0.1048604 -0.705237,0.023674 -1.32104,-0.1290214 -0.684676,-0.2081791 -1.121077,-0.068335 -0.08117,-0.089423 -0.234389,-0.034416 -0.486782,-0.02616 -0.436919,0.1238789 -0.479063,0.3104632 -0.815757,0.3423431 -0.16859,0.1763091 -0.505294,0.070921 -0.970978,0.2976217 -0.08176,0.1521481 -0.426126,0.1526653 0.04476,0.092506 -0.121302,0.07868 -0.958137,0.3947733 -1.128796,0.1105102 -0.202519,0.1578079 -0.342343,0.00796 -0.218455,0.023674 -0.06575,0.1341541 -0.378828,0.118229 -1.018793,0.044761 -0.07351,0.2215377 -0.789537,0.1470155 0.008,0.1105102 -0.168083,0.1922441 -0.221031,0.1053776 -0.11617,-0.023674 -0.328974,0.2683181 -0.09459,0.2446747 -0.239542,-0.028747 -0.07918,-0.123879 -0.215371,0.097679 -0.02676,0.1444392 -0.160384,-0.021088 -0.126446,0.2056028 -0.578791,0.012831 -0.397339,0.3870641 -0.166024,0.044761 -0.07609,0.1002251 0.005,0.2076714 -0.557714,0.4050485 0.07092,0.055504 -0.05292,0.1341538 -0.481639,0.4317857 -0.902623,0.2395314 -0.479064,0.4497695 -1.473705,0.5895834 -0.486773,0.420984 -0.716038,0.3736847 -0.09201,0.184536 -1.494773,0.900056 -0.576215,0.115653 -0.631729,0.242098 -0.502717,0.357761 -0.265752,0.05292 -0.123879,0.147522 h -0.226191 l -0.06834,0.328975 0.04725,0.07609 0.144957,0.003 0.115653,0.171176 -0.178886,0.465695 0.03392,0.468788 -0.24724,0.294539 -0.01591,0.155231 -0.420984,0.37113 -0.04218,0.223596 -0.365469,0.250324 -0.981781,0.323325 -1.163232,0.139814 -0.436919,0.16294 -1.002848,0.06068 -1.092301,-0.037 -1.310238,-0.157798 -1.124161,-0.594726 -0.313039,-0.02109 -1.595008,-0.281686 -1.15244,-0.407615 -0.405556,0.281169 -0.09459,0.431776 -0.242108,0.199953 0.239542,-0.199953 0.09459,-0.431776 0.408132,-0.281169 -0.426633,-0.245192 -0.405049,-0.08942 -0.331551,-0.102294 -0.113086,0.249816 -0.297612,0.05809 -0.07918,0.155242 0.08425,0.157798 -0.06833,0.07092 -0.152666,-0.06575 -0.152665,0.037 -0.06068,0.184018 -0.120795,0.04725 -1.500423,0.100235 -1.112861,-0.05242 0.02367,0.684159 -0.300188,0.376262 -0.323832,0.660525 -0.008,0.003 0.323832,-0.660516 0.29968,-0.376262 -0.02367,-0.684169 -0.689302,-0.03959 -0.344909,0.05501 -0.707803,-0.278603 -0.489348,0.05242 -0.579309,-0.09718 -0.697528,-0.265752 -0.254949,0.147015 -0.931917,-0.202529 -1.207953,-0.397339 -0.484206,-0.003 -0.841967,-0.242098 -0.176309,-0.06834 -0.434352,0.04983 0.02109,0.07868 -0.215888,0.07142 -0.339249,-0.05292 -0.500141,0.3372 -0.08176,0.244675 -0.270884,0.07609 -0.01592,0.118737 -0.134154,0.08127 0.03651,0.184535 -0.06834,0.131588 0.199953,0.120795 0.05033,0.250325 -0.302755,0.205095 -0.01084,0.284253 -0.123362,0.144957 -0.03442,0.355194 -0.491915,0.389621 0.168601,0.61837 0.128504,-0.06834 0.08942,0.260609 0.07142,-0.07142 0.673367,0.418417 0.379346,0.563364 0.907755,0.444627 0.115663,-0.07868 0.181959,0.08942 0.08425,0.139306 -0.03959,0.074 0.29967,0.01024 0.04476,0.150099 -0.134155,0.134164 -0.16295,-0.08684 0.155232,0.229256 -0.263176,0.141873 0.037,0.0946 0.05501,0.03959 0.03183,-0.08425 0.336684,-0.07351 0.131587,0.05242 0.118229,-0.0946 0.271402,0.189678 0.06834,-0.260609 h 0.007 l -0.06784,0.258033 0.04476,0.205095 -0.102801,-0.003 -0.0365,0.07609 0.150089,0.07918 0.03392,0.281686 0.381912,0.118219 0.423559,-0.223596 0.249817,0.008 0.439485,-0.171166 0.131588,0.01333 0.14239,0.173732 0.394763,-0.06833 0.213322,0.07609 0.473413,-0.236448 0.276544,0.118229 0.583924,-0.02626 0.37678,0.06834 0.139296,0.04983 0.294538,0.363411 0.139814,0.03392 0.328975,-0.129021 0.181441,0.04476 0.100235,-0.07868 0.168093,0.02626 0.223597,-0.11052 0.431776,-0.04218 h 0.189678 l 0.05501,0.07659 -0.04983,0.115652 0.07918,0.08176 -0.03442,0.315606 -0.215888,0.07918 h -0.307896 l -0.226164,-0.192244 -0.202529,-0.01591 -0.179392,0.09718 -0.242108,-0.10486 -0.207662,0.09972 -1.358043,0.250334 -0.226173,0.123362 -0.884629,0.137237 -0.08684,-0.003 -0.394773,-0.502707 -0.06326,-0.260092 -0.457479,0.42355 -0.07918,0.186584 -0.111028,0.04168 5.27e-4,-0.005 -0.321265,0.08684 -0.323325,-0.184018 -0.171166,0.005 -0.384489,0.39734 -0.752524,0.213321 -1.186876,0.04983 -0.231823,-0.08684 -0.06833,0.1686 -0.313039,0.08127 -0.613228,-0.06575 -0.660515,0.06068 -0.276544,0.142381 -0.162951,0.289395 -0.213311,0.181452 -0.486783,0.284253 -0.771025,0.239532 -0.247768,0.184018 -0.144439,0.224114 0.005,0.257525 0.802905,0.176309 0.486772,0.463646 0.790571,0.207155 0.05401,0.03243 0.547429,-0.3187 0.600376,0.0185 0.723747,0.56029 0.04725,0.203036 -0.528927,0.118219 -0.118737,-0.04983 -0.171176,0.165517 -0.09459,0.424067 -0.150099,0.186584 -0.855326,0.113087 -0.565422,-0.008 -0.505801,-0.363411 -0.528927,-0.02367 -0.399906,-0.147016 -0.244675,0.003 -0.671317,0.247251 -0.355185,0.03133 0.02367,0.105377 -0.16294,0.07918 -0.845051,-0.166034 -0.810614,-0.344392 -0.999774,0.05759 -0.850183,-0.120795 -0.355195,0.04983 -0.636871,-0.04735 -1.200235,0.150099 -1.34725,0.291962 -0.353136,0.113086 -0.22103,0.160374 -0.09972,-0.0365 -0.302754,-0.160891 -0.139307,-0.207662 -0.123879,0.01025 -0.04218,-0.13672 0.258033,-0.260609 0.273461,-0.09718 0.05809,-0.115653 0.215888,-0.02367 0.502707,-0.342343 0.165517,-0.444627 -0.176309,-0.123879 -1.710661,-0.408132 -0.152666,-0.005 -0.125938,0.0946 -0.187101,-0.131597 -0.34491,0.181969 -0.107944,-0.08176 0.02676,-0.205096 -0.263176,0.01542 -0.376779,0.03183 -0.370612,0.291972 0.03651,0.415841 0.313039,0.244674 0.353136,0.07918 0.05759,0.123879 -0.08942,0.176309 0.402482,0.304813 0.139814,0.355702 0.281676,-0.234389 0.568517,0.263175 0.06018,0.115653 -0.615803,0.392207 -0.447194,0.457986 -0.258043,0.105378 -0.315606,-0.02626 -0.181959,-0.118737 -0.38398,0.118737 -0.497575,-0.289903 -0.294528,0.04218 -0.42921,0.271411 -0.267293,0.0756 -9.95e-4,-0.002 -0.50785,-0.08425 -0.589584,-0.207672 -1.226454,-0.700094 -0.189678,-0.223596 -0.04983,-0.179393 0.100235,-0.123372 0.212804,-0.04725 -0.147015,-0.23439 -0.04476,-0.244674 -0.09509,-0.074 -0.223597,-0.339249 -0.850193,0.479063 -0.02626,0.08425 -0.194821,0.008 -0.357761,-0.249807 -0.705236,0.125928 -0.581865,0.723748 -0.868187,0.129021 -0.234389,-0.07609 -0.297622,-0.265752 -0.289395,0.147006 -0.320749,-0.05242 -0.38963,0.05809 -0.463129,-0.139814 -0.244674,0.04218 -0.702671,0.542296 0.018,0.19481 -0.568506,0.489349 -0.39169,0.507859 -0.192244,-0.04218 -0.173733,0.07142 -0.442062,0.773602 -0.9504275,0.420983 -0.2683181,-0.08425 -0.1444392,0.05292 0.049834,0.09201 -0.060676,0.286819 0.068335,0.181452 -0.1264453,0.155231 0.123879,0.405566 -0.1475327,0.192244 -0.2708844,0.005 -0.063262,0.06834 -0.097181,0.547428 -0.3947733,0.605012 -0.5474286,0.229246 -0.7710353,-0.107944 -0.1948104,0.205096 -0.3315407,1.168882 0.1156528,0.191737 -0.1526653,0.408132 -0.013329,0.284253 -0.097181,0.09972 0.3027544,0.302754 -0.095093,0.321266 0.021088,0.350052 -0.1840279,0.205095 0.2657518,1.063505 -0.023674,0.371129 -0.2529004,0.700094 -0.3526182,0.289396 -0.1788754,0.810604 -0.094595,0.107954 0.039589,0.113076 -0.150099,0.157808 -0.060676,0.315616 0.076591,0.107934 0.4867823,0.239541 0.2184542,0.02616 0.150099,-0.07092 0.5864901,-0.03392 0.2158979,-0.181969 0.086837,0.006 0.1002351,0.152666 0.1552316,-0.236966 0.3577607,-0.100235 0.4132746,0.07659 0.2498069,-0.09509 0.2210304,0.100235 0.095093,-0.226173 1.0655735,-0.408132 0.8686944,-0.126445 0.949911,-0.281687 -5.27e-4,-0.007 0.935001,-0.174767 0.31304,0.05292 0.176309,-0.105378 0.50786,0.06018 0.1686,0.129021 0.152655,-0.123361 0.157808,0.02109 0.147523,-0.289903 0.507859,0.04785 0.284254,0.420983 -0.115663,0.165507 -0.129012,0.795196 -0.495008,0.139297 -0.284253,-0.03133 -0.02875,0.512993 -0.300188,0.123878 -0.150089,-0.08942 -0.152665,0.06018 0.074,0.571082 -0.357761,0.347476 -0.768966,0.436918 -0.136732,0.328974 -0.150099,0.01591 -0.141872,0.126456 0.09459,0.323314 -0.178886,-0.08684 0.02626,-0.131588 -0.210238,0.04218 -0.074,-0.07092 0.04725,-0.100235 0.22668,0.0185 0.02626,-0.184018 -0.06833,-0.08425 -0.265752,0.13673 -0.003,0.189668 -0.197387,0.31304 0.331541,0.126455 0.691879,0.04725 0.181959,0.100235 0.168093,0.341826 -0.03133,0.384488 0.302764,0.344909 0.06575,0.202519 0.694444,-0.963269 0.516076,-0.02875 0.465705,-0.4215 0.84505,-0.139297 0.831692,-0.947344 0.394763,-0.06834 0.552572,-0.22103 0.836834,0.24725 0.778734,-0.270894 0.944778,-0.155749 0.413275,-0.325891 0.242098,-0.07659 0.800329,0.492432 0.234399,0.373696 0.191727,0.115653 1.674165,-0.273968 0.278604,0.14238 -0.281687,-0.139814 -1.671082,0.271402 -0.191727,-0.113077 -0.234399,-0.373696 -0.800329,-0.489865 -0.242098,0.074 -0.413275,0.328974 0.203037,1.229021 0.239531,0.344392 0.199953,0.03442 -0.199953,-0.03133 -0.239531,-0.344909 -0.203037,-1.231588 -0.949911,0.160374 -0.778744,0.270885 -0.837341,-0.247241 -0.552571,0.221021 -0.394774,0.06834 -0.831681,0.947334 -0.844543,0.139814 -0.465695,0.420984 -0.516086,0.02875 -0.694951,0.96328 0.460562,0.09509 0.307897,0.249817 0.418924,0.576215 0.123372,0.323832 -0.05501,0.147523 -0.90313,0.460562 -0.005,0.228739 0.09768,0.01084 -0.121313,0.413275 0.04476,0.465704 0.144956,0.02875 0.07868,0.178876 0.307897,0.037 0.07142,0.176309 0.120795,0.05501 0.584441,-0.304814 0.360337,0.01542 0.350042,0.295045 0.276545,0.09201 0.07868,-0.01591 -0.07609,-0.150089 0.166024,-0.08117 v -0.11052 l 0.186594,-0.03959 0.100225,0.113086 0.04735,0.244674 -0.22103,0.258043 0.228739,0.08684 0.04983,0.265742 -0.05242,0.06834 -0.139297,-0.037 -0.107943,0.189677 -0.134155,-0.02109 0.03909,-0.221031 -0.61837,0.328975 -0.09459,0.197386 0.239531,0.123879 -0.100235,0.239532 -0.270884,0.03133 -0.08176,-0.131598 0.0185,-0.305321 -0.323831,0.258033 -0.226163,-0.102801 0.04725,0.19481 0.452854,0.634305 -0.105378,0.123879 -0.244674,-0.14238 -0.131588,0.447711 -0.181969,-0.006 -0.233872,-0.25496 -0.215888,0.14444 -0.08176,-0.265742 -0.178876,0.134154 -0.578791,0.176309 -0.213322,-0.03133 -0.131587,0.213322 0.02875,0.378828 0.04218,0.181452 0.223607,0.22103 -0.197387,0.05809 -0.02109,0.270895 0.176309,0.1686 0.171166,-0.07918 0.037,0.07142 -0.166024,0.09459 0.03959,0.173733 0.326398,0.01542 0.468271,0.500141 0.100235,-0.03959 0.08942,0.07659 -0.005,0.118219 -0.178875,0.137247 0.202519,0.191727 0.378838,0.11617 -0.06068,0.239532 0.06893,0.186594 0.263176,0.247241 0.149582,0.30533 0.323831,0.373696 0.17631,-0.155232 0.47393,-0.186594 0.355185,-0.04476 0.16295,0.05242 0.197377,-0.07609 0.365987,0.249817 0.231823,-0.218464 0.276027,-0.03133 0.121312,0.352618 -0.295045,-0.006 -0.252383,0.442578 -0.357761,0.168084 -0.139814,-0.03392 -0.165517,-0.199953 -0.387054,0.005 -0.944778,0.410698 -1.10566,0.181452 -0.368036,0.210238 -0.392197,-0.160374 -0.334117,-0.652806 0.05759,-0.09973 -0.04725,-0.11051 h -0.331551 l -0.210746,0.210238 -0.005,0.197376 -0.09718,0.102812 0.06834,0.420983 0.236956,0.610651 -0.118737,0.100235 -0.194811,0.01283 -0.326408,-0.407615 -0.005,-0.447711 -0.152656,-0.129021 -0.150099,-0.486782 -0.06575,-0.07092 -0.118219,0.07609 -0.176309,-0.125938 0.171167,-0.113594 0.05501,-0.24724 -0.02367,-0.102294 -0.134154,-0.01591 -0.03133,-0.136731 0.344392,-0.04218 0.131587,0.134154 0.105378,-0.06575 -0.16295,-0.878969 -0.118737,0.02616 -0.484206,-0.415841 -0.08684,-0.576215 -0.0946,0.008 -0.347476,-0.523795 0.07092,-0.07092 -0.06833,-0.08942 -0.08942,0.03959 -0.4605624,-0.373696 -0.3212556,0.018 -0.2760369,-0.09201 -0.2025193,0.166024 -0.4107082,0.118219 -0.081764,0.258043 0.076591,0.965846 0.2287393,0.528927 -0.00298,0.1686 0.3289744,0.368553 -0.2343891,0.415841 0.021087,0.215381 0.076591,0.0185 0.1444392,-0.160384 0.076591,-0.247241 0.1711665,-0.02367 0.6553825,0.415333 0.2313056,0.266259 -0.1449464,0.315616 -0.1418729,0.06575 -0.2318229,-0.360327 -0.1973866,-0.0185 0.010842,0.09972 0.107944,0.04218 -0.034416,0.11051 0.1372476,0.02934 0.02059,0.294529 0.1028014,0.13673 -0.1233616,0.05809 -0.2266804,0.336683 -0.1891605,0.02924 -0.3397767,0.31304 -0.063262,0.01034 0.065749,-0.131587 -0.1973867,-0.273461 0.00298,0.521218 -0.1367303,0.08942 -0.2816768,-0.152665 -0.018501,-0.208169 -0.065749,0.139814 -0.226173,-0.11617 -0.021088,-0.218464 0.089423,-0.07351 -0.2395317,-0.03959 -0.1948104,-0.16295 0.018501,0.336683 0.1973866,0.336683 -0.242108,-0.03909 0.010743,0.310463 -0.1028014,0.129021 -0.2343892,0.07351 -0.07868,-0.123879 -0.11617,-0.003 -0.036505,0.331551 0.1105202,0.09509 0.226163,-0.08684 0.3053306,0.07868 0.2158879,0.321265 0.3053306,0.197377 0.3207483,-0.02109 0.224114,-0.258033 -0.068335,-0.160374 0.1315878,-0.03442 0.1130865,0.229257 -0.1290215,0.08684 -0.00497,0.184018 0.4338349,0.323842 -0.086837,-0.300198 0.2451915,0.06575 0.1917268,0.197387 -0.044761,0.155232 0.3397668,-0.04983 -0.015915,0.171177 0.1002351,0.06326 0.1999534,-0.06326 -0.04217,0.231306 0.210228,0.510933 0.310991,0.16295 0.07351,-0.126445 -0.03959,-0.236458 0.07659,0.01035 0.157808,0.242108 -0.02367,0.210745 0.118219,0.08942 0.129022,0.008 0.107944,-0.107943 -0.09459,-0.39734 0.194293,0.0185 0.09509,-0.84505 0.305321,-0.139307 0.715522,0.01084 0.334625,-0.173742 0.350052,0.307896 -0.06893,0.06834 -0.113076,-0.02626 -0.07351,0.297104 0.207662,0.144957 0.07142,-0.09768 0.120795,0.01333 0.234399,0.186594 -0.04476,0.184535 0.181442,0.171167 -0.037,0.09201 0.189668,0.307897 -0.06575,0.352628 0.223597,0.610651 0.07092,0.02109 0.126456,-0.284253 0.2529,-0.187102 0.468271,-0.155231 0.357761,0.02109 0.365977,0.284253 0.328974,0.06833 0.234399,0.223597 0.02875,0.203037 0.323842,0.05242 0.35775,0.376272 0.436919,0.07659 0.434352,-0.107944 0.326398,0.141873 0.144449,0.118736 0.205603,0.442061 0.02109,0.210238 -0.1686,0.160892 0.02626,0.105368 0.08425,0.02109 -0.03133,0.113077 0.005,0.006 -0.06525,0.391172 -0.19481,0.09972 -0.07918,0.258043 0.123879,0.208179 0.129022,0.01542 0.09972,0.205613 -0.20253,0.884111 -0.184017,0.265752 -0.213312,0.166034 -1.26295,0.428692 -0.726832,-0.120795 -0.16294,0.07351 -0.131588,0.342343 0.171167,0.06326 -0.02109,0.09718 0.115653,-0.037 1.045003,0.260609 0.712956,0.305331 0.326398,0.289396 -0.08176,0.176309 -0.199963,0.003 -0.06018,0.18916 -0.187101,0.100235 -0.03133,0.118219 0.04476,0.07918 0.215371,-0.08425 0.08176,0.792112 0.213311,0.04218 0.07092,0.157808 -0.08942,0.710886 0.11051,0.217947 -0.202519,0.074 -0.05809,0.439485 -0.126445,0.162941 0.59215,0.250334 0.123879,-0.0185 0.176309,-0.229256 0.126455,-0.02616 0.418407,0.181959 0.07918,-0.06575 -0.147532,-0.173743 0.08942,-0.231822 0.157807,0.115652 0.121303,-0.0185 0.242108,-0.47598 0.407615,-0.147523 v 0.005 l 0.189678,0.215888 0.01333,0.25289 -0.210755,0.06326 -0.323832,0.278593 0.06585,0.452853 0.2529,0.244675 0.341816,0.03442 0.360845,-0.352628 -0.07918,-0.200461 0.04725,-0.03392 0.258043,0.328975 -0.118229,0.405048 -0.113594,0.06575 -0.07092,0.224105 -0.171166,0.197386 0.03442,0.07609 0.210756,-0.07351 0.008,-0.137247 0.176309,-0.01283 0.0555,-0.134164 0.123362,-0.03183 0.131597,0.07659 -0.05242,0.08127 0.08117,0.14238 -0.113077,0.04476 0.05809,0.09201 -0.08425,0.09768 -0.141873,0.03909 0.252393,0.139814 0.05809,-0.04218 -0.074,-0.129021 0.123879,-0.01592 0.265742,-0.494491 0.263185,0.07868 0.160882,-0.215887 0.07351,0.02676 -0.02367,0.13673 0.144439,-0.05809 -0.05759,0.323832 -0.355184,0.549995 0.212804,0.197387 0.03183,0.100235 -0.08176,0.141873 -0.160374,0.06068 -0.03183,-0.06068 0.171177,-0.223607 -0.197387,-0.163458 -0.120795,0.221548 -0.289903,0.04168 0.150089,0.102802 -0.06326,0.223597 0.09768,0.03442 -0.100235,0.04983 0.03183,0.123879 0.155242,-0.005 -0.008,0.212805 0.263176,0.02109 -0.09972,0.107944 h -0.371119 l -0.06575,0.123879 -0.45542,0.231306 0.005,0.08942 -0.202519,0.194811 -0.160374,-0.04725 0.03959,-0.147523 -0.168601,-0.08634 -0.150089,-0.360844 -0.323841,-0.03959 -0.05759,0.152665 h -0.07659 l -0.129022,-0.184018 0.144957,-0.160374 -0.134164,0.03909 v -0.120796 l -0.139814,-0.06575 -0.218454,0.341826 -0.05242,-0.02109 0.02626,-0.24724 -0.205095,-0.118229 0.04218,0.205095 -0.168601,0.08942 0.07659,0.242108 -0.074,0.05033 -0.420984,-0.326408 -0.22102,0.149582 0.0185,0.234389 0.371119,-0.105367 0.04725,0.11051 -0.02109,0.074 -0.408132,0.171166 -0.0365,0.17631 -0.11617,-0.02934 -0.018,0.22103 -0.137248,0.11617 0.04735,0.247241 0.208179,0.107954 0.09972,0.405049 -0.0365,0.358268 0.08942,0.170659 0.326408,-0.04983 0.11051,0.155231 -0.03183,-0.218454 0.34491,-0.218464 -0.01592,-0.362893 0.560798,-0.178886 -0.05809,0.394774 0.131587,-0.110511 0.08942,-0.313556 0.139814,-0.01283 -0.06326,0.07092 0.105367,0.105377 0.115653,-0.250334 0.139307,0.04218 0.163458,0.310473 0.33154,0.3449 0.31304,0.0185 0.09201,-0.107944 0.321265,0.07918 0.184018,0.168093 0.107944,-0.123371 -0.144439,-0.0555 0.134164,-0.07868 0.218454,-0.01084 0.162941,0.115652 0.30533,0.06068 0.129022,-0.247242 0.160374,0.03133 0.22103,-0.115652 0.200471,0.09459 0.176309,-0.07609 0.260092,0.07609 0.158315,-0.04218 0.003,0.131588 0.239532,-0.0365 0.07351,-0.181959 0.126446,0.04476 -0.02924,0.08176 0.074,-0.0185 0.207661,-0.197387 0.742249,-0.218454 0.157808,0.07142 0.239532,-0.09251 0.199953,0.189678 0.229256,-0.06326 0.107944,-0.150099 0.494482,0.137247 0.731973,-0.08942 0.09972,0.22874 0.178876,-0.06068 -0.01283,-0.09201 -0.176309,-0.07918 0.03392,-0.07351 0.726314,0.06575 0.292479,-0.131587 0.500141,0.008 0.373696,-0.139306 0.53407,-0.03442 0.06326,0.295046 -0.918558,0.355194 0.123879,0.118737 -0.08684,0.08375 -0.371119,-0.131588 v 0.131588 l -0.163458,0.04784 0.176309,0.06018 -0.152665,0.07659 0.03183,0.273461 -0.150099,0.131588 -0.160374,-0.141873 -0.1686,0.06575 0.129021,0.09718 -0.107944,0.04217 0.118219,0.20818 -0.0946,0.210238 -0.03133,-0.265752 -0.126455,-0.037 -0.08942,-0.07092 -0.157807,-0.04725 -0.129022,0.05242 -0.187101,-0.113086 -0.552572,0.06068 0.01592,0.06068 0.263175,0.03392 -0.260609,0.105378 -0.265742,-0.04983 0.003,0.08942 0.162941,0.03133 0.06326,0.100235 -0.307907,0.06575 0.384488,0.120796 -0.105367,0.1686 0.176309,0.0185 -0.02109,0.129022 -0.102801,0.008 -0.003,0.09768 -0.08176,-0.01333 -0.08127,0.113087 -0.129022,-0.07609 -0.215888,0.150089 0.252384,0.144439 -0.205096,0.100235 0.255467,0.08425 0.320758,-0.09251 0.08176,0.176319 -0.08942,0.113594 0.037,0.141873 -0.152665,0.102801 -0.260609,0.07351 -0.163458,-0.05501 -0.939118,0.018 -0.173733,-0.16294 -0.555665,0.06575 -0.371119,-0.11051 -0.818323,0.376262 -0.452854,-0.01333 -0.139296,-0.02875 -0.120796,-0.176309 -0.405565,-0.131587 -0.008,0.147522 -0.171166,0.05501 0.04725,0.189677 -0.22874,0.242108 -0.284253,-0.06326 -0.850193,0.255477 -0.178875,-0.06834 -0.150099,0.05242 v -0.107954 l -0.100235,-0.05759 -0.194811,0.236448 -0.178875,-0.05759 -0.165517,0.228739 0.09201,0.113086 -0.037,0.152666 -0.168083,0.134154 -0.468789,-0.08117 0.121313,0.260599 -0.11052,0.06834 0.420983,0.06833 v 0.165517 l 0.09972,0.04725 0.629163,-0.02059 0.105377,0.168083 0.42355,-0.318172 0.171176,0.09718 0.244675,-0.157798 0.08684,0.09459 0.123879,-0.131588 0.11051,0.07918 0.247251,-0.06326 0.118736,0.129022 0.223597,-0.02367 0.102294,0.113087 0.134671,-0.02616 0.152149,0.08684 0.02109,-0.5135 0.166034,-0.03392 0.0555,-0.126455 -0.09768,-0.176309 0.447203,-0.497565 0.731964,0.08942 0.102802,-0.118219 0.107436,0.0185 0.203037,0.08425 0.03909,0.152666 0.113604,-0.04218 0.115653,0.08684 0.13673,-0.04218 0.01084,-0.11617 0.115653,-0.06018 0.06833,0.05242 v 0.173743 l 0.107944,-0.0185 -0.03133,-0.189677 0.16294,0.02417 0.210755,0.168083 0.226163,-0.22874 0.14444,0.102294 0.09509,-0.08117 0.205096,-0.003 0.189667,-0.14238 0.120796,0.02875 0.224114,-0.128504 0.120795,0.139296 0.100235,-0.04725 0.02367,-0.144956 0.157798,-0.03651 -0.04983,-0.152665 0.07609,-0.08684 0.526361,-0.02109 -0.07092,0.294539 -0.08684,0.02367 -0.04983,0.136731 -0.142381,-0.06585 -0.144439,0.234399 0.01025,0.09459 0.397339,0.129022 0.06326,0.129021 -0.131587,-0.04725 -0.0185,0.150089 -0.152655,0.147523 -0.113086,-0.01333 -0.03959,-0.113076 0.113076,-0.155242 -0.463128,0.09201 -0.273461,0.205096 -0.118736,-0.0185 -0.118229,0.0185 -0.115653,0.187111 -0.208179,0.05242 -0.129021,0.131588 -0.008,0.09768 0.297622,0.08684 0.254949,-0.113604 0.09768,0.05809 0.16294,-0.08425 -0.04218,-0.152665 0.0555,-0.04983 0.131588,0.105378 -0.02676,0.105367 0.215888,0.008 -0.191727,0.321265 0.18915,0.04218 0.0185,-0.100235 0.102801,-0.01592 0.150099,0.226691 -0.360844,0.534059 -0.131588,-0.06068 -0.218464,0.07659 -0.484206,-0.113594 -0.215888,0.05809 -0.07868,0.100235 0.236448,0.184018 -0.141863,0.113086 0.157798,0.14238 0.04218,0.17631 0.307897,-0.360835 0.139296,0.09768 -0.018,0.102294 0.263176,-0.149582 0.263176,-0.286829 0.08684,-0.008 -0.0185,0.09768 0.09201,0.05242 0.173743,-0.09718 0.428692,-0.642531 -0.005,-0.141873 0.20252,-0.239532 -0.07868,-0.102801 0.102801,-0.118229 0.168083,0.03133 0.486782,-0.118229 0.02676,-0.184536 0.257526,-0.205095 0.0555,-0.155232 0.279111,-0.07918 0.08684,0.224114 0.194293,-0.129022 -0.128504,-0.273978 -0.245192,-0.008 -0.01283,-0.242098 -0.202519,-0.08684 0.05759,-0.236965 -0.215897,-0.162941 0.100235,-0.379345 0.244674,-0.239532 0.09768,-0.02626 0.389113,0.373696 -0.334117,0.14238 -0.176309,-0.02616 0.09718,0.278603 0.421501,0.003 -0.105378,-0.149582 0.105378,-0.126445 0.460562,0.118229 0.299671,0.250324 0.203036,0.02109 0.252384,-0.434352 0.008,-0.197377 -0.268318,-0.04476 -0.157808,0.07351 -0.08684,-0.20253 0.16294,-0.09768 0.08684,-0.160374 0.0555,0.178875 0.136731,-0.02875 0.208179,-0.150089 0.09718,-0.186594 0.07092,0.018 0.131588,0.121303 0.01084,0.202529 -0.144947,0.04476 -0.04735,0.202519 -0.005,0.144957 0.105378,0.147522 0.420983,-0.074 0.03959,0.06883 -0.137247,0.157808 0.105377,0.176309 0.197387,-0.113087 0.037,0.120796 0.150099,0.07659 0.06575,-0.134671 -0.131598,-0.149582 0.22103,-0.11051 -0.003,-0.210755 0.09972,-0.02367 0.100235,0.189668 0.194811,0.018 0.479073,0.510933 -0.184535,0.184028 0.05809,0.115653 0.160374,0.006 -0.281677,0.278593 0.01591,0.0555 0.100225,-0.06068 0.06575,0.09201 -0.01333,0.147532 -0.08176,0.04476 0.02616,0.150089 0.163458,0.04476 0.165517,-0.307897 0.184535,0.06068 0.01283,0.141873 0.08684,0.02367 -0.04725,0.189667 0.589584,-0.173732 0.668741,0.234389 0.207662,0.242108 -0.120796,0.252383 0.260102,-0.113087 0.139814,0.279111 0.126445,-0.04476 0.09718,0.05759 -0.289396,0.147523 v 0.189678 l 0.239532,0.320748 0.168083,-0.168083 0.14239,0.005 -0.08425,-0.192244 0.226173,-0.284254 0.203036,-0.04476 -0.08176,-0.129021 -0.223597,0.0185 -0.01084,0.189678 -0.107944,-0.02626 -0.02626,-0.247748 -0.152665,-0.09718 0.197376,-0.115663 -0.11051,-0.08176 0.08176,-0.05809 -0.0185,-0.210228 0.139297,0.03392 0.02367,-0.105367 0.208179,0.02676 0.07868,-0.134672 -0.08127,-0.05242 0.150099,-0.04725 0.02875,-0.178885 0.162941,-0.113087 -0.08117,-0.184535 0.08684,-0.05501 0.134164,0.02109 0.118229,0.249817 0.199953,0.06326 0.273968,0.289396 0.257526,-0.07918 0.384488,0.457995 0.452853,0.07659 0.276037,0.399906 -0.06834,0.291962 -0.297104,0.07142 0.04735,-0.155231 0.09459,-0.03959 -0.115653,-0.137238 -0.144956,-0.018 -0.0185,0.423549 -0.383971,-0.06833 -0.107944,0.679016 0.107944,0.01283 0.04476,0.08942 -0.215898,0.203036 -0.09459,-0.037 -0.05292,0.06068 0.1686,0.08176 0.268318,-0.008 v -0.228739 l 0.328975,-0.03183 0.074,-0.102284 0.05759,0.239532 0.178885,0.01542 -0.07092,-0.08942 0.107944,-0.01035 0.150089,0.178876 -0.08942,0.484216 0.08684,0.09201 -0.126455,0.02616 -0.131588,0.292479 0.123879,0.165517 0.125938,0.008 -0.06326,0.0946 0.147522,0.362893 -0.113086,0.03442 0.09201,0.134154 -0.160374,0.02367 -0.163458,0.155232 -0.018,0.192244 0.221031,-0.05242 0.06575,0.107944 -0.105378,0.09972 0.334117,-0.01283 -0.09459,0.242108 0.197377,0.03133 0.07868,0.207662 0.113594,-0.04725 0.157807,0.155232 0.04983,-0.04218 0.105378,0.09768 0.218464,0.01035 0.392187,0.481629 0.06635,-0.01283 -0.0375,0.04476 0.573649,0.557714 0.424067,0.255466 0.141873,-0.08942 0.06575,-0.265752 -0.04725,-0.08942 0.226163,-0.02367 0.129022,0.08634 0.171166,-0.01283 -0.139814,0.205096 0.08992,0.263175 0.107427,-0.09718 0.160892,0.01024 0.35776,0.223597 0.321256,0.06575 0.778744,0.003 0.07918,0.08684 0.323831,-0.074 0.257526,0.03959 -0.226163,0.0185 -0.294538,0.228739 0.273461,-0.0185 0.118736,-0.128515 0.276027,0.02367 0.05292,0.291972 -0.113594,-0.06575 -0.09972,0.129021 0.218454,0.184018 0.04218,0.129022 0.252393,-0.07092 0.03183,0.207672 0.486782,-0.357761 0.152666,0.08684 0.06833,-0.05809 0.08942,0.09251 0.176309,-0.08425 0.113087,0.03133 -0.242108,0.181452 0.197376,0.100235 0.571083,-0.413274 -0.328975,0.06068 0.544863,-0.37112 -0.105368,-0.05809 0.268318,-0.02109 -0.08127,0.09509 0.307896,-0.07659 0.139297,-0.09459 -0.09972,-0.134154 0.189161,-0.04218 0.03183,-0.13673 0.228739,-0.107944 0.163458,0.178875 0.439485,0.05242 0.05501,-0.09972 0.645097,-0.40299 0.04984,-0.07609 -0.142381,-0.02367 v -0.06068 l 0.163458,-0.131587 0.315606,0.344909 0.316123,0.04217 0.268328,-0.426633 0.02875,0.166024 0.105378,-0.08684 0.003,-0.381922 0.39733,-0.173225 1.021359,-0.008 0.473414,0.229257 0.452853,0.371119 0.215898,-0.07142 0.263176,0.05292 -0.02626,0.184028 -0.121313,0.123879 0.08942,0.08425 -0.05242,0.355185 0.06068,0.04983 0.307897,-0.291972 -0.008,-0.102802 0.123879,-0.144956 0.44977,-0.362893 0.006,-0.258043 -0.037,-0.05242 -0.155241,0.04983 -0.04466,-0.205095 0.686726,-0.286819 -0.0185,-0.131598 -0.171166,-0.01333 -0.06018,-0.323832 -0.221031,-0.160374 -0.100235,-0.242098 0.129022,-0.365987 -0.08684,-0.102801 0.318689,-0.09459 0.08117,-0.207662 -0.09972,-0.147523 0.102285,-0.03442 0.292479,-0.541779 -0.02676,-0.155242 0.158315,-0.100225 0.02109,-0.160384 0.376262,-0.679016 -0.03959,-0.09509 -0.123889,0.03959 -0.104861,-0.08117 -0.121302,-0.268835 -0.01591,-0.362894 0.1686,-0.365987 0.04476,-0.360327 -0.115653,-0.321265 0.134164,-0.979215 0.613228,-0.797245 0.420983,-0.313039 0.302754,-0.06068 0.34491,0.376272 0.328974,0.139297 0.299671,-0.07609 0.09201,0.07918 2.266325,-0.14238 1.344675,0.31869 2.173799,0.334117 0.358268,0.155231 0.263186,0.223597 0.06833,0.123879 -0.05809,0.115663 0.818323,0.22102 0.979214,0.444637 0.923691,0.581865 0.307897,0.289396 0.823983,0.1686 0.365469,0.305331 0.003,0.13672 0.137248,-0.03442 0.210228,0.147522 0.516086,0.100235 0.697527,0.334117 0.470838,0.07609 0.289395,0.234399 0.01591,0.152666 0.115653,-0.01343 0.0555,-0.157797 0.184018,0.02616 0.608085,0.497575 0.426126,0.500141 0.152665,0.30533 0.373696,0.355185 0.568506,1.115944 0.636871,0.652807 0.037,0.310463 0.231823,0.410708 0.541779,0.310463 0.318689,0.48164 0.868187,0.526361 0.307897,0.323315 0.534577,0.22668 0.267811,-0.10691 1.12981,0.754066 1.155007,0.194811 0.334116,0.171176 0.118737,-0.22103 0.326408,-0.184535 0.320748,-0.349535 0.816264,-0.405566 1.112851,0.129022 0.321266,0.176309 0.003,0.152665 0.494998,-0.815747 0.249817,-0.100235 0.636872,0.115653 0.968422,-0.01542 0.605518,-0.307907 0.06068,0.160385 0.291962,0.01592 0.162951,0.173742 0.181959,-0.181959 0.550005,-0.223606 0.86561,0.255476 -0.113076,0.04983 0.03442,0.121313 h 0.239532 l 0.334117,-0.661032 0.184018,-0.136731 0.418417,-0.113086 0.14238,0.09768 -0.008,0.370602 0.171177,0.01343 -0.03392,0.155232 0.120795,0.176309 0.1686,-0.107944 0.008,-0.152665 -0.131588,-0.09972 0.107944,-0.173743 0.579299,-0.51351 0.505283,-0.270884 0.273461,-0.44977 -0.07609,-0.129021 0.278603,-0.02676 -0.06834,-0.149582 0.365987,-0.389631 0.392197,0.07868 0.355184,0.323832 0.150099,0.326408 -0.01592,0.365977 0.160374,0.03651 0.150099,-0.463128 0.365977,-0.383981 0.199953,-0.09509 0.189678,0.09768 0.310473,-0.342343 0.06326,-1.226455 0.320748,-0.197377 0.205603,-0.32589 0.428702,-0.229257 0.176309,-0.39734 0.452843,-0.41584 0.470848,-0.67645 0.550009,-0.350052 0.413275,-0.42355 0.776685,-0.392197 0.47598,-0.597303 0.76075,-0.413264 0.06575,-0.247251 0.136731,-0.147522 0.634305,-0.23439 0.358268,-0.315615 0.03133,0.06326 1.155523,-0.074 0.531493,0.150099 0.60811,0.368553 0.23131,0.244674 0.18967,0.415841 0.003,-0.003 0.59164,-0.008 0.49192,0.170659 3.30052,1.955852 0.28426,0.184018 0.0581,0.162941 0.73658,-0.452336 v -0.166034 l 0.2709,-0.08425 0.73453,0.08942 0.48421,0.129022 0.13159,0.11617 0.11051,-0.037 0.12646,-0.202529 0.36033,-0.147523 0.18195,-0.1686 0.0813,-0.623503 0.12131,-0.205095 0.84197,-0.587017 -0.28425,-0.197377 v 0.09718 l 0.11051,0.04218 -0.0524,0.0555 -0.4765,0.05759 0.0422,-0.22874 -0.0657,-0.037 -0.008,-0.134154 -0.20561,0.04725 -0.0602,0.100235 0.12593,0.008 v 0.08176 l -0.13673,0.302754 -0.0607,-0.187101 0.0581,-0.123879 -0.23953,0.111027 0.22103,-0.457996 0.43177,-0.276544 0.31818,-0.003 0.15524,0.118219 0.45285,-0.152665 0.38705,0.05033 0.5973,-0.402999 0.0792,-0.197377 0.49192,-0.381404 0.26575,-0.484206 0.36341,-0.223607 0.56492,-0.570565 5.1e-4,0.002 0.55823,0.236448 0.62094,0.418935 0.43949,0.491915 0.51608,0.831681 0.0313,0.279121 -0.17374,0.294528 0.12902,0.244674 -0.0946,0.297622 0.20252,0.442061 0.005,0.399906 -0.15267,0.184535 -0.0787,0.454902 -0.46056,0.074 -0.63944,0.470848 -0.55823,0.276534 -0.67902,0.844543 -0.75253,0.376262 -0.13416,0.363411 -0.17374,0.01592 -0.19996,0.260609 -0.074,0.346968 -0.38911,0.144947 -0.13159,0.276544 -0.28169,0.233882 0.0102,0.31098 0.11307,0.260102 1.15038,1.653089 0.90006,1.920899 -0.037,0.123878 -0.58393,0.639438 -0.0714,0.389631 0.21075,0.08425 0.44977,-0.229256 0.31612,0.003 0.12901,0.229246 -0.1871,0.528938 1.24497,0.260599 0.23439,0.273461 0.0761,0.318699 0.10795,0.126445 0.12131,-0.118736 0.12594,-0.599869 -0.0602,-0.258033 0.0576,-0.500141 0.22926,-0.376272 0.59986,-0.205086 0.25804,0.165507 0.15781,-0.0365 0.0946,-0.118736 -0.15009,-0.37112 0.0792,-0.294538 0.17117,0.04218 0.32126,0.252383 0.42099,-0.268318 0.0211,-0.852759 0.1393,-0.129022 -0.1578,-0.19482 0.0422,-0.06575 0.0812,0.07142 -0.0102,-0.09201 -0.17117,-0.184536 0.0894,-0.05809 0.0714,-0.339249 -0.20817,-0.270885 0.0766,-0.163457 0.26574,-0.184028 -0.17939,-0.331541 0.18967,-0.08942 0.29505,0.218464 0.44977,0.125928 0.21332,-0.284253 -0.0185,-0.16294 0.16602,0.09718 0.0313,-0.233882 0.34233,-0.01333 0.17888,0.229256 0.18145,-0.134671 0.56337,0.266259 0.0657,-0.06575 -0.0133,-0.245192 0.43177,0.129022 0.34441,-0.231306 v -0.129021 l -0.17066,-0.229257 0.16551,-0.286819 -0.42098,-0.04983 0.0894,-0.392197 -0.0735,-0.136731 -0.27655,-0.07351 -0.21845,0.05501 -0.0761,0.178885 -0.0714,-0.29968 0.20304,-0.134672 -0.20304,-0.184018 0.0607,-0.300188 -0.19739,0.02676 -0.10794,-0.297622 -0.12594,-0.09459 v -0.229257 l -0.11359,-0.09718 0.0529,-0.231823 -0.17631,-0.28682 0.0576,-0.291971 0.28991,-0.3449 0.16294,-0.723748 -0.12901,-0.38963 -0.0396,-0.576215 0.40815,-0.326408 0.15779,-0.355185 0.0211,-0.123879 -0.18403,-0.386547 0.32075,-0.344909 0.0268,-0.234389 0.30481,-0.17631 -0.0972,-0.418417 1.01313,0.202529 0.37935,0.255467 1.04964,0.252901 0.36341,-0.08684 0.7078,0.299671 0.0951,0.09509 0.018,0.184018 0.17374,0.07351 0.28168,-0.01542 0.11566,0.223597 -0.0868,0.226163 -0.21537,0.09201 -0.0683,0.14239 0.0658,0.265742 0.36803,0.141873 0.0633,0.189678 0.26061,0.102801 0.15267,-0.14238 0.11309,-0.362903 0.21588,0.08117 0.14496,-0.139296 0.21845,0.302754 0.58907,-0.273968 0.67645,0.147523 0.0448,-0.102801 1.53435,0.371119 0.23183,0.147523 0.3264,-0.003 0.16294,-0.281677 0.0396,-0.236966 0.73711,-0.381404 0.59216,-0.284253 0.47855,-0.363411 0.24519,0.06883 0.20766,-0.179393 0.90776,0.107944 0.17374,-0.191727 1.10567,-0.381922 0.44205,-0.368553 0.56594,-0.16294 0.24981,0.07868 0.11309,-0.09459 0.0237,-0.268318 0.0951,-0.107944 0.31818,-0.05242 0.11308,-0.147522 0.91085,-0.334117 0.0683,-0.163458 0.50272,0.03959 0.32383,-0.207662 0.83426,0.291962 0.71551,-0.003 1.79497,0.78696 0.45284,0.518135 0.90519,0.823973 0.67903,0.505283 1.54772,0.08684 1.5472,-0.11052 0.45028,0.06575 1.5945,0.486772 1.5215,-0.289395 1.56571,-0.144947 1.01313,-0.284253 0.60295,-0.04725 0.76332,-0.336693 1.15809,-0.08425 0.50786,-0.323842 1.36833,-0.53972 0.42663,-0.09459 0.35518,-0.389631 1.26553,-0.289396 0.55822,-0.444627 1.37655,-0.747391 0.56285,-0.67645 1.3452,-0.213312 0.56285,-0.415851 0.52379,-0.173733 0.6528,-0.394773 0.68417,-0.170649 0.0946,-0.163468 0.3187,0.102811 0.17888,-0.074 0.24467,0.242626 0.10281,-0.04784 0.0498,-0.147015 0.6528,-0.137238 2.24217,0.492432 0.52635,0.005 0.37113,0.178876 0.10538,0.247758 0.0946,0.01542 0.21075,-0.16294 0.33926,-0.06585 2.55827,0.005 0.5788,-0.100235 0.97149,-0.39734 0.56029,0.008 1.07893,-0.192244 1.42692,-0.399906 0.32589,-0.006 0.55823,-0.302247 0.31817,-0.02367 1.6531,-1.432068 0.0657,-0.22102 0.19482,-0.210238 0.16037,0.08942 -0.2421,0.334107 0.0185,0.100236 0.12594,0.0365 0.21332,-0.07609 0.2714,0.160374 0.23902,-0.150089 0.0818,0.271402 0.19995,0.05501 0.0868,0.166034 0.26574,0.173733 -0.0211,0.318182 -0.20767,0.357761 0.10023,0.387054 0.29969,0.402482 -0.0658,0.11051 0.0292,0.189678 0.15215,-0.113086 0.27654,-0.003 0.84197,-0.376262 0.17682,0.08684 0.21538,-0.037 0.0607,-0.08684 0.495,-0.08942 0.16552,0.08176 0.0951,-0.06575 0.21845,-0.529445 0.21024,-0.226173 -0.0498,-0.192234 0.39733,-0.336693 -0.0313,-0.207662 0.15216,-0.171166 0.16346,0.008 0.0236,-0.1686 0.15525,-0.08127 0.0262,-0.107943 -0.11309,-0.197387 0.42663,-0.03959 0.0761,-0.300188 0.63687,-0.620936 0.36855,0.152665 0.0972,0.355185 0.20561,-0.05501 0.18916,0.139307 0.94476,0.350042 0.18454,-0.176309 0.38963,-0.100235 0.14187,-0.289396 0.27655,-0.003 0.14957,-0.04218 0.0868,-0.129022 0.37934,-0.01025 0.11565,-0.09201 1.30562,0.386547 0.24467,0.221021 0.11823,0.003 0.0262,0.213321 0.36085,0.139297 0.13673,-0.0365 0.11051,-0.310473 0.23696,0.01542 0.16552,0.02676 0.0766,0.223596 0.20766,0.0946 0.2714,0.270884 0.49706,0.163458 0.1686,0.118229 -0.008,0.11617 0.38141,0.141873 0.62916,-0.213322 0.18916,0.273968 0.12131,0.06833 0.1686,-0.07351 0.10485,0.233872 0.23955,0.04218 0.0581,-0.08425 0.47907,-0.134164 0.12901,0.05809 0.47341,-0.05809 0.30533,0.115663 0.32898,-0.02059 0.27654,0.473413 0.0787,-0.07868 0.0185,-0.218464 0.10538,-0.09509 0.72632,-0.03133 0.30018,-0.339767 0.0128,-0.257526 0.13724,-0.04784 -0.0133,-0.278604 0.40249,-0.08176 0.27654,-0.418417 0.0683,0.171166 0.1686,-0.14238 0.43948,0.184535 0.48164,-0.129021 0.28682,0.291962 0.35263,0.05242 0.30019,0.234399 0.1763,-0.02626 0.2236,0.37113 0.2051,0.126445 0.0448,0.465705 -0.0602,0.147522 0.18402,0.17066 -0.0972,0.302754 -0.27655,0.123879 -0.26832,-0.03183 -0.43691,0.726314 -0.003,0.131587 0.13673,0.273978 0.32898,0.265752 0.0761,0.202519 -0.10794,0.11617 0.29504,0.48164 0.27346,0.284253 0.28426,0.02616 0.18195,0.105377 0.11309,-0.445144 0.3922,-0.320748 -0.19738,-0.271402 0.3814,-0.192244 0.36598,0.05033 0.34183,-0.242108 0.24776,-0.037 0.43383,-0.326408 0.16603,-0.218455 0.2421,-0.118229 0.0211,-0.173733 0.32641,-0.373695 0.21024,-0.05809 0.41326,-0.331541 0.13417,0.02875 0.27397,0.276544 0.18659,-0.113087 0.0868,0.107944 0.18197,-0.04725 0.42099,0.102285 0.0422,-0.04725 0.13931,0.06575 -0.005,0.123879 0.15267,0.155231 -0.0185,-0.35776 -0.18403,-0.203037 -0.0792,-0.589584 0.19481,-0.307897 0.20253,-0.04476 0.2051,-0.233882 0.0242,-0.134154 -0.15832,-0.350052 -0.35776,-0.30533 -0.33668,-0.14238 -0.13981,-0.215888 -0.0391,-0.276027 -0.69752,-0.137248 0.005,-0.202519 -0.16037,-0.13673 -0.0792,-0.239542 -0.17631,-0.118219 -0.34748,-0.03442 -0.0735,-0.09972 0.0818,-0.152666 -0.0293,-0.673873 0.19995,-0.06834 0.12388,-0.684169 -0.18144,-0.276544 0.12079,-0.0555 0.0498,-0.191726 -0.5022,-0.560798 0.0868,-0.326398 0.55772,-0.47599 -0.092,-0.371119 -0.33411,-0.479074 -0.3922,-0.218454 -0.28991,-0.05292 -0.50528,0.160891 -0.0787,0.09201 -0.25034,-0.07659 -0.0498,-0.07609 0.0581,-0.436919 -0.2529,0.123879 -0.13159,-0.236965 -0.19739,-0.07351 -0.0211,-0.163458 0.11617,-0.197376 -0.16089,-0.215888 -0.28682,0.008 -0.47908,-0.20047 -0.27345,0.152666 -0.0868,-0.09972 -0.21846,0.07092 -0.47135,-0.281677 0.0977,-0.184028 0.0339,-0.350042 0.0977,-0.02367 0.0843,-0.187102 -0.10794,-0.294538 0.30533,-0.410708 0.0365,-0.302754 0.36342,-0.357761 0.0344,-0.408132 0.21282,-0.236448 -0.0263,-0.171167 0.41841,-0.06068 -0.18401,-0.405049 0.30789,-0.0555 0.13416,-0.129022 0.19996,-1.007991 -0.12389,-0.244674 0.037,-0.186594 0.69496,-0.555655 0.34183,-0.181452 0.006,-0.384488 0.14701,-0.02875 0.0133,-0.09718 -0.21589,-0.199953 -0.31303,-0.037 -0.15781,-0.363421 -0.73968,0.376262 -0.21845,-0.231305 -0.42921,0.03959 -0.19482,-0.295045 0.0951,-0.03959 0.0812,-0.184018 -0.0237,-0.291972 -0.14958,-0.213311 0.11308,-0.42356 0.12902,-0.11051 -0.17373,-0.615794 0.0313,-0.445144 0.13159,-0.223607 -0.0894,-0.291962 0.0633,-0.242098 -0.18968,-0.263186 -0.37369,-0.178875 0.12131,-0.181969 -0.003,-0.226163 -0.1028,-0.06575 -0.0133,-0.281687 -0.10486,-0.02875 -0.006,-0.139814 0.20303,-0.247251 -0.0211,-0.160374 0.15265,-0.289396 -0.0422,-0.273968 0.14443,-0.08425 0.0396,-0.184018 0.11051,-0.05809 -0.20508,-0.252383 0.055,-0.181452 -0.24725,-0.210745 -0.21588,0.11051 -0.12387,-0.06575 -0.0524,-0.07351 0.0422,-0.176309 -0.37369,-0.289903 0.0842,-0.371129 -0.2236,-0.07868 -0.0894,-0.163458 0.0972,-0.215381 -0.19225,-0.100225 0.0766,-0.300198 -0.18711,-0.186584 0.10023,-0.2529 0.33926,-0.155232 -0.15523,-0.302764 0.0842,-0.205096 -0.13416,-0.207662 0.10538,-0.218454 0.23645,-0.08942 -0.16294,-0.289912 0.0447,-0.244675 -0.51043,-0.610651 -0.51864,-0.155232 -0.23439,-0.24725 -0.0313,-0.181452 0.0792,-0.297612 -0.17632,-0.22103 0.19996,-0.439485 -0.25033,-0.107944 -0.0498,-0.507859 -0.20767,-0.350052 -0.23182,-0.147513 -0.005,-0.176309 0.20767,-0.126455 -0.0422,-0.176309 0.20561,-0.157808 0.31818,0.005 0.49243,0.192244 0.47856,-0.06833 0.11617,-0.147523 0.36546,-0.04983 0.18711,0.270885 0.19482,-0.008 0.25803,0.344909 0.26318,-0.213321 0.20509,0.01084 0.97099,-0.376779 0.1028,-0.334117 -0.21075,-0.457986 0.28169,-0.444628 -0.19482,-0.878979 0.21847,-0.150099 0.38963,-0.473921 0.1028,-0.507859 -0.0607,-0.357751 -0.11051,-0.152666 0.0683,-0.141872 1.48192,-1.287112 0.23901,0.528928 0.3187,0.410708 0.52122,0.06018 0.92369,0.900564 0.0946,0.286819 0.12388,-0.350042 -0.20818,-0.09251 0.0766,-0.189161 -0.0818,-0.03442 0.0448,-0.129021 -0.25804,-0.252384 -0.15266,-0.02109 0.037,-0.14238 -0.22103,-0.04476 -0.037,-0.373696 -0.092,-0.04218 -0.12901,0.06893 -0.15267,-0.408142 -0.25496,-0.02875 0.0868,-0.284254 -0.0977,-0.05809 -0.18145,0.0555 -0.45028,-0.297621 -0.17066,-0.01592 0.0972,-0.118229 -0.0473,-0.074 -0.24467,0.0555 -0.0607,-0.134164 0.0761,-0.131588 -0.0339,-0.213321 -0.46056,-0.399906 0.003,-0.260609 -0.38705,-0.355185 -0.36291,-0.510426 -0.54743,-0.307897 -0.14239,-0.179393 -0.42355,-0.04476 -0.24725,-0.242108 -0.88976,-0.397339 -0.91856,0.14239 -0.0128,0.107944 -0.80805,-0.05809 -1.09229,0.165517 -0.21845,-0.115653 -0.36599,0.13673 -0.59215,-0.02367 -0.53921,-0.276027 -0.33977,-0.06326 -0.0262,-0.173743 -0.35776,-0.139296 -0.24211,-0.203037 -0.587,0.03959 -0.21847,-0.213322 -0.18145,-0.02109 -0.005,-0.118229 -0.1871,-0.07351 -0.0761,-0.208179 -0.006,-0.01542 -0.0128,-0.25289 0.11309,-0.121313 0.58958,-0.123361 -0.0448,-0.173743 -0.63173,-0.713463 0.32898,-0.02367 -0.0607,-0.07609 0.0683,-0.115653 -0.0761,-0.113594 0.0498,-0.139307 -0.18659,-0.16294 -0.25033,-0.03183 -0.10795,-0.152666 0.0344,-0.171166 -0.47906,-0.718088 0.0946,-0.381922 0.18967,-0.24724 0.0262,-0.463139 -0.13159,-0.210745 -0.6528,-0.434352 -0.003,-0.125928 0.11874,-0.07659 -0.006,-0.178886 0.65538,-0.387054 0.18196,0.03183 0.0448,-0.04725 -0.11874,-0.215888 0.0792,-0.03442 0.0128,0.07918 0.15266,0.03133 -0.0709,-0.42356 0.27398,-0.07918 -0.003,-0.104861 0.3922,-0.513499 0.18197,-0.37113 -0.0318,-0.307897 0.28682,-0.192244 0.0237,-0.444627 -0.0972,-0.22103 0.0946,-0.252383 -0.4287,-1.239824 -0.30533,-0.381405 -0.0318,-0.547428 0.0658,-0.247758 -0.10795,-0.139297 0.0344,-0.302764 -0.82654,-0.70266 -0.2421,-0.141873 -0.1316,0.008 -0.47084,-0.310473 -0.38192,-0.02875 -0.18145,-0.208179 0.0237,-0.536646 -0.13415,-0.09768 -0.12645,-0.331541 0.13416,-0.315616 0.16602,-0.04218 -0.28938,-0.753041 -0.75562,-0.381405 -0.31561,-0.005 -1.27117,0.386547 0.0313,-0.149582 -0.36289,-0.639954 -0.0894,-0.315606 -0.18967,-0.03133 -0.24981,0.120795 -0.28426,-0.11051 0.90776,-0.510426 0.005,-0.223597 -0.15523,-0.05292 -0.14187,0.05809 -0.52379,-0.205096 -0.44719,-0.563373 -0.40814,-0.126446 -0.14751,-0.160374 -0.11823,0.107944 -0.14238,-0.07659 -0.17375,-0.442061 -0.17887,-0.09718 0.008,-0.179393 -0.23439,-0.120795 0.003,-0.249817 -0.26317,-0.102802 -0.1866,-0.215897 -0.29248,-0.09201 V 9.679935 l -0.21845,-0.04466 -0.14187,0.09251 -0.10024,0.35776 -0.0818,0.01024 -0.513,-0.355194 0.037,-0.176309 -0.0766,-0.1444386 0.19737,-0.3001877 0.0422,-0.2318229 0.10537,-0.073508 0.0658,-0.3526182 -0.48164,-0.055504 -0.1763,0.1583151 -0.40814,-0.2266803 -0.43948,-0.1290212 -1.05786,0.244674 -0.26831,0.2899129 0.0339,0.3053303 -0.16037,0.2575257 0.0818,0.2528909 -0.43435,0.252393 -0.0683,0.173732 -0.14496,0.100235 0.12131,0.410708 -0.0448,0.113077 -0.0766,-0.03959 -0.23953,-0.08942 -0.22616,0.144439 -0.23132,-0.04735 -0.52636,-0.407614 -0.40041,0.01024 -0.17118,-0.08425 -0.19995,0.06575 -0.12336,-0.162941 -0.36856,-0.210755 -0.64767,-0.07609 -0.19739,0.105378 -0.13415,-0.242108 -0.16552,-0.100235 -0.36855,0.123879 -0.6816,-0.0555 -0.44206,0.229257 -0.51093,-0.144957 -0.14958,-0.2554665 -0.27911,-0.00796 -0.29505,0.2158885 -0.29197,0.270884 -0.19995,0.402999 -0.66052,0.410191 -0.18966,-0.202529 -0.14754,-0.02616 -0.0627,-0.178886 -0.14239,0.01025 -0.33411,-0.168601 -0.34748,-0.02367 0.092,-0.218464 -0.0761,-0.09972 -0.26832,0.13673 -0.58186,-0.0185 -0.13931,-0.199963 -0.50271,-0.2683186 -0.29762,0.00497 -0.2971,0.5371526 -0.50014,0.305331 -0.81062,1.163232 -0.62402,0.120796 -0.38397,0.27911 -0.50272,0.213322 -0.25289,0.310463 -0.65486,0.42355 -0.26884,0.08684 -0.30225,0.357761 -0.78182,0.615794 -0.66308,0.295045 -0.29763,0.04725 -0.3629,0.202529 -0.37934,-0.113086 -0.25239,0.03183 -0.7921,0.310473 -0.97922,1.094857 -0.73967,0.252394 -0.42869,0.273967 -0.28425,0.03133 -0.4395,0.270895 h -0.19481 l -0.24725,-0.215381 -0.80289,0.223607 -0.45286,0.008 -0.33925,0.223597 -0.36855,0.468788 -0.9422,0.70267 -0.53973,0.199953 -0.64972,0.02367 -0.44772,-0.152665 -0.44977,-0.494999 -0.32639,0.01333 -0.16604,-0.100235 -0.66822,0.137248 -0.65795,0.005 -0.2051,-0.07092 -0.26625,-0.37112 -0.53922,-0.258043 -0.35518,0.03442 -0.28683,-0.150099 -0.53972,0.22103 -0.26575,-0.0185 -0.16859,-0.160374 -0.65795,-0.229257 -0.89492,-0.965846 -0.58906,-0.147522 -0.16604,-0.08942 -0.76331,0.523785 -0.75253,0.316123 -0.33155,0.003 -0.26317,-0.134164 -0.19996,-0.229257 -0.29762,-0.01024 -0.13673,-0.074 -0.5793,0.418407 -1.008,0.260609 -0.24467,-0.08684 -0.57622,0.006 -0.11822,-0.08176 -0.67131,0.463128 -0.25547,-0.005 -0.24724,0.102294 -0.13416,-0.06276 -1.06351,0.839401 -0.31561,0.05501 -0.29453,-0.149572 -0.11875,-0.179402 -0.24981,-0.04476 -0.60037,0.542286 -0.42099,0.255467 -0.58136,0.04218 -0.0683,-0.05292 -0.47651,0.107943 -0.0868,-0.07092 -0.19481,0.01591 -0.12902,-0.137248 -0.24724,0.213322 -0.12388,0.003 -0.36547,-0.171166 -0.44515,-0.341826 -0.99206,0.08684 -1.01828,-0.347485 -1.05271,-0.234389 -0.71089,-0.09201 -0.44463,0.04217 -0.17374,-0.06575 -0.10538,-0.368553 -0.66565,-0.202529 -0.31869,-0.492432 -0.0473,-0.168083 0.15009,-0.62402 -0.14496,0.05292 -0.17322,-0.08942 -0.60038,0.06018 -0.2236,-0.297105 -0.29453,0.273461 -0.40556,0.663598 -0.10023,0.325891 -0.19996,0.168601 -0.55,0.202519 -0.40763,-0.144439 -0.14494,-0.136731 -0.10795,-0.295045 -0.36855,-0.210238 -0.23953,-0.04785 -0.27861,-0.326398 -1.09486,-0.299671 -0.10024,-0.129021 0.0529,-0.181452 -1.02136,0.005 -0.31818,0.003 -1.00028,-0.310474 -0.46571,-0.302754 -0.11617,-0.252383 0.0108,-0.774119 -0.33668,-0.389631 -1.37398,-0.80752 -1.41047,-0.350052 -0.65795,-0.03959 -0.10794,-0.09201 0.0365,-0.09768 -0.18659,-0.107944 -0.43178,0.363421 -0.0894,0.357751 -0.27911,0.352618 -0.18916,0.413275 -0.1871,0.152665 -0.63945,0.368553 -0.32898,0.07351 -0.70523,-0.118229 -0.13416,-0.20252 -0.36341,-0.242107 -0.0997,-0.171167 0.0313,-0.271402 -0.71604,-0.336683 -0.38654,-0.284253 -0.0792,-0.210755 -1.05014,-1.262951 -0.17374,-0.489348 0.14238,-0.9134152 -0.19996,-1.0028476 -0.49243,-0.7448147 -0.42098,-0.3685532 -0.49192,-0.178885 -0.15266,-0.2945283 -0.12902,-0.039589 -0.5973,0.3551945 -1.74253,0.7211708 -1.28402,0.3870545 -1.15295,0.033919 -0.57879,-0.2025292 -0.33463,-0.2708844 -0.003,0.00298 -0.19481,-0.2210301 -1.5395,-0.4949981 -0.13416,-0.150099 0.0185,-0.1526554 -0.65794,-0.4944911 -0.12131,-0.334117 0.11359,-0.1423801 -0.32639,-0.2102381 -0.47394,-0.5659398 -0.0287,-0.2235968 -0.3922,-0.70832 0.0581,-0.6867352 0.0946,-0.092009 0.14443,-0.5001409 0.29763,-0.1973867 0.6713,0.1449565 0.0104,-0.097679 -0.19995,-0.2868193 -0.21333,-0.00497 -0.38963,0.2338819 -0.59471,-0.02626 -0.38655,-0.2210304 0.0683,-0.258043 -0.39991,-0.4867723 -0.61889,-0.028747 z M 27.961061,8.5237591 27.558579,9.9892373 27.32419,11.771347 27.129369,12.6421 l -0.628645,1.071224 -0.05033,0.30532 0.05292,0.337201 -0.457986,0.9237 0.04725,0.131588 -0.07092,0.05501 -0.037,0.297621 0.08684,0.105378 -0.06834,0.165507 0.236966,0.518652 0.818323,-0.466222 0.516076,-0.05242 0.102294,-0.09201 0.400413,-0.09768 0.460562,0.037 0.115663,-0.09972 h 0.134154 l 0.286829,0.22103 0.942202,0.06833 0.794669,0.233882 0.521219,0.250324 0.818323,0.571083 0.05809,-0.208179 0.205085,-0.265752 0.244685,0.01084 0.14238,0.123372 -0.05809,0.513509 0.271411,0.173733 0.515559,-0.03442 0.334117,-0.150099 0.450277,0.02676 0.236966,-0.126455 0.510426,0.320748 0.25289,0.02109 0.191737,-0.252384 0.553088,-0.07659 0.118219,-0.123361 0.136731,-0.006 0.131588,-0.181441 0.534587,-0.07092 0.02875,-0.321265 0.09201,-0.134154 0.389631,-0.17631 0.150089,-0.258043 -0.02676,-0.144439 0.137247,-0.06834 -0.02676,-0.208179 0.213322,-0.39734 -0.36547,-0.465694 0.381405,-0.271412 0.210745,-0.352618 0.205096,-0.173733 -0.0555,-0.115653 0.09768,-0.202529 -0.037,-0.06834 -0.360327,-0.20818 -0.06575,0.05809 -0.129012,-0.100235 -0.239541,-0.018 -0.0555,0.155232 -0.120796,0.008 -0.78696,-0.157808 -1.800104,-0.681593 -1.081508,-0.552571 -0.02109,-0.08684 -0.171166,0.05759 -0.523785,-0.176309 -0.62403,-0.386547 -0.752524,-0.326398 -2.431832,-1.3133217 -0.436919,-0.3844874 -0.118229,-0.018501 0.003,-0.073508 -0.381404,-0.3526183 -0.05292,-0.1393063 0.05292,-0.052918 -0.107944,-0.060676 z m 78.246379,0.1984112 0.23645,0.5618315 0.11308,0.5607965 0.92369,0.3526177 0.21333,0.205096 0.19738,0.857902 0.003,0.944768 -0.25804,0.006 -0.61579,-0.365977 -0.46314,0.100235 -0.0534,0.131588 -0.005,-0.006 0.0555,-0.134154 0.46056,-0.102294 0.6158,0.368045 0.25804,-0.005 -0.003,-0.947344 -0.19224,-0.847617 -0.21332,-0.202529 -0.92371,-0.3526177 -0.11307,-0.5607972 -0.23697,-0.562846 z m -2.45085,2.5202497 0.23953,0.915474 0.18145,0.178876 0.21075,0.02934 0.16345,0.171167 -0.002,0.009 -0.16191,-0.169625 -0.21075,-0.02875 -0.18145,-0.176309 -0.23953,-0.918558 -0.43948,0.210756 -0.31819,0.252383 -0.23182,0.02616 -0.13416,0.09251 -0.003,0.139307 -0.1393,0.01591 -0.42149,0.276027 -0.14188,-0.01024 -0.037,0.644073 -0.005,-0.0099 0.037,-0.647664 0.14187,0.01084 0.42355,-0.276544 0.13982,-0.01591 0.003,-0.139297 0.13673,-0.08942 0.23182,-0.02875 0.31818,-0.252901 z m 2.9294,1.065056 0.003,0.003 0.0159,0.61836 -0.32125,0.492432 -0.35005,0.04983 -0.17888,0.121313 -0.20253,-0.05809 -0.0268,-0.09201 -1.03421,-0.355185 -0.10229,-0.215888 0.002,-0.008 0.10075,0.212804 1.03421,0.355195 0.0268,0.09251 0.20252,0.05759 0.17888,-0.120796 0.34748,-0.05033 0.32127,-0.494491 z m -4.60306,0.95196 0.005,0.009 0.0365,0.361869 -0.005,-0.004 z m 0.38449,0.711921 0.003,0.003 0.0123,0.238507 -0.002,-0.004 z m 0.14238,0.470847 0.005,0.008 -0.51299,0.670791 -0.036,0.298646 -0.004,-0.004 0.037,-0.30533 z m -51.531665,1.87001 5.27e-4,0.002 -0.157807,0.357761 z m -5.87269,0.172191 -0.227197,0.245192 -0.218464,0.691868 -0.171167,0.06575 0.163458,-0.06326 0.218454,-0.691878 0.228739,-0.247241 z m 63.169615,0.04526 h 5.3e-4 l 0.17734,0.656407 -9.9e-4,-9.95e-4 z m -0.3814,0.155232 0.0195,0.104343 -9.9e-4,9.94e-4 z M 42.9859,17.266253 h 0.003 l -0.247758,0.113087 -0.242108,0.213321 -0.276027,0.657939 -0.550512,0.347486 -0.18916,0.318172 -0.007,5.27e-4 0.188126,-0.316123 0.550005,-0.347476 0.276544,-0.657949 0.242108,-0.212804 z m 80.63297,0.105378 -0.98589,0.04983 0.002,-0.003 z m -14.02609,0.562846 10e-4,5.27e-4 0.037,0.150099 -0.12542,0.291962 -0.004,-0.005 0.12388,-0.295046 z m -57.969265,0.01333 0.07401,0.400423 -5.27e-4,9.95e-4 z m 65.324395,0.398881 -5.3e-4,0.004 -0.37523,0.351594 0.002,-0.004 z m -75.599681,0.57725 -0.241083,0.505791 h -0.007 l 0.240556,-0.505284 z m 76.751091,0.328964 -0.0493,0.06376 h -5.3e-4 z m -102.896782,1.205895 0.244674,0.155241 v 0.003 z m 34.441471,1.18431 -0.133637,0.557713 -0.105378,0.154715 0.102801,-0.152148 z m -27.35672,0.01591 -0.2529,0.176309 -0.06834,-0.08684 -0.323832,0.110511 -0.05501,0.118229 -0.129021,0.04218 -0.100235,-0.168601 -0.171167,0.100235 -0.08684,0.189161 0.09509,0.19481 -0.03959,0.34491 0.473921,0.30533 0.162951,-0.07351 0.218454,0.08684 0.550005,-0.224114 0.06834,-0.04983 -0.01283,-0.144439 0.199953,0.005 0.470847,-0.229256 0.178875,-0.197387 -0.389113,-0.263175 -0.268836,0.02934 -0.107944,-0.181969 -0.02367,0.09509 -0.107944,-0.02367 -0.01283,-0.08425 -0.163457,0.04476 -0.04725,-0.08684 z m 19.753326,1.386829 -0.002,0.008 -0.189668,0.09042 -0.003,-0.006 z m -10.137014,0.07351 0.08684,0.231823 -0.115653,0.394763 0.09459,0.16295 0.192244,-0.11052 0.03133,-0.150089 -0.09973,-0.294538 0.20253,-0.22668 z m 15.825168,0.319206 v 0.002 l -0.144956,0.394773 z m -26.723448,0.08067 -0.215888,0.245191 -0.02367,0.194293 -0.165517,0.200471 0.123372,0.191726 -0.02367,0.166034 0.08176,-0.008 0.08435,-0.147006 0.347476,-0.123879 -0.123879,-0.19482 0.30533,-0.278593 -0.205095,-0.121313 z m 0.89748,0.418417 0.0946,0.381912 -0.125938,0.05501 -0.152665,-0.05759 -0.05292,0.276027 0.555664,0.07401 0.410181,0.165516 -0.02875,-0.286819 -0.08176,0.126445 -0.244674,-0.160374 0.192244,-0.350052 -0.131588,-0.09768 -0.05809,0.06834 -0.09718,-0.03392 -0.05033,-0.150089 z m 24.844188,0.402989 -0.06068,0.236966 0.192245,0.431258 -0.194811,-0.431258 z m -0.426634,2.268375 -0.157807,0.313039 v -0.003 z m -0.156266,0.339767 0.02775,0.497057 -0.402999,0.434352 0.144956,0.518642 -0.02924,0.373696 -0.571082,0.300188 0.568506,-0.300188 0.02934,-0.373696 -0.144957,-0.518642 0.402472,-0.436918 z m -24.711565,0.359302 5.27e-4,9.95e-4 -0.14239,0.497575 -0.218454,0.234389 -0.59216,0.344392 -0.479063,0.613227 -0.254443,0.522761 -5.27e-4,-0.002 0.25496,-0.523785 0.479063,-0.613227 0.59215,-0.344909 0.218464,-0.233882 z m -17.5641091,0.443086 -0.4816397,0.05033 -0.634305,0.355195 -0.6240199,0.02616 -1.2367302,0.799812 -0.0683353,0.397857 0.4184072,0.115652 0.3947732,0.355195 0.2657518,-0.118229 0.3130396,0.04725 0.068335,-0.115653 0.4266332,0.06276 1.0239258,-0.376272 0.2760369,0.0555 0.3870545,-0.123889 0.2076618,-0.213312 -0.012832,-0.212804 -0.1315877,0.147005 -0.081764,-0.018 -0.065749,0.131598 -0.2158879,-0.06893 -0.02626,-0.217947 0.094595,-0.102801 -0.05242,-0.129022 0.086837,-0.500141 L 3.933116,27.964318 3.919787,27.811653 Z m 16.8167181,2.976694 -0.08634,0.48729 -5.17e-4,-5.27e-4 z m 0.571082,1.934268 v 0.003 l -0.180427,0.08893 -9.95e-4,-0.002 z m -0.111037,0.233365 5.27e-4,9.94e-4 -0.07609,0.328458 v -0.002 z m 23.402361,0.04576 0.248275,0.06784 -5.27e-4,5.27e-4 -0.249299,-0.06784 z m -39.5266945,0.378828 -0.1444388,0.07659 -0.4369183,-0.05033 -0.3736859,0.074 -0.00298,0.213321 0.4919248,0.178876 0.5155583,0.339259 L 5.369425,33.972924 5.277416,33.791472 5.340678,33.64395 5.253842,33.436278 5.1433317,33.394098 Z m 35.4571925,1.683426 -0.201495,0.66154 -0.002,9.95e-4 0.201495,-0.66154 z m -0.980757,1.258832 -0.24724,0.452854 -0.005,0.002 z m -2.468327,0.394774 h 0.003 l -0.06883,0.08684 0.02626,0.137248 -0.005,0.003 -0.02676,-0.137238 z m 0.05501,0.179392 v 0.233882 l -0.005,5.27e-4 v -0.231823 z m -0.105367,0.246734 -0.02367,0.192751 -0.005,0.002 0.02367,-0.193786 z m -0.375755,0.304296 0.02875,0.08584 -0.006,0.002 -0.02875,-0.08634 z m -0.07609,0.120278 0.08634,0.154724 -0.244167,0.179393 0.238507,-0.176827 -0.08684,-0.155231 z m -0.20047,0.365987 -0.037,0.486265 0.291972,0.434342 -0.07868,0.27346 0.08375,0.166034 -0.02059,0.376262 -0.242615,0.300189 -0.346969,0.257525 -0.316123,0.505791 -0.376262,0.252393 -0.134154,0.331541 -0.199953,0.205603 -0.439494,0.22103 h -0.008 l 0.439485,-0.22103 0.20047,-0.205603 0.13673,-0.331541 0.376262,-0.252393 0.315606,-0.505791 0.347486,-0.257525 0.242098,-0.300189 0.02109,-0.376262 -0.08435,-0.163457 0.07918,-0.273461 -0.289396,-0.434352 0.0365,-0.486772 z m -25.189098,1.830939 -0.157798,0.123879 0.199953,0.08942 -0.03133,0.144957 0.09972,0.173743 -0.139307,-0.006 -0.02924,0.08176 0.08684,-0.02109 -0.02616,0.192244 0.121302,0.173743 0.25496,0.01591 0.09509,-0.08992 0.378839,-0.02367 -0.09718,-0.08375 0.165508,-0.04774 -0.01025,-0.07868 -0.347477,0.131587 -0.14239,-0.202519 0.006,-0.137247 -0.213322,0.08176 -0.11051,-0.181451 0.01283,-0.137248 0.397329,0.06575 0.100235,-0.191727 -0.210745,0.04983 -0.226173,-0.113086 z m 13.929983,0.700104 0.004,5.27e-4 -0.135188,0.08375 -0.776168,0.689819 -0.007,-0.004 0.775143,-0.686218 z m 8.321999,1.276309 h 0.008 l -0.360378,0.134679 -0.037,0.139296 0.284253,0.470838 0.08176,0.392197 0.09201,0.05809 -0.131587,0.06068 -0.004,-5.27e-4 0.124386,-0.05759 -0.09201,-0.05809 -0.08176,-0.39169 -0.284253,-0.471354 0.037,-0.141873 z m -0.866128,1.100527 0.004,9.94e-4 -0.364445,0.177851 -0.56593,0.468271 -0.93706,0.376272 0.929351,-0.373696 0.562846,-0.468271 z m -3.002905,0.815746 0.007,9.95e-4 -0.209721,0.167566 -0.08942,0.191736 -0.210745,0.06575 -0.22103,0.208179 -0.486773,0.07351 -0.004,-0.003 0.483182,-0.07351 0.223597,-0.208179 0.210745,-0.06326 0.08942,-0.191727 z m -12.11086,3.710201 0.08893,0.34286 -9.95e-4,9.95e-4 -0.08843,-0.343368 z m -0.435376,0.909307 -0.04934,0.270377 0.160374,0.36547 0.236966,0.04526 0.150099,0.115663 0.500141,0.89748 0.06326,1.326173 0.510426,0.360845 0.755091,-0.155242 0.405565,0.06575 0.489349,0.257526 0.291962,0.62402 0.763326,-0.09201 0.11617,0.06018 0.273461,0.558231 0.431776,-0.06834 0.407614,0.399906 h -0.003 l -0.407624,-0.397339 -0.431776,0.06833 -0.273968,-0.558221 -0.118229,-0.06018 -0.763317,0.09201 -0.291972,-0.62402 -0.486772,-0.257526 -0.408132,-0.06575 -0.752534,0.155232 -0.510933,-0.358268 -0.06267,-1.326183 -0.500151,-0.89748 -0.150089,-0.115653 -0.236965,-0.04476 -0.160374,-0.363411 0.04983,-0.276027 z m -4.744411,3.339081 -0.113087,0.01035 -0.08942,0.852759 0.346969,0.09459 -0.03133,0.1686 0.19481,0.02616 0.07351,-0.302755 -0.191738,-0.231315 -0.003,-0.42355 z m 10.732246,1.684451 h 0.003 l 0.247757,0.09459 0.268318,0.784404 0.265752,0.276027 0.322808,0.120795 -0.002,5.27e-4 -0.323832,-0.121312 -0.265751,-0.276027 -0.268319,-0.781828 z m 2.381979,0.205095 0.376262,0.31304 0.465705,-0.192245 -0.468281,0.194811 -0.376262,-0.31304 -0.498082,0.107437 5.27e-4,-0.002 z m 1.4372,0.06326 h 0.002 l 0.521218,0.386548 0.542296,0.09768 0.284253,0.410709 -0.286819,-0.410709 -0.542296,-0.09768 z m -1.96562,0.125938 -0.01333,0.04058 -5.27e-4,-9.95e-4 z m 90.09405,0.423033 -0.43228,0.793137 -0.005,0.005 0.43434,-0.796738 z m -89.950118,0.298646 v 0.003 l -0.04417,0.13313 z m -0.505284,0.06018 0.210746,0.350052 0.17425,-0.04675 -5.28e-4,0.002 -0.176309,0.04735 -0.210228,-0.352111 z m 89.496762,0.948379 -0.30275,1.125702 -0.36034,0.59215 -0.003,0.002 0.35827,-0.589077 0.30276,-1.126219 z m 3.74259,0.343875 -0.31098,1.402764 -0.23903,0.587017 -0.23182,0.392197 -0.39476,0.318172 -0.14496,0.210756 0.0529,0.139296 0.54999,0.08684 0.24982,0.213321 -0.0633,0.263176 -0.46314,0.410708 -0.21023,0.370612 0.0683,0.271402 0.47341,0.602425 0.11359,0.550005 -0.0457,0.356736 0.0427,-0.356736 -0.11309,-0.550005 -0.47341,-0.602425 -0.0683,-0.271402 0.21024,-0.370612 0.46314,-0.410708 0.0633,-0.263176 -0.24981,-0.213321 -0.55001,-0.08425 -0.0529,-0.139296 0.14495,-0.213322 0.39477,-0.318172 0.23131,-0.392197 0.23953,-0.587017 z m -86.315999,0.245699 9.95e-4,0.002 -0.192244,0.22103 z m 81.675929,1.276836 -0.11823,0.075 -0.003,9.95e-4 z m -81.240552,0.248782 0.002,5.27e-4 -0.309438,0.570565 -0.002,-5.27e-4 z m 79.741662,0.257008 -0.30121,0.395798 -0.005,0.002 0.30225,-0.396315 z m -81.758688,0.120279 -0.177851,0.443602 -0.006,0.004 0.179392,-0.446169 z m 3.439316,0.364962 0.480605,0.106909 -0.479063,-0.104343 z m 76.352222,1.096409 -0.0396,0.02467 -0.22103,1.471129 -0.17631,0.552572 0.0581,0.436918 -0.32383,0.544862 h -0.004 l 0.32229,-0.542296 -0.0581,-0.436918 0.17374,-0.552571 0.2236,-1.471129 z m -75.000854,0.406073 -0.299163,0.154724 -5.28e-4,-0.002 z m -14.298535,0.06943 -0.168083,0.414817 -0.01333,0.705236 -0.008,0.008 0.01283,-0.70267 0.171167,-0.420984 z m 84.601739,1.588841 0.002,5.28e-4 -0.84916,0.415333 -0.34491,0.297105 -0.64458,1.129303 -0.21847,0.186584 h -0.003 l 0.21845,-0.186584 0.64716,-1.129303 0.34233,-0.297105 z m 1.77903,0.410709 0.001,5.17e-4 -0.34595,0.08893 -5.2e-4,-5.17e-4 z m -4.77423,1.363185 0.32949,0.150606 -0.32692,-0.14804 -0.39477,0.09201 -0.19738,0.331541 -0.0102,0.589584 0.008,-0.589584 0.19995,-0.331541 z m 13.14969,0.572097 -0.41173,0.248792 -0.56594,0.847617 -0.33925,1.086641 -0.12388,1.152947 0.11566,0.815757 0.40042,1.170941 0.0997,0.797763 -0.32898,2.39482 -0.3629,0.315615 -0.2241,0.379346 -0.0467,0.311498 -5.3e-4,-9.95e-4 0.0473,-0.31304 0.22154,-0.379345 0.36547,-0.315616 0.3264,-2.39482 -0.0997,-0.797762 -0.40042,-1.170942 -0.11565,-0.81318 0.12388,-1.152947 0.33925,-1.086641 0.56594,-0.847627 z m -13.95208,1.380662 -0.26317,0.357761 0.19995,0.381404 -0.003,0.002 -0.19944,-0.383464 z m -72.335134,0.218464 0.129021,0.07868 v 0.006 l -0.129021,-0.07918 -0.244675,0.06326 -0.352618,0.457996 -0.310463,0.186594 -0.258043,0.365977 -0.236448,0.05242 -0.413275,-0.05501 -0.492432,0.04983 -1.034211,-0.147523 -1.315897,0.229257 -0.331541,-0.121313 -0.310473,-0.481629 -0.14238,-0.0946 -0.689302,0.04218 -0.831691,-0.420983 -0.294529,-0.0555 -0.79262,0.126455 -0.289395,0.120796 -0.392197,0.397847 -0.162951,0.497067 v -0.005 l 0.162951,-0.497574 0.392197,-0.39734 0.289395,-0.120795 0.79262,-0.126455 0.294529,0.05501 0.831691,0.421501 0.689302,-0.04218 0.14238,0.09459 0.310473,0.48163 0.331541,0.121312 1.315897,-0.229256 1.034211,0.147533 0.492432,-0.04984 0.413275,0.05501 0.236448,-0.05242 0.258043,-0.365987 0.310463,-0.187102 0.352618,-0.457478 z m 0.121312,0.491915 0.0555,0.05292 0.720654,-0.04218 1.681875,0.139306 0.244674,0.08176 0.826549,0.557714 0.368553,0.394773 0.352619,-0.06326 0.186594,-0.121829 v 9.94e-4 l -0.189161,0.123362 5.27e-4,0.003 -0.350569,0.06267 -0.368553,-0.394764 -0.826539,-0.557713 -0.244674,-0.08176 -1.681885,-0.139307 -0.720654,0.04218 -0.0555,-0.05292 z m 71.471572,0.451311 -0.0133,0.127987 0.22104,0.381405 -0.0365,0.581368 0.5865,0.808037 0.34491,0.07659 -0.0524,0.134164 0.42098,0.357761 0.30276,0.497574 0.0211,0.323832 -0.003,0.002 -0.0211,-0.323324 -0.30276,-0.497575 -0.42099,-0.357751 0.0524,-0.134164 -0.34491,-0.07659 -0.5865,-0.807521 0.0365,-0.581874 -0.22105,-0.381405 -0.780279,0.192761 0.002,-9.94e-4 0.778729,-0.191737 0.0133,-0.129022 z m -42.595401,0.564399 h 9.95e-4 l 0.13673,0.100742 z m 9.977146,0.384488 0.210238,0.07351 0.139814,0.229257 0.139297,0.536636 0.56594,0.555665 v 0.005 l -0.56594,-0.555664 -0.139297,-0.539203 -0.139814,-0.229256 z m 0,0 -0.242108,0.04983 -0.913405,0.544862 -0.737107,0.105378 -0.976131,-0.334117 -0.718605,-0.003 h 0.718605 l 0.976131,0.336683 0.737107,-0.107944 0.913405,-0.544862 z m -8.883313,0.08485 0.133646,0.152665 -9.94e-4,-5.27e-4 z m 39.316977,0.01024 -0.01024,0.005 -0.631729,0.09459 -0.202529,-0.008 -0.04367,-0.0571 0.009,-0.01134 0.04735,0.06575 0.203037,0.006 z m -64.8479,0.347476 0.553606,0.08127 9.94e-4,0.002 -0.554113,-0.08127 z m 17.636581,0.239024 0.705237,0.07659 0.371129,0.223606 0.439485,0.434342 1.050146,0.473414 h -0.006 l -1.050145,-0.473414 -0.439485,-0.434342 -0.37112,-0.223606 -0.705246,-0.074 -0.800329,0.173225 0.003,-0.002 z m -16.688212,1.144204 0.170659,0.056 5.27e-4,9.95e-4 -0.171166,-0.0565 z m 34.539657,0.01641 0.165517,0.213321 0.420983,1.155006 0.61837,0.716029 0.502707,0.850193 0.28683,0.265752 1.679308,0.639438 0.31098,0.378838 -0.31098,-0.376272 -1.679308,-0.639438 -0.28683,-0.265751 -0.502715,-0.85019 -0.61837,-0.716029 -0.420983,-1.155006 -0.165517,-0.213312 z m -20.392763,0.333082 -9.95e-4,9.95e-4 -0.851217,0.301222 9.95e-4,-9.94e-4 z m -13.634409,0.110003 0.345417,0.0571 5.27e-4,0.002 -0.342851,-0.0571 z m 66.973377,0.332058 -0.13878,0.219489 -0.005,0.405565 0.0894,0.131588 0.22669,0.03651 0.26009,0.166024 0.16603,0.268328 0.0766,0.342334 0.44463,0.003 0.6343,0.315605 0.15781,0.150089 0.15009,0.208179 -0.0263,0.552572 0.2313,0.815756 0.003,0.892338 0.17631,0.889255 -0.0602,0.215898 -0.003,0.002 0.0602,-0.214853 -0.17631,-0.889255 -0.003,-0.892348 -0.23182,-0.815747 0.0268,-0.552571 -0.15008,-0.208179 -0.15781,-0.149582 -0.63431,-0.316123 -0.44513,-0.003 -0.0761,-0.342333 -0.16602,-0.268328 -0.26061,-0.165507 -0.22617,-0.037 -0.0894,-0.131588 0.005,-0.405566 0.13981,-0.22103 z m -64.406873,0.74585 9.94e-4,0.004 -0.556172,0.15729 -0.516076,0.003 -0.407614,-0.06326 -0.004,-0.002 0.406083,0.06267 0.515559,-0.003 z m 53.878673,1.535376 -0.003,0.002 -1.513285,0.117711 0.005,-0.002 z m -46.744058,0.622995 0.236966,0.03392 0.002,0.002 -0.233374,-0.03292 -0.37677,0.07609 -0.370612,0.244675 -0.426643,0.163457 -0.09459,0.09201 -0.113087,0.56594 -0.581875,1.260384 -0.281677,-0.07092 -0.02875,0.300188 -0.105378,0.06326 -0.712945,-0.215888 9.95e-4,-0.002 0.709344,0.214863 0.102811,-0.06326 0.02875,-0.300188 0.281677,0.07092 0.581357,-1.260384 0.113604,-0.565939 0.09459,-0.08942 0.426126,-0.163458 0.368554,-0.244674 z m 41.940532,0.249817 0.305331,0.115653 0.360327,0.365987 0.213321,0.01024 -0.008,0.003 -0.226163,-0.01084 -0.357761,-0.365469 -0.303789,-0.115653 z m -0.08743,0.01591 -0.175792,0.03442 0.005,-0.003 z m -1.502482,0.252384 0.854818,0.06018 -0.0099,0.006 -0.863551,-0.06018 z m -1.16374,0.345426 -0.007,0.002 -0.547946,0.03133 0.008,-0.005 z m -2.112626,0.389114 h 0.231306 l 0.313547,0.399905 0.181451,0.04058 -0.01084,0.007 -0.18916,-0.04218 -0.31304,-0.39734 h -0.226163 z m -8.658692,0.05759 0.184018,0.466212 0.273978,0.239532 0.915982,0.484206 0.113086,0.150099 -5.27e-4,0.002 -0.112569,-0.149581 -0.915982,-0.484206 -0.273978,-0.239532 -0.184018,-0.465705 z m -32.14997,0.152666 0.100235,0.02676 0.002,0.002 -0.09917,-0.02517 -0.497057,0.42356 -0.986924,0.152665 -0.326398,-0.0185 -0.004,-0.003 0.324349,0.01591 0.98949,-0.150099 z m -2.247297,0.268318 0.130046,0.08684 -0.130046,-0.08634 z m 2.59529,0.05292 0.601918,0.005 v 0.003 l -0.599859,-0.005 z m 62.141063,0.923701 5.3e-4,5.27e-4 -0.3372,0.447194 -5.3e-4,-5.28e-4 z m 0.69547,0.12182 0.055,0.07042 -0.004,0.002 -0.0545,-0.06993 z m -1.21617,0.149582 h 0.003 l -0.006,0.286819 -0.003,-0.002 z m -0.26319,0.171166 0.0735,0.181452 -0.006,-0.005 -0.0709,-0.17425 z m -0.46364,0.05759 0.002,0.004 -0.0411,0.245698 -0.002,5.28e-4 z m -0.32075,0.215888 0.0375,0.05292 -0.0432,-0.03342 z m -0.019,0.06575 5.3e-4,0.005 -0.003,0.002 z m -27.493461,0.582382 0.13107,0.483181 0.155242,0.245192 0.710886,0.610144 0.715522,0.776685 1.232105,0.02875 0.844543,0.387064 1.099999,0.18916 0.373696,0.297612 0.802895,0.03442 0.61837,0.197386 0.590609,-0.09818 -9.95e-4,5.27e-4 -0.602435,0.100235 -0.618887,-0.197386 -0.802388,-0.037 -0.373686,-0.294538 -1.10001,-0.189678 -0.842484,-0.387054 -1.221312,-0.02875 -0.715512,-0.776168 -0.710896,-0.610661 -0.155232,-0.244674 -0.131588,-0.484723 z m -33.521381,3.465019 0.137247,0.03859 -0.137247,-0.038 z m -0.302755,1.697809 0.09509,0.08535 -0.003,0.004 -0.09459,-0.08485 z"
       style="stroke-width:0.263179;fill:#828282;fill-opacity:1" />
  </g>
</svg>
