<?xml version="1.0" encoding="UTF-8" standalone="no"?>
<!-- Created with Inkscape (http://www.inkscape.org/) -->

<svg
   width="206.71855mm"
   height="166.56526mm"
   viewBox="0 0 206.71855 166.56526"
   version="1.1"
   id="svg1"
   inkscape:version="1.3 (0e150ed, 2023-07-21)"
   sodipodi:docname="uae_terrain.svg"
   xmlns:inkscape="http://www.inkscape.org/namespaces/inkscape"
   xmlns:sodipodi="http://sodipodi.sourceforge.net/DTD/sodipodi-0.dtd"
   xmlns="http://www.w3.org/2000/svg"
   xmlns:svg="http://www.w3.org/2000/svg">
  <sodipodi:namedview
     id="namedview1"
     pagecolor="#ffffff"
     bordercolor="#000000"
     borderopacity="0.25"
     inkscape:showpageshadow="2"
     inkscape:pageopacity="0.0"
     inkscape:pagecheckerboard="0"
     inkscape:deskcolor="#d1d1d1"
     inkscape:document-units="mm"
     inkscape:zoom="0.5701459"
     inkscape:cx="392.00492"
     inkscape:cy="554.24409"
     inkscape:window-width="1312"
     inkscape:window-height="796"
     inkscape:window-x="56"
     inkscape:window-y="102"
     inkscape:window-maximized="0"
     inkscape:current-layer="layer1" />
  <defs
     id="defs1" />
  <g
     inkscape:label="Layer 1"
     inkscape:groupmode="layer"
     id="layer1"
     transform="translate(-1.4437193,-1.660417)">
    <path
       id="AE-AJ"
       d="m 197.5203,1.660417 -0.85212,0.3263864 -0.70753,-0.1116301 -0.27216,0.3269181 v 0.2477135 l -0.0814,0.2094401 -0.0245,0.038277 -0.0712,-0.038277 -0.0463,0.078672 0.0957,0.065382 0.0245,0.106315 -0.0707,0.2232612 v 0.288113 h -0.0712 l -0.0596,-0.1169462 -0.0245,0.065382 0.0951,0.1169462 v 0.2477135 l -0.1414,0.3540295 v 0.2259182 l -0.13077,0.4465235 0.0107,0.2227294 -0.10579,0.3157551 -0.0951,0.106314 -0.0819,0.4709757 -0.17701,0.037742 -0.21209,0.3923018 -0.0846,-0.02764 -0.1903,0.1828616 -0.0463,0.1302355 h -0.24771 l -0.0707,-0.078672 0.0596,-0.1823298 -0.0463,-0.1307673 -0.0596,0.013825 0.0106,0.4188803 0.26152,0.092497 -0.0356,0.3269182 0.26154,0.2748238 0.0707,0.1956201 -0.0601,0.038276 0.0107,0.092497 0.0712,0.079207 0.13023,0.01329 v 0.065381 l -0.13023,0.038277 0.0351,0.2094401 -0.0463,0.2094402 -0.0814,0.065382 -0.10632,-0.013825 -0.0356,0.2232613 -0.10578,0.1169462 0.11694,0.1828616 -0.0601,0.078672 -0.0814,-0.038276 -0.0468,0.065382 0.0601,0.038276 -0.0245,0.2610028 0.15522,0.3540284 -0.0356,0.1716987 -0.1903,0.051567 0.14406,0.019133 0.0356,0.1169462 -0.21263,0.065381 -0.0351,-0.1445887 -0.0463,0.013825 v 0.1307677 l 0.0707,0.07867 0.17701,-0.0271 -0.0112,0.03828 -0.15521,0.0925 v 0.0925 l -0.13024,0.171167 -0.14194,0.03828 0.025,0.116946 0.16585,-0.05157 -0.0245,0.233893 -0.13076,0.130767 -0.11961,-0.130767 -0.13077,-0.02712 -0.26153,0.157878 -0.29662,-0.05157 -0.11695,-0.116946 -0.27216,0.01329 -0.1903,0.443866 v 0.07867 h 0.0814 l 0.0601,0.07921 -0.0601,0.274824 -0.11693,-0.0925 -0.0463,0.06538 0.10631,0.144057 -0.0356,0.07867 -0.15469,0.02764 -0.0112,-0.07921 -0.0952,0.03828 -0.51988,1.006801 -0.0952,0.340208 -0.13076,0.18233 -0.27218,0.169041 0.0463,0.103125 -0.0356,0.116946 -0.41356,0.157878 -0.1414,-0.01329 0.0165,-0.101004 0.27216,-0.06486 0.0245,-0.130767 0.36732,-0.457155 0.15256,-0.446522 0.56878,-0.694236 0.0707,-0.247713 0.1196,-0.103127 0.0463,-0.171697 -0.0463,-0.05157 -0.10631,0.0925 -0.2828,0.628852 -1.05305,1.504888 -0.30778,0.233892 -0.33223,0.433233 -0.1414,0.01329 0.0952,0.301935 -0.10579,0.299807 0.0351,0.06538 0.60439,0.05154 -0.0601,0.22326 -0.44918,-0.130773 -0.0596,0.06542 0.0463,0.130774 0.37795,0.103123 0.0601,0.299278 -0.23655,0.05205 -0.16639,-0.144588 -0.16585,0.05205 -0.10632,0.130228 -0.1196,0.01378 -0.0351,0.07869 0.0814,0.05205 -0.0351,0.103123 -0.17701,-0.168505 -0.0463,0.05154 0.0351,0.196145 -0.20147,-0.03827 -0.0106,-0.116938 0.0951,-0.209446 0.17701,-0.144588 0.16585,-0.274827 0.20148,-0.116938 -0.0814,-0.419414 0.0596,-0.18233 -0.0952,-0.405059 h -0.0463 l -0.0601,0.103125 0.0356,0.18233 -0.5555,0.889853 -0.8654,0.890387 -0.30725,0.498087 -0.44919,0.494898 -1.12427,0.941943 -0.65011,0.378485 -0.49809,0.01327 -0.0707,0.09248 -0.40293,0.116938 -0.61504,-0.06223 -0.47363,0.05154 -0.29662,-0.06542 0.0596,0.209435 -0.2121,-0.103123 0.0245,-0.130763 0.17701,-0.22327 -0.0601,-0.168505 -0.10579,0.01327 -0.0112,0.117473 -0.31841,0.535828 -0.23655,0.288652 -0.0957,-0.03827 -0.0951,0.05154 -0.24771,0.536353 0.0819,0.01378 0.0951,-0.157879 0.1414,-0.03827 -0.0245,-0.18233 0.10632,-0.144053 0.1414,0.130228 0.36732,0.06799 -0.0245,0.179676 -0.13076,0.03827 -0.31841,-0.06542 -0.0351,0.247711 0.15523,0.01378 0.0245,0.130239 h -0.16639 l -0.36731,-0.18233 -0.0952,0.03827 -0.20147,0.40559 -0.86275,1.083353 -0.41356,0.470447 -0.50925,0.416751 -0.31841,0.06542 -0.8872,0.391775 -0.0596,0.144053 0.17649,0.09248 -0.0245,-0.130239 0.0957,-0.02767 0.0107,0.144589 -0.11695,0.06542 -0.1414,-0.06542 -0.0957,0.430041 -0.16585,0.01327 -0.11961,-0.103123 -0.23708,0.09248 0.15522,-0.144053 0.11694,-0.01378 0.025,-0.09248 -0.30778,0.07869 -0.10632,0.299813 -0.61503,0.873372 -0.34286,0.247712 -0.33223,0.07869 -0.0951,0.07921 -0.0814,0.340208 -0.42739,0.443867 0.0952,0.340208 -0.26153,-0.03827 -0.0596,0.144054 0.0596,0.209445 0.17702,0.06542 0.0707,0.09248 -0.16585,-0.02716 -0.0107,0.18233 0.15469,0.130774 0.29662,-0.02716 0.21263,-0.157878 0.16585,0.103123 -0.71018,0.470982 -0.24772,-0.05154 -0.17701,-0.16904 h -0.13077 l -0.24772,0.275352 -0.16585,-0.01378 -0.10631,0.09248 -0.68574,-0.103658 -0.0814,0.196145 -0.24771,0.157878 -0.27217,0.03827 -0.35403,-0.18233 -0.1414,0.05154 -0.11695,0.350844 -0.0601,-0.546989 -0.13078,-0.03775 -0.0463,-0.340208 0.0245,-0.274827 0.16638,-0.313093 0.1196,-0.495433 0.0245,-0.40559 -0.11961,-0.184984 v -0.114295 l 0.0515,-0.122791 h 0.0601 l 0.0596,0.157879 h 0.42739 l 0.16585,-0.312568 -0.0952,-0.93929 -0.0351,-0.103123 -0.11694,0.02705 -0.0356,0.391775 -0.30778,0.247712 0.0713,0.06542 -0.0468,0.103123 -0.14141,-0.05153 -0.48426,0.495422 -1.62555,3.24899 -0.005,-0.0021 -0.46247,0.743145 -0.26153,0.457156 -0.11695,0.402926 -0.0707,0.01327 -0.0356,0.117473 0.0819,0.06542 0.29661,-0.20997 0.2828,-0.03775 0.24771,0.144053 0.13078,0.378485 -0.0952,0.274827 -0.0819,0.01327 0.0951,-0.340209 -0.0596,-0.220071 -0.0819,-0.07921 -0.0952,0.247712 -0.35403,-0.247712 -0.2121,0.18233 -0.15521,-0.01327 0.0245,0.116949 h 0.13076 l -0.0463,0.130763 -0.0707,-0.06542 -0.0537,0.02654 -0.009,-0.02654 -0.13076,-0.07921 -0.0107,-0.157878 0.10632,-0.02716 -0.0713,-0.209435 -0.1414,0.18233 -0.22591,-0.06542 -0.0814,0.07869 0.22593,0.157878 -0.13078,0.247712 -0.0952,-0.05154 0.0107,-0.103658 -0.13077,0.03827 -0.0351,-0.03827 0.0463,-0.37795 -0.0819,0.416226 0.21263,0.209435 -0.47363,0.77026 -0.19084,0.06542 v 0.144588 l -0.60386,0.72932 0.0707,0.130228 0.26101,0.03827 0.47363,-0.19562 0.0245,-0.220596 0.10633,-0.157879 0.15521,0.116938 -0.19084,0.168515 0.0112,0.20997 0.22592,0.09248 0.20146,-0.03827 0.0707,0.07921 h 0.19296 l 0.0111,0.05154 -0.11695,0.116948 -0.19083,-0.06542 -0.10578,0.02716 -0.463,-0.261002 -0.40294,0.261002 0.21263,0.261537 0.0245,0.18233 -0.0707,0.05154 -0.10632,-0.220606 -0.1414,0.03827 0.0245,0.233886 0.11961,0.01379 0.0356,0.06542 -0.16638,0.144054 0.0112,0.247711 h 0.24771 l 0.0351,0.07921 -0.0463,0.05154 -0.31841,-0.03827 -0.0596,-0.06542 0.0106,-0.481608 0.1196,-0.443332 -0.0351,-0.220606 -0.22592,-0.03827 -0.22592,0.196155 -0.0245,-0.144588 -0.11961,-0.07869 -0.31841,0.598556 -0.56187,0.706988 -0.007,-0.0051 -0.75696,0.650638 -0.3535,0.144063 -0.15522,0.18233 0.0707,0.117473 0.16586,-0.07921 -0.0814,0.18233 -0.0712,0.03827 -0.0952,-0.0898 -0.17701,0.391765 -0.2121,0.261537 -0.17701,0.02705 0.0356,0.09248 0.10632,0.05154 0.0463,0.155214 0.0707,-0.06542 0.0951,0.05154 0.16586,0.443856 v 0.155225 l -0.13077,-0.02705 -0.0106,0.144054 0.0819,0.06542 0.10579,-0.03827 0.0707,0.03827 -0.0463,0.350845 -0.15521,0.117473 -0.2121,0.02716 -0.24771,-0.18233 -0.0707,-0.285988 0.0111,-0.272173 0.17649,-0.05154 0.0112,-0.247721 -0.16585,0.155224 -0.0468,-0.0898 0.0356,-0.261536 0.16585,0.01378 -0.1414,-0.155225 -0.0106,-0.220596 0.34287,-0.285453 0.16586,-0.340208 -0.27218,-0.116949 -0.34286,0.233887 -0.0112,0.05154 h 0.13076 l 0.22593,-0.155214 0.0845,0.02767 -0.0601,0.220071 -0.11695,0.130764 -0.21475,-0.01378 -0.0463,0.16904 -0.30779,-0.07921 0.0245,0.261537 0.13078,0.116948 -0.0707,0.196145 -0.90102,1.472464 -0.15256,0.02716 -0.15522,0.261012 -0.19031,0.16904 -0.0951,0.33489 0.52785,0.326383 1.11046,0.255694 0.42739,-0.01327 0.55496,-0.0898 0.95843,-0.313093 0.9361,-0.378485 0.47364,-0.285453 0.49808,1.13172 0.43802,0.495423 0.8654,0.326918 0.87657,0.467793 0.36732,0.337545 0.26153,0.443866 0.73464,0.677753 1.5623,1.132255 0.46246,0.15469 0.8165,0.01378 0.16639,0.103658 0.15202,0.220071 0.61504,2.316068 0.64001,3.108114 0.37795,1.10515 0.0463,0.299278 -0.0814,0.285978 -0.005,0.0082 0.0814,-0.285463 -0.0463,-0.299268 -0.37847,-1.10515 -0.63949,-3.108115 -0.61503,-2.316067 -0.15522,-0.220606 -0.16585,-0.103658 -0.8165,-0.01327 -0.46247,-0.155214 -1.5623,-1.132256 -0.73516,-0.677763 -0.26101,-0.443331 -0.36731,-0.337544 -0.87657,-0.468318 -0.86274,-0.326393 -0.43803,-0.495423 -0.49807,-1.132256 -0.47364,0.285988 -0.93663,0.37795 -0.9579,0.313103 -0.55496,0.09248 -0.42739,0.01378 -1.11046,-0.256219 -0.52786,-0.326383 -0.15521,0.184984 -1.14873,0.884544 -0.34287,0.144588 0.0356,0.168505 -0.15256,0.18233 0.0106,0.0898 0.49808,-0.07921 0.16638,0.103658 0.62566,0.612371 0.29663,0.196155 0.23707,0.519874 0.10579,0.06481 0.17701,-0.03775 0.13077,0.116948 0.15522,0.261002 0.0463,0.220596 0.10631,0.01378 0.0106,-0.06542 0.0951,0.03827 -0.0707,0.144054 -0.13078,-0.05154 0.0819,0.584731 -0.23655,0.455027 -0.19083,0.06481 -0.0951,0.117483 -0.39178,0.220071 -0.0707,-0.07869 0.0245,-0.272173 -0.14194,0.02716 -0.0707,0.03827 -0.0351,0.155224 -0.24773,0.168505 0.0596,-0.378475 0.44919,-0.233896 0.23708,-0.02705 0.0814,-0.144588 -0.0245,-0.233897 0.37848,-0.402926 -0.0356,-0.233896 -0.65011,-0.481608 -0.21264,-0.533699 -0.80532,-0.743145 -0.22593,-0.103123 -0.26153,0.05154 -0.16585,-0.03775 -0.0112,-0.0898 0.14194,-0.169039 v -0.350835 l -0.0819,-0.18233 -0.10632,0.02705 -0.21209,0.261002 h -0.0952 l -0.31842,0.299813 -0.0245,0.18233 0.0814,0.03775 0.0601,-0.0898 0.20147,-0.06542 0.0952,-0.130239 h 0.10631 l -0.0951,0.103133 -0.025,0.196145 -0.29661,0.378485 h -0.0814 l -0.23708,-0.261537 -0.0951,0.02705 0.24771,0.234432 -0.0601,0.285453 -0.24771,-0.168515 -0.1196,0.155224 0.19083,0.18233 -0.22592,-0.02767 0.0489,0.130763 0.10579,0.05154 -0.0106,0.196145 -0.16585,0.299278 -1.81001,2.61588 -0.95789,1.273655 -1.25505,1.44216 -0.22592,0.130763 -0.29662,0.351369 -0.0814,0.272173 -0.47363,0.416216 -0.24771,0.36466 -2.01148,2.286308 -0.15522,0.247712 -0.55496,0.440677 v 0.0898 l -0.1414,0.103658 -0.16638,-0.103658 -0.22326,-0.168515 -0.67457,0.18234 0.0245,0.05154 h 0.15522 l -0.0463,0.206781 0.19029,0.454503 -0.0356,0.0898 0.0957,0.36466 0.0814,0.07921 0.10632,-0.02767 0.10631,-0.168515 0.48427,-0.440677 0.17702,0.116948 -0.77026,0.71284 0.0707,0.258883 h 0.13077 l 0.0245,0.0898 0.0463,-0.01378 0.0596,-0.116948 -0.0707,-0.06542 0.36785,-0.18233 0.2121,-0.272173 0.16584,-0.02705 0.0112,0.0898 -0.51987,0.440668 -0.1664,0.258347 -0.21209,0.196155 -0.261,0.103658 -0.16639,-0.103658 0.20148,-0.299278 -0.24773,-0.75377 -0.21208,-0.196155 -0.17702,-0.402936 -0.0819,-0.258338 0.0601,-0.169039 -0.0951,0.141924 0.27217,0.674574 0.0245,0.207305 -0.29663,0.220072 -0.0601,-0.155215 -0.46248,0.196145 -0.36731,0.299278 -0.40293,0.220607 0.0569,0.157878 0.28067,0.835631 3.5626,10.222712 0.2626,0.846268 -3.82787,-11.06898 -0.28067,-0.835631 -0.0569,-0.144053 -1.33638,0.674564 -0.31842,-0.01327 -0.23708,0.0898 -1.43152,1.325221 -0.60387,0.468308 -0.14193,0.01327 -0.0734,0.207306 -0.49542,0.440678 -0.34286,-0.0898 -0.25039,0.313093 -0.9361,0.533174 -0.0952,0.01378 -0.0601,-0.182329 -0.0951,-0.01378 0.24771,0.38911 -0.15522,0.06542 -0.2121,-0.233896 0.0707,-0.068 -0.0601,-0.03559 -0.0707,0.144588 0.1903,0.116938 -0.20147,0.402936 -0.30724,-0.234421 0.0596,-0.206781 -0.2121,0.130763 -0.0601,0.130763 0.29396,0.168515 -0.0107,0.07921 -0.44917,0.389111 -0.10632,-0.02716 -0.0351,-0.0898 -0.13077,0.299278 -0.10631,0.0107 -0.0733,-0.06491 0.0356,-0.06542 -0.13077,0.06542 0.13077,0.220071 -0.8165,0.506594 -0.0112,-0.258882 0.0574,-0.04094 -0.068,-0.272163 0.0351,0.258873 -0.0596,0.04094 -0.0245,0.323719 -0.35404,0.05154 -0.13076,-0.206781 0.0739,0.18233 -0.0383,0.0898 -0.85211,0.362006 -0.20147,-0.01378 -0.0707,-0.07869 -0.10578,-0.402936 h -0.0495 l 0.025,0.283324 -0.0713,0.19562 0.0713,0.933446 0.27216,0.117484 -0.0957,0.154689 -0.10578,0.01378 0.61769,0.636823 -0.0601,0.0898 -0.23656,-0.285988 -0.15522,-0.09248 -0.36732,-0.492244 v -0.710711 l -0.49807,-0.0031 -0.22592,-0.07869 -0.50925,0.323729 0.16638,-0.272163 0.0245,-0.141399 -0.0734,-0.01646 -0.50925,0.35137 -0.21209,0.309904 -0.11961,0.441212 0.13024,0.15468 0.71071,0.416761 0.29662,-0.01378 0.15203,0.07921 -0.0106,0.220071 -0.10632,0.025 -0.20146,-0.139271 -0.38912,-0.09248 -0.44917,-0.233896 -0.26101,-0.233897 -0.20147,-0.05205 -0.17701,0.531045 -0.51987,0.933447 -0.46248,0.55815 -0.24771,0.192956 -0.10631,0.220606 -0.36733,0.168505 -0.0819,0.0898 v 0.116948 l -0.22272,0.144588 -0.16639,0.206781 -0.37795,0.206782 0.0245,0.05154 0.3753,-0.233886 0.29927,-0.07602 v 0.05154 l -0.29662,0.0898 -0.24771,0.23655 -0.0351,0.375821 0.48426,-0.389111 h 0.11695 v 0.0898 l -0.61504,0.413573 h -0.0596 l -0.0957,-0.1414 -0.0952,-0.01378 -0.0681,0.119602 -0.16585,0.06542 -0.0245,0.0898 0.2121,0.206781 0.48745,-0.01327 0.18765,0.105788 0.15256,-0.105788 0.18765,0.168515 -0.0324,0.116948 0.10577,0.620879 -0.13076,0.02716 -0.0351,-0.155225 -0.1196,-0.01378 -0.0112,0.18233 -0.16585,0.07921 -0.0111,0.245057 0.0957,0.05154 0.3046,-0.05154 0.0489,0.402402 -0.23655,0.166385 -0.16637,0.353499 -0.2121,0.05205 -0.0601,-0.07921 0.0601,-0.192966 h -0.1414 l -0.16639,0.05154 -0.1903,0.206781 h 0.30779 l 0.0951,0.06275 -0.049,0.130763 -0.17701,-0.103647 0.0569,0.155214 -0.0814,0.285453 0.0351,0.06542 0.44917,0.07653 0.0951,-0.51722 0.11748,-0.184994 0.10845,0.03775 0.0792,0.20997 -0.0819,0.06542 -0.0245,-0.05205 -0.0707,0.01389 0.0356,0.103123 0.27216,0.04094 0.0814,0.114284 0.17702,0.02448 -0.0819,0.103658 -0.48427,-0.06542 0.15522,0.282799 0.12758,0.07921 -0.4024,0.116938 -0.27801,-0.07869 -0.24187,0.05421 -0.13077,0.130773 0.0819,0.141389 0.13024,0.01389 0.0112,0.0898 -0.0951,0.0898 h 0.22592 l 0.21209,0.18233 -0.85211,0.802683 -0.10578,-0.07869 h -0.53105 l -0.3806,0.220071 h -0.13077 l -0.17702,0.361996 0.31842,0.582612 h -0.0463 l -0.15522,-0.06542 -0.0814,-0.233886 -0.14193,-0.155225 -0.0596,-0.233886 0.0463,-0.324264 -0.0707,-0.103123 0.0351,-0.16904 0.28333,-0.07869 0.29661,0.01327 0.0463,-0.05154 0.0272,-0.231232 -0.15788,-0.18233 -0.0707,-0.427387 0.0952,-0.06542 -0.0245,-0.12492 -0.15522,-0.106312 0.11695,-0.07921 -0.0351,-0.0898 -0.19083,-0.08929 h -0.19031 l -0.23655,0.02716 -0.0468,0.0898 -0.16586,0.01327 0.0112,-0.0898 -0.20148,-0.1414 -0.22591,0.01378 -0.1414,0.288118 -0.0846,0.269508 0.0952,0.258873 0.21208,0.02716 -0.0133,0.103134 -0.14139,0.03827 -0.0983,0.209435 -0.1632,0.06275 -0.0951,0.1414 0.0463,0.258872 0.13077,0.220071 h 0.1196 l -0.0112,0.285988 0.0819,0.0898 -0.0819,0.375831 0.12811,0.192956 0.19349,0.116948 0.16585,0.348715 0.0951,0.03775 0.1196,-0.155224 0.31843,0.025 0.17966,-0.128109 0.44919,-0.116948 0.0707,-0.05205 -0.0952,-0.168515 0.0707,-0.06542 0.52254,-0.155215 0.30778,0.02767 0.0245,0.15469 0.13076,0.07921 0.0814,0.155214 -0.0951,0.438024 -0.36733,0.508713 0.1414,0.141924 -0.16585,0.465129 -0.0819,0.03827 -0.11695,-0.03827 -0.068,0.141399 -0.38114,-0.331701 -0.10578,0.06275 0.46247,0.323729 0.0106,0.106312 -0.0569,0.07602 -0.0356,-0.106312 h -0.15203 l 0.0106,0.12811 -0.0707,0.130763 -0.18764,0.08661 0.0324,0.128109 -0.11695,0.274827 -0.0356,0.51722 -0.18765,0.372632 -0.13342,0.08188 -0.1414,0.233886 -0.22592,0.206781 -0.42473,0.204127 -0.72081,-0.08929 -0.72135,-0.193501 -0.79205,-0.337544 -0.23707,0.02716 -0.41357,-0.141399 -0.73463,-0.751117 -0.4141,-0.65862 -0.13024,-0.34818 0.0951,-0.400272 h -0.69955 l 0.0356,0.0898 0.1547,0.0898 -0.0133,0.103133 -0.24773,-0.141399 -0.0112,0.245057 -0.10579,0.068 -0.0463,0.155224 -0.11693,0.01327 -0.0957,0.193491 -0.0106,0.245057 0.11694,0.427388 0.32107,0.361995 0.20413,0.361471 -0.0978,0.06275 -0.0819,-0.116948 -0.0707,0.130773 0.10631,0.07869 0.261,0.650647 0.28599,0.152561 -0.12226,0.182329 -0.0925,-0.09248 -0.20413,0.06542 -0.0601,0.244533 0.26099,0.141924 0.19083,-0.01646 0.16585,0.09248 0.23708,-0.07921 0.43803,0.03827 0.261,0.206781 h 0.42472 l 0.27216,0.130773 0.32108,0.03827 0.24771,-0.157879 0.20147,-0.02448 0.29662,0.0898 1.38528,0.05154 0.10631,0.206781 -0.13076,0.323729 -0.56879,0.582602 0.0601,0.397618 0.11695,0.06799 0.47363,-0.06542 0.15523,-0.07653 0.10578,-0.168505 0.34287,0.0898 0.22592,-0.06542 0.19084,-0.258348 h 0.0839 l 0.0601,0.1005 -0.0489,0.233896 -0.13077,0.155215 -2.31873,0.737826 -0.46247,0.130239 -0.13076,-0.05154 -0.20678,0.06542 -0.50393,0.272173 -1.34702,-0.07869 -0.26419,0.18233 -0.17648,-0.207316 -0.48481,-0.282799 -0.17701,-0.481608 -0.4024,-0.04886 -0.27216,0.07869 -0.28334,-0.155214 0.0819,-0.06542 -0.0245,-0.103123 0.0814,-0.155214 -0.261,-0.182341 -0.17702,-0.285977 -0.16586,0.02716 -0.31841,-0.233897 -0.13076,-0.01327 -0.0245,0.116949 h -0.17701 l -0.11695,-0.141935 0.21209,-0.02716 0.0601,-0.07869 -0.31841,0.0031 -0.19084,-0.116948 -0.8872,-0.789393 -0.261,-0.607053 0.20147,-0.245058 0.11694,-0.272162 0.25038,-0.114295 0.15521,-0.231232 -0.29661,0.231232 -0.47364,-0.478943 0.26101,-0.465129 -0.13024,-0.130773 -0.12014,0.02716 -0.0707,-0.116948 -0.63948,0.18233 -0.0463,0.116948 0.0814,-0.0898 0.43854,-0.07869 -0.0952,0.103123 0.0463,0.141934 -0.0819,0.0898 -0.2828,0.192966 -0.11747,-0.07602 -0.1414,0.516696 0.40293,0.402926 0.30725,-0.127575 -0.31842,0.44865 -0.80533,0.672445 -0.21209,0.514556 -1.43207,0.829788 -0.10578,-0.34818 -0.34286,0.06542 -0.0356,0.31045 0.49808,0.309904 0.11694,-0.258348 0.21263,0.07869 0.0351,-0.116948 0.28334,0.01378 v 0.130228 l 0.10577,0.05215 0.28334,-0.01389 0.0106,0.06542 -0.2828,0.06542 0.0707,0.0898 0.2121,0.01327 0.14459,-0.220072 0.26898,0.01595 0.0601,0.101014 h -0.2121 l -0.0245,0.07602 0.4024,0.296624 0.64002,0.620878 0.28545,-0.01389 0.34286,0.220606 0.24772,0.05154 0.24771,0.179666 0.20147,0.03827 0.0627,-0.206781 -0.73783,-0.296614 0.0707,-0.02767 0.66713,0.231767 0.0569,0.144054 0.14194,0.128119 0.22591,-0.03827 0.0707,0.0898 0.261,0.103123 0.13343,0.234432 1.26302,0.476289 0.0733,-0.01121 0.10366,-0.313103 -1.39645,-0.451839 -0.0106,-0.07869 0.53051,0.0898 1.58675,0.51722 -0.0707,0.168504 -0.42739,-0.16585 -0.0819,0.03827 -0.0814,0.220071 0.30725,0.179676 0.22592,0.05154 0.0819,-0.220071 0.0952,-0.01378 0.11694,0.16904 0.0925,-0.128109 -0.0596,-0.157879 0.20147,0.05421 0.16586,-0.02705 0.0351,-0.309904 0.10633,-0.117483 -0.0463,-0.206782 0.0356,-0.116948 0.15469,0.231232 0.0712,0.427388 h -0.10631 l -0.1414,0.193491 -0.30777,0.231242 0.0707,0.06275 0.41358,0.02973 0.0463,0.06542 -0.38913,-0.01378 -0.261,-0.0898 -0.0845,0.05205 0.17701,0.272162 0.12811,0.08929 0.17914,0.03827 0.0957,-0.245058 h 0.33171 l 0.27216,-0.07602 0.62618,0.01378 -0.0245,0.152025 0.0596,0.190837 -0.20093,0.01594 -0.10632,-0.05154 -0.37847,0.07921 -0.13078,-0.05205 -0.35348,0.0898 -0.7676,-0.05154 -0.21476,0.07921 -0.0468,0.08929 0.0356,0.634169 -0.0356,0.07921 -0.15469,-0.01646 -0.26153,0.985538 -0.0106,0.192966 0.17648,0.33489 -0.24718,-0.128109 -0.16638,0.620878 0.0845,0.231232 0.22592,0.1414 2.69987,-0.116948 0.16585,0.01646 0.0356,0.165851 h -0.23709 l -0.0596,-0.128109 h -0.0601 l -2.46331,0.128109 -0.2121,-0.05154 -0.261,-0.261537 -0.22592,0.237086 -0.0819,0.361995 -0.11694,0.03508 -0.22592,0.430041 -0.22592,0.141399 0.16585,0.01378 0.27217,-0.285987 0.0574,0.04886 -0.0707,0.130773 -0.14193,0.18233 -0.50873,0.272163 0.0107,0.18233 -0.10579,0.114294 -0.28332,0.18233 -0.0351,-0.144064 -0.13076,-0.0898 -0.0707,0.0898 0.13076,0.220606 -0.16638,0.127575 -0.27216,0.05205 -0.0952,0.116938 -0.57941,0.258347 h -0.20147 l -0.13076,-0.116948 0.0245,-0.07602 -0.10631,0.01327 0.14192,0.247711 0.21476,0.190837 -0.0356,0.1414 -0.22272,0.141399 -0.7947,0.369978 -0.57464,1.151389 -1.78822,-0.383803 -1.02326,0.383803 -1.66012,0.190826 -0.89517,-0.318411 -0.64001,-0.767586 -1.08548,-1.023289 -0.76759,-0.830313 -0.83032,-1.151389 -0.18233,-1.093979 -1.79885,1.352852 -0.26153,-0.01378 v 0.116948 l 0.27482,0.307785 0.15257,0.568777 -0.0819,0.116948 -0.0814,-0.144054 h -0.0515 l -0.10366,0.105788 -0.29662,0.09834 -0.0111,0.146718 0.13076,0.193491 -0.0351,0.07602 -0.0957,-0.03827 -0.0952,-0.168515 -0.0489,0.04094 0.0112,0.1005 0.1903,0.103658 0.48426,-0.07653 0.56879,0.103648 0.28333,0.141399 0.0978,0.130774 1.14076,0.576759 0.70168,0.767585 0.57463,0.06275 0.9579,0.957898 v 0.702214 l -0.9579,0.255684 -0.44652,0.511912 -0.44653,1.151389 -1.21358,0.511367 -1.40707,0.702214 -1.78822,0.06275 -1.21359,0.44652 -3.38613,1.469275 -1.34169,0.446521 -1.8536,0.767595 -2.155533,-0.119612 -0.734637,0.02448 -0.519885,-0.234421 -0.522528,-0.04886 h -0.639491 l -0.484797,0.116948 -0.650113,-0.01327 -0.675099,-0.169039 -0.427387,-0.179131 -0.130773,-0.155225 -0.438014,0.362006 -0.639486,0.309904 -0.201463,0.01111 -0.508723,0.171169 -1.632997,0.245057 -0.484786,0.128109 h -0.378485 l -0.30725,-0.0898 -0.530511,0.02716 -0.212634,-0.141389 -0.296614,-0.0031 -0.767596,-0.669781 -0.416216,-0.539017 0.08137,-0.206781 -0.340208,-0.51722 -0.157344,-0.1005 -0.402936,-0.01378 -0.283324,0.128109 -0.685735,-0.282799 -0.685735,-0.348716 0.08137,-0.34818 -0.119602,0.06542 -0.03508,0.282799 h -0.166386 l -0.353488,-0.155214 -0.04629,-0.454503 -0.296624,0.247712 -0.152561,-0.424188 -0.519874,-0.35138 -0.215298,0.130773 -0.130228,-0.155224 -0.09567,-0.01378 -0.498087,0.169039 -0.734637,0.527857 -0.604399,0.128109 h -0.282799 l -0.190302,-0.01378 -0.269509,-0.116948 -0.26419,0.0031 -0.272163,0.16904 -0.62885,0.168505 -0.130239,0.179676 -0.318411,0.01378 -0.212634,-0.117473 0.02448,0.206781 0.261537,0.3216 -0.04629,0.206781 -0.3923,-0.07653 -0.685735,0.373156 -0.103123,-0.283324 -0.26419,0.16904 -0.07067,-0.05154 0.106312,-0.231757 0.438023,-0.424198 0.08137,-0.310439 -0.103123,0.05154 -0.272162,0.33489 -0.1414,0.02448 -0.08188,-0.05154 -0.04629,-0.247711 -0.130773,-0.07653 -0.30725,-0.36147 -0.155215,0.02448 0.03508,0.141399 -0.130228,0.03827 -0.533709,-0.207316 -0.261002,0.103658 -0.190837,-0.157878 -0.127574,0.0031 -0.01121,0.29396 -0.212089,-0.03508 -0.78142,0.06491 -0.225915,-0.334366 -0.261001,-0.141934 -0.296624,-0.272163 -0.247712,-0.258348 -0.03292,-0.106312 -0.321075,-0.1005 -0.07334,-0.345526 -0.187648,-0.299803 -0.212624,-0.141399 -0.710186,-0.168505 -0.177012,-0.16904 -0.07067,-0.220081 -0.155225,-0.07653 -0.04629,0.08713 H 71.11889 L 71.009924,91.24905 70.7133,91.30059 70.394889,91.183642 70.204587,90.987497 H 69.9578 l -0.272173,0.258872 0.105788,1.061556 -0.2121,0.268974 -0.296613,0.09299 -0.767596,-0.03559 -1.671273,0.631514 -0.544325,0.02448 -0.791523,-0.593238 -0.141924,-0.206782 -0.0324,-0.231767 -0.07334,-0.05154 0.01327,0.16904 -0.367314,-0.0898 -0.190302,-0.16904 -0.04629,-0.116948 -0.108976,-0.05154 0.331702,0.413563 0.332236,0.0898 0.01121,0.116949 -0.640012,-0.155225 -0.152035,-0.103123 -0.735163,-0.206781 -0.29662,-0.179676 -0.02444,-0.15256 -0.128111,-0.133428 -0.190302,0.07602 -0.01382,0.179676 -0.127578,0.128109 -1.325746,0.748453 -0.579417,0.01378 -0.498083,-0.465654 0.04625,-0.0898 -0.09515,-0.07602 -0.21263,0.05154 -0.734636,0.478954 -0.402933,0.01378 -0.190304,0.06542 -0.09515,0.103123 -0.343398,-0.05154 -0.377949,0.03827 -0.247712,-0.117483 -0.44918,-0.630979 -0.247715,-0.02767 -0.261002,0.05205 -1.611203,0.696361 -0.6751,0.206781 -0.484797,0.06542 -0.391769,-0.220072 -0.557621,-0.539017 -0.117478,-0.18233 -0.318412,-0.231242 -0.176484,-0.03827 0.02447,0.451839 -0.356686,0.01327 -0.03561,-0.579413 0.01116,-0.438024 0.08132,-0.02448 -0.03242,-0.103658 -0.108972,-0.01646 0.01116,1.137563 -0.237084,-0.01327 -0.03508,-0.155214 0.16585,-1.083353 -0.332233,-0.348181 -0.03774,0.05421 0.288112,0.373166 -0.0489,0.296624 -0.155219,-0.0898 0.01116,0.0898 0.141399,0.06542 -0.119603,0.838285 -0.261536,-0.06542 -0.141398,-0.141924 -0.908995,0.03827 -0.07335,0.01378 0.05954,0.282799 -0.08134,0.0898 -0.225916,0.0898 -0.165853,-0.01327 -0.08186,-0.310439 -0.544332,-0.854775 -0.626194,-0.33489 -0.321072,-0.06223 -0.01065,-0.579948 -0.04625,-0.0898 -0.130768,-0.03827 -0.119603,-0.179141 0.272166,-0.26419 -0.01116,-0.04629 -0.261002,0.231232 -0.378483,-0.0898 -0.130767,-0.168515 -0.568784,-0.179665 -0.427387,0.116948 -0.535824,0.361996 -0.422073,0.155224 0.09515,0.116938 0.02447,0.332237 -0.105783,0.726665 -0.166383,0.503405 0.356685,0.386447 -0.01383,0.114294 -0.413565,0.272163 -1.891342,0.761743 -0.381138,0.400282 -0.508717,0.321065 h -1.017964 l -0.09569,0.220606 -0.225916,0.179666 -0.426854,-0.01378 -0.650649,-0.47629 -0.02444,-0.220072 0.212097,-0.141924 0.08452,-0.375296 -0.106314,-0.128109 -0.165851,-0.05154 -0.332234,0.07602 -0.130237,0.220606 0.105783,0.490115 0.28333,0.244523 h 0.155219 l 0.650115,0.51722 0.0489,0.231232 -0.144054,0.414097 -0.130767,0.15469 -0.2828,0.258873 -1.385282,0.786204 -1.409736,0.373166 -1.138101,0.604399 -0.296617,0.244523 -0.448649,0.193491 -0.414095,0.34818 -0.05954,0.334891 -0.28333,0.193501 -2.911965,1.145526 -1.007333,0.23125 -1.0775,0.33489 -0.590581,0.10365 -1.336377,-0.0277 -0.402934,0.0898 h -0.318412 l -0.367319,-0.11695 -0.498085,-0.0654 -0.367317,-0.12758 -0.215287,-0.16637 -0.304592,0.0138 -0.43855,0.24506 -0.08133,0.17966 -0.155219,0.0378 -0.318413,-0.1414 -0.6751,-0.0627 -0.770251,-0.36201 -0.887198,-0.928123 -0.16585,0.02767 0.04625,0.103123 -0.177014,0.1414 -0.675099,0.169039 -0.579416,-0.18233 -0.201467,0.02716 -0.533701,-0.103658 -0.413565,-0.321075 -0.03509,-0.1414 0.05954,-0.168504 -0.105783,-0.12811 h -0.14193 l -0.177014,0.1414 -0.544332,-0.01327 -0.236551,0.15469 -0.155219,0.01378 -0.282798,0.386457 -0.09515,0.01378 -0.177014,-0.206781 -0.296619,0.01327 -0.02445,0.362005 0.190304,0.204127 0.20944,0.05472 0.119604,0.1005 -0.02445,0.07601 -0.165851,0.0245 -0.685732,-0.244527 -0.487452,-0.01378 -0.201467,0.130764 H 16.16681 l -0.413565,-0.179676 -0.44918,0.01327 -0.922813,-0.179141 -0.212099,-0.103658 -0.922813,-0.772913 -0.296618,-0.103658 -0.603869,-0.889852 -0.14193,-0.310439 -0.119604,-1.082818 0.165851,-0.245058 0.04625,-0.838285 -0.05954,-0.593238 -0.141399,-0.310439 0.02445,-0.348181 -0.106315,-0.206791 -0.106315,-0.514556 -0.212098,-0.323729 -0.190304,-0.82766 -0.201466,-0.435359 0.0218,-0.438024 0.200935,0.07869 0.08452,-0.128109 -0.09515,-0.05154 -0.08452,0.05154 -0.105784,-0.116938 0.03509,-0.14141 0.15522,-0.01378 0.01063,-0.503395 0.223261,-0.285463 0.166383,-0.03559 -0.15522,-1.0068 0.15522,-0.414097 0.212098,-0.244523 -0.272166,-0.50393 -0.03561,-0.34818 0.321603,-0.802683 -0.130767,-0.346052 -0.601742,-0.584731 -0.710183,-0.346061 -0.212099,-0.244523 -0.08452,0.0106 0.02445,0.220596 0.144056,0.04629 0.0027,0.07869 -0.356155,0.37583 -0.2588764,0.386447 -0.1546877,0.362006 -0.1419303,0.103123 -0.081326,0.231767 -0.21263,0.07869 -0.081326,0.245057 v 0.413562 l 0.3072502,0.852121 -0.01329,0.0898 -0.2477135,0.282799 -0.2259192,0.103658 -0.1908348,0.01059 -0.473102,-0.138735 -0.1770137,-0.245058 -0.081861,-0.413562 0.011161,-0.438024 -0.071235,-0.386446 0.035612,-0.258883 -0.296618,-0.386457 -0.201467,-0.644794 -0.1307673,-0.18233 -0.1302354,0.03775 -0.095686,-0.348181 0.1552195,-0.07602 -0.037741,-0.324264 -0.4273852,-0.53051 V 84.20492 l -0.1663836,-0.192967 -0.035088,-0.19349 -0.106315,-0.07602 -0.1307672,0.258348 0.106315,0.206781 0.035612,0.299813 -0.046249,0.05154 -0.1663825,-0.04094 -0.010626,0.103658 0.2120982,0.04043 0.1552195,0.125455 0.021797,0.427388 0.1307672,0.136081 0.2259193,0.0898 v 0.282799 l 0.1196043,0.375831 -0.046248,0.634168 0.1552195,0.155215 0.046248,0.220071 -0.035612,0.590584 -0.190304,0.36466 -0.1413984,0.103658 0.024451,0.310439 -0.2615346,0.116938 -0.0707,0.168515 H 6.5947657 l -0.1552195,0.103658 -0.1876459,0.478943 -0.1413985,0.06542 H 5.8489673 l -0.081326,-0.0898 -0.024986,-0.258348 0.2259193,-0.025 0.1770148,0.103648 L 6.2790137,88.741924 6.2189507,88.562248 5.971769,88.355467 5.8165495,88.097129 5.8627985,87.805823 5.8383475,87.321561 5.590633,86.845272 5.555021,85.903318 l 0.046248,-0.192966 0.1908348,-0.141924 -0.081861,-0.309904 0.035612,-0.193501 0.1169462,-0.07602 0.2477134,0.04896 -0.013825,-0.07602 -0.282797,-0.130763 -0.011161,-0.1414 0.1413995,-0.02767 0.011161,0.07921 0.1467146,-0.01111 0.068046,-0.296624 L 6.0180212,84.278901 5.9467866,83.968462 5.8298404,83.94398 5.5906319,83.750489 5.7213991,83.50862 5.674626,83.364032 5.5550217,83.249748 5.282855,82.577838 5.081389,82.370522 4.8336745,82.398193 4.4201103,81.649741 4.1373124,81.429134 l -0.1908348,-0.03559 -0.024451,0.117473 0.1196043,0.337019 -0.4380175,0.231767 0.106315,0.15469 -0.021797,0.141924 0.056875,0.07602 0.2041251,-0.03827 0.1419303,0.15256 0.095151,0.595892 -0.1908358,0.296614 0.024986,0.283334 0.1440566,0.372632 -0.097805,0.389646 0.2009342,0.05154 -0.046248,0.192966 0.1201361,0.296624 0.010626,0.582602 0.1196043,0.01121 0.093022,0.168505 -0.2370812,0.82447 -0.035088,-0.241869 -0.046773,0.01327 -0.046248,0.465664 -0.6012102,0.282799 0.106315,0.47629 0.3588128,0.514566 0.4630005,0.462464 -0.307781,1.440041 -0.3263873,3.796503 13.9756212,17.408 28.441355,34.08029 29.421042,5.88452 25.254563,5.63895 48.5843,11.37143 8.73643,-9.21005 -0.0436,-0.51722 -0.15257,-0.68574 0.0303,-0.28332 0.44598,-2.06836 0.26154,-1.65745 -0.0654,-0.37848 -0.15522,-3.6987 -0.16585,-1.34169 0.0351,-0.54699 0.16372,-0.90633 -0.0409,-2.35701 0.0898,-0.47629 0.29129,-0.75909 0.31576,-0.69955 0.32372,-0.52519 -0.076,-0.40559 0.0107,-0.56347 0.13609,-0.29662 0.0218,-0.5034 0.2121,-0.69157 0.48745,-0.87072 0.36732,-0.40559 0.94728,-1.76111 0.90898,-1.2221 0.34021,-0.985 0.86806,-1.21146 0.38912,-0.78088 0.95523,-2.72432 0.19084,-1.05358 0.59589,-2.34318 0.50925,-2.94758 0.23921,-0.43536 0.69423,-0.86274 0.99883,-0.94993 0.64214,-0.47097 0.34021,-0.41623 0.22061,-0.41356 0.17967,-0.83829 0.35615,-1.15139 0.18818,-1.44801 0.0404,-1.00414 0.21263,-0.78939 0.51137,-1.23273 0.30512,-0.54167 1.50489,-1.82383 0.5773,-0.88454 0.13873,-0.45715 0.0245,-0.46513 -0.30778,-1.97054 0.17702,-2.36233 -0.13609,-0.47363 -0.20412,-0.38911 -0.41622,-0.2206 -0.37583,-0.30779 -0.63948,-0.2121 -0.53902,-0.32638 -0.90368,-0.59376 -0.34021,-0.3046 -0.14405,-0.59589 -0.0787,-0.88189 0.50871,-0.14139 1.59207,-0.13928 0.5826,-0.16319 0.35935,-0.266314 0.51988,-0.163721 1.6027,-0.737302 -0.56348,-0.0051 1.22794,-0.917492 0.51935,-0.261002 0.53636,-0.147253 2.90664,0.11163 0.63949,0.196155 0.42472,0.02716 0.51192,-0.08456 1.28747,-0.547 0.44067,0.0574 0.23124,0.358806 0.99617,0.724012 0.41356,0.05472 0.42739,-0.160532 2.73016,-1.420897 4.58591,-1.178504 0.42737,-0.168505 0.23656,-0.18233 -0.13609,-0.590584 -0.98501,-1.777585 -0.83563,-1.04773 -0.27217,-2.125765 -0.29661,-0.261002 -0.13875,-0.212634 -0.14459,-0.47629 0.0574,-0.454493 -0.40027,-0.476289 -1.5841,0.08713 -1.31458,0.661274 -0.43535,0.296624 -0.30778,0.06542 -0.29663,-0.0107 -0.63098,-0.389111 -0.65065,-0.305121 -0.66127,0.101014 -0.63417,0.0051 -0.35669,-0.0898 -0.24239,-0.136081 -0.14672,-0.196155 0.008,-0.255683 0.47629,-1.570269 0.96908,-1.54051 0.90898,-1.282152 0.0681,-0.876037 -0.0245,-1.173185 -0.13873,-1.042413 -0.44387,-0.595902 -0.79736,-0.696886 -0.27483,-0.146717 -0.0787,-0.375821 -0.0165,-0.372642 0.11163,-0.69955 -0.0436,-2.400592 -0.27216,-0.688914 -0.0165,-0.533174 -0.19614,-0.704868 0.0957,-0.688389 1.14289,-0.69955 0.068,-0.378475 -0.13608,-0.794711 0.0245,-0.590574 0.87125,-0.77025 0.24187,-0.280145 0.10631,-0.239739 0.0515,-0.269509 -0.0707,-0.214753 -0.82713,-2.000845 -0.80056,0.519874 -1.26568,0.285988 -0.71019,0.02716 -1.49159,-0.309915 -0.63949,-0.220606 -0.7458,-0.351369 -0.79205,-0.168505 -0.31841,0.400272 -0.49809,0.285463 -0.46246,0.141399 -1.05304,0.0898 -0.51989,0.206781 -1.44535,1.037105 -0.3673,0.18233 -1.14874,0.116948 -1.0993,1.21677 -0.51987,0.375821 -0.60175,0.318411 -0.90367,0.334365 -1.13491,0.215289 -1.80151,0.08713 -2.73282,-0.155214 2.73548,0.149371 1.8015,-0.08661 1.1349,-0.215288 0.90369,-0.33489 0.60174,-0.318411 0.51988,-0.375296 1.09929,-1.21677 1.14873,-0.116949 0.36732,-0.18233 1.44269,-1.037104 0.51989,-0.206781 1.05304,-0.0898 0.46246,-0.1414 0.49809,-0.285987 0.31841,-0.399748 0.004,-0.0082 0.79045,0.16904 0.7458,0.350834 0.64001,0.220606 1.49107,0.310439 0.71071,-0.02767 1.26515,-0.285464 0.80056,-0.519874 -0.23177,-0.928128 0.2998,-1.331064 0.0191,-0.696362 -0.25355,-0.78141 -0.51988,-2.920477 0.0713,-0.957887 0.12758,-0.424733 1.86157,-2.514352 0.50659,-0.626186 0.32107,-0.250376 1.29279,-0.803208 1.32255,-0.623007 0.96906,-0.165851 0.78621,0.165851 v 0.0051 l 0.81118,0.04886 0.92281,0.416761 0.43005,0.269509 0.45183,0.987656 0.18499,0.966405 0.0542,1.35817 0.20146,0.644804 0.29396,0.544336 -0.075,0.115878 -0.91271,-0.638416 -0.20413,-0.266855 -0.49543,-0.26632 -0.38114,-0.101014 -0.29928,0.01646 -0.4848,0.192956 -0.17382,0.190837 -0.0654,0.206781 0.0569,0.288642 0.36466,0.677228 0.2424,0.332236 1.15138,0.963741 0.0925,0.144063 -0.0436,0.88188 0.076,0.263656 0.48745,0.99352 0.27218,0.361995 0.26951,0.201474 0.0596,0.136081 -0.1196,0.231232 0.10102,0.07067 0.0515,0.394964 0.16584,0.157868 0.003,-0.0031 0.3923,0.340209 0.91165,0.244522 0.37263,-0.02716 0.93664,0.116948 1.05571,-0.33702 0.23707,-0.182329 0.17649,-0.789393 0.15256,-0.402926 0.94195,-0.280145 0.10845,-0.177012 0.14458,-0.595892 0.008,-0.514566 0.12546,-0.541671 0.21209,-0.410909 -1.15671,-0.05472 -1.02859,0.155214 -0.78142,-0.0898 -0.41569,0.108441 0.11908,-0.05956 0.29661,-0.05154 0.78142,0.0898 1.02859,-0.155214 1.15671,0.05205 0.49011,-0.414097 0.26367,-0.07602 0.74313,0.06275 0.71019,-0.160532 0.55549,-0.261537 0.75112,-0.23655 0.24239,-0.256219 -0.43854,-1.004146 -0.0707,-0.36466 0.003,0.0031 0.0707,0.36465 0.43855,1.004681 0.18498,-0.237086 0.26951,-0.44652 0.18765,-0.576759 1.31459,-0.34818 0.33489,-0.177012 0.24187,-0.310439 -0.0272,-0.949391 0.003,0.0021 -0.19562,-1.800442 0.003,0.0021 0.0846,-0.350834 0.20944,-0.343398 0.45449,-0.171168 0.89784,-0.09515 -0.20094,-0.778757 -0.15522,-0.272163 v -0.285463 l -0.0957,-0.196145 -0.1903,-0.05154 v -0.06542 l 0.0819,-0.03827 0.2121,-0.715495 0.36731,-0.03827 -0.31841,-0.01378 -0.20147,-0.440677 -0.15522,-2.193801 -1.39325,-0.07334 1.3991,0.07334 -0.16638,-3.213902 0.10631,-0.677763 0.0356,-1.872735 0.24772,-1.899841 0.2828,-1.276309 0.0463,-1.276319 0.10632,-0.272163 -0.11429,-0.03559 -0.003,0.0021 -0.0839,-0.07818 v -0.103658 l 0.21209,-0.15469 0.10632,-0.16904 0.16585,-0.07869 -0.0596,-0.157879 -0.16638,-0.155224 0.0356,-0.234421 0.15521,0.03827 0.0106,-0.06542 -0.1414,-0.19562 -0.10633,-0.01378 -0.0596,-0.07869 0.0951,-0.285977 -0.33224,-0.209445 -0.10631,-0.299278 -0.1414,0.103123 0.1414,0.299278 -0.13024,0.02705 -0.0819,0.103658 -0.1414,-0.06542 -0.2121,-0.18233 -0.11747,-0.196145 -0.0707,-0.391775 0.0819,-0.299278 0.31841,-0.06542 0.0814,-0.443331 0.22591,-0.495423 0.0819,-0.71604 -0.10631,-0.704868 -0.98767,0.879226 -0.5826,0.737292 0.12811,1.333728 -0.23708,1.189655 0.31841,1.031262 -0.32107,-1.037105 0.23708,-1.18913 -0.12758,-1.326281 0.002,-0.0021 0.58526,-0.74261 0.98766,-0.879226 0.0468,-0.220596 -0.20147,-0.06542 -0.0819,-0.37795 0.13078,-0.901024 0.0463,-1.056237 -0.0356,-0.220071 -0.13023,-0.18233 0.0245,-0.144589 0.10578,-0.07869 0.0356,-0.378485 0.17702,-0.495423 0.13023,-0.718693 -0.0463,-0.209435 -0.20147,-0.06542 -0.0463,-0.168504 -0.11694,-0.02716 0.0463,-0.220606 -0.23655,-0.299278 -0.0952,-0.704868 0.1414,-1.056238 -0.0819,-0.546989 -0.3317,0.02716 -0.15522,-0.18233 -0.24772,-0.06542 -0.0356,-0.130239 -0.22592,0.116948 -0.9579,-0.419405 -0.2121,-0.01327 -0.29661,-0.223261 -0.0601,0.03775 0.19031,0.09299 0.0112,0.103123 -0.33224,0.116948 0.0112,-0.157878 -0.0951,0.02767 0.0596,0.157343 -0.0245,0.06542 -0.10631,0.02767 -0.57941,-0.495433 -0.22593,-0.430041 -0.0707,-0.3923 -0.99085,0.890387 -0.57942,-0.05205 -0.47629,-0.239215 -0.41675,-0.356688 -0.29927,-0.416216 -0.17968,-0.536363 -0.71549,-0.595892 h -0.60175 l -0.55496,0.165851 -0.0202,-0.0287 0.004,-0.0041 -0.16904,-0.245057 -0.10312,-0.386457 -0.0654,-2.471282 0.13342,-1.276319 0.32373,-0.846792 -0.66127,-1.69519 -0.0112,-0.854772 0.0983,-0.75643 0.60121,-1.954599 -0.0814,-0.506059 0.2828,-0.6639359 0.47363,-3.4350334 -0.18498,-0.8409515 -0.0138,-0.985007 0.18232,-1.0206222 -0.23124,-1.0695278 -0.45183,-0.5879209 z m -3.53817,5.4704321 -0.0601,0.1440565 -0.17649,0.7978928 -0.19084,0.4188803 0.1414,-0.065381 0.26154,-0.9307864 0.0601,0.2094401 0.0814,-0.051567 0.0463,-0.1578776 0.0952,0.027105 0.0601,-0.051567 -0.0819,-0.2232612 -0.15469,-0.1057832 z m -0.28599,1.3719926 -0.18764,0.078672 -0.15522,0.3540285 -0.0106,0.2094401 -0.50925,1.0860067 0.0463,0.157878 0.0846,0.06538 0.34286,-0.6017416 0.20147,-0.5634696 -0.0596,-0.2094402 z m -42.81671,1.6356543 -0.19084,0.0925 -0.0463,0.18233 -0.2828,0.05157 -0.0245,0.103657 -0.30777,0.367318 -0.20148,-0.05157 -0.15521,0.301934 v 0.288645 l 0.0601,0.06486 0.0707,-0.01329 -0.0351,-0.261534 0.24719,0.103657 -0.0463,0.522538 0.13076,0.02712 0.0601,-0.116948 h 0.17701 l 0.0596,0.144058 0.24771,0.130767 v 0.130767 l 0.0707,0.06538 0.15522,-0.237082 0.29662,-0.06538 0.45982,0.144588 0.11748,-0.247714 -0.11748,-0.116946 -0.0106,-0.209971 -0.2121,-0.562938 0.0463,-0.209972 -0.0707,-0.144056 -0.10631,-0.01383 0.0106,-0.326386 h -0.1414 l -0.13077,-0.144057 z m -111.898526,10.127025 -0.174357,0.125445 -0.141399,0.261012 0.01065,0.313093 0.237081,0.116948 0.285987,-0.233896 0.008,-0.313093 z m 140.758756,1.241222 -0.44918,0.157878 -0.59058,0.457157 -0.66128,0.626196 -0.75642,0.247712 -0.22592,0.182329 h -0.11694 l -0.0463,-0.130763 -0.31842,0.03775 0.0463,0.16904 h -0.16638 l -0.20146,0.116948 -0.62567,0.196145 -0.37848,0.274826 -0.31841,0.103123 -0.34287,0.509249 -0.34287,0.313092 0.13078,0.103134 0.0707,-0.01327 0.0245,-0.130773 h 0.27216 l 0.22591,-0.18233 0.16586,-0.340209 0.27216,-0.157868 0.1903,-0.02716 0.0601,-0.117484 0.20147,0.157879 -0.15523,0.07921 v 0.116948 l 0.35404,-0.05154 0.0952,0.103134 0.0601,0.209969 0.1414,0.168505 0.10579,0.02716 0.0495,-0.02181 -0.0245,-0.09248 -0.31841,-0.457147 0.0107,-0.09248 h 0.1414 l 0.24772,0.299278 0.19084,-0.116948 0.17648,-0.274827 -0.0245,-0.130763 -0.27216,-0.233897 0.0245,-0.144588 h 0.0957 l 0.20094,0.144588 0.0601,-0.03827 v -0.22326 l 0.0707,0.02716 0.0245,0.234422 0.21263,0.01327 0.17648,-0.07869 0.14194,0.06542 v -0.07921 l -0.0819,-0.05154 -0.261,0.05154 -0.12013,-0.274817 0.6044,-0.05154 0.46247,-0.470971 0.16638,-0.07869 0.16585,-0.247721 0.44917,-0.430042 0.261,-0.157878 0.21529,0.01646 0.0463,-0.103658 -0.0601,-0.06542 0.27217,-0.03827 z m 15.20037,0.590584 0.30725,0.39124 -0.008,-0.0021 -0.3046,-0.388052 z m -0.69371,0.519874 -0.3705,0.217417 -0.24771,0.247711 -0.17649,0.653312 -0.17701,0.233886 -0.41356,0.196155 -0.0143,0.0021 0.40612,-0.192431 0.17702,-0.234422 0.17648,-0.652776 0.24771,-0.247712 z m -3.36433,1.575062 -0.20944,0.155749 -0.2121,0.288642 -0.0463,0.666592 0.36731,1.097168 -0.15522,0.312568 0.34288,1.031786 0.23708,1.5405 0.17648,0.07869 0.50926,0.03827 0.37847,0.209446 0.34286,0.01378 1.10196,-0.16904 0.89251,0.116948 -0.0159,0.0062 -0.89837,-0.116948 -1.10196,0.168505 -0.34287,-0.01378 -0.37847,-0.209435 -0.50925,-0.03775 -0.17649,-0.07921 -0.23708,-1.54051 -0.34286,-1.031251 0.15521,-0.313093 -0.36731,-1.096643 0.0463,-0.667127 0.2121,-0.288642 0.21262,-0.157878 z m 1.67659,0.01492 -0.3131,0.179141 -0.0133,0.001 0.31043,-0.178081 z m -16.68932,0.08929 -0.22591,0.261002 -0.1414,0.06542 -0.24771,-0.07869 -0.0245,0.116948 0.26153,0.01378 -0.15522,0.231233 -0.1414,0.277481 -0.15522,0.116948 -0.0245,0.144588 0.19031,0.144054 0.33223,0.07869 0.2121,-0.130228 0.0952,-0.247722 0.47364,-0.416751 -0.0596,-0.144053 -0.14193,-0.02716 -0.0107,-0.261526 -0.11693,-0.130774 z m -1.9429,0.873383 -0.10631,0.03827 -0.0245,0.313104 -0.0819,0.116948 v 0.383793 l -0.0596,0.0898 0.1414,0.274826 -0.0463,0.36466 0.068,0.220606 0.10366,0.05689 -0.025,0.18233 0.12014,0.117483 h 0.1903 l -0.0106,-0.157878 0.0951,-0.18233 0.2121,-0.157879 -0.0463,-0.09248 0.0112,-0.40559 -0.24772,-0.20997 -0.0819,-0.209446 -0.11695,-0.01327 v -0.09299 l 0.11695,-0.05154 -0.0106,-0.233886 z m 1.88337,0.784065 -0.35667,0.116948 -0.39179,-0.09248 -0.23706,0.03827 0.0245,0.19562 0.19084,0.247711 0.31841,0.07921 0.49808,-0.546989 z m -1.15138,0.470982 0.0245,0.313093 0.0356,0.18233 0.10579,0.03775 h 0.15521 l 0.463,-0.247711 -0.6044,-0.130239 -0.10631,-0.117472 z m 21.32675,2.340518 0.26154,0.02448 0.49809,0.481608 0.51987,0.77025 0.23655,0.196155 0.0112,0.261002 -0.16638,0.430041 -0.3317,0.470971 -1.19498,1.159371 v 0.234421 l 0.23656,0.312569 0.025,0.326918 0.41357,0.209435 0.27961,0.01378 -0.0186,0.0051 -0.2828,-0.01378 -0.41357,-0.209435 -0.0245,-0.326393 -0.23708,-0.313093 V 32.5644 l 1.19498,-1.159371 0.3317,-0.470437 0.16639,-0.430051 -0.0112,-0.261527 -0.23655,-0.196155 -0.51987,-0.770249 -0.49809,-0.481608 -0.25356,-0.02397 z m -23.52269,0.303527 0.19031,0.180735 0.77024,0.54699 0.38912,0.209969 0.77025,0.247722 0.0951,0.103123 0.002,0.0106 -0.0946,-0.103123 -0.77025,-0.247711 -0.38911,-0.209445 -0.77025,-0.54699 z m -2.03859,1.613863 0.11109,0.295019 0.25303,0.247712 h 0.28334 l 0.2121,-0.103123 0.21263,0.02716 0.24771,0.155225 0.91165,0.821816 0.4024,0.07921 1.90516,-0.06542 0.33224,0.07869 0.9361,0.402936 0.0463,0.116948 -0.004,0.0143 -0.0452,-0.114819 -0.93611,-0.402926 -0.33223,-0.07921 -1.90516,0.06542 -0.4024,-0.07869 -0.91219,-0.821816 -0.24771,-0.157879 -0.2121,-0.02767 -0.2121,0.103657 h -0.28333 l -0.25303,-0.247711 z m 4.34987,0.184449 0.26048,0.246652 0.95789,0.509258 3.05336,0.925464 0.37849,0.274827 0.33222,0.350835 0.29663,0.704868 0.6751,0.585266 1.13757,0.663937 0.44917,0.35137 0.19031,0.274827 0.33223,1.679245 0.29663,0.481597 0.16585,0.898369 0.42472,0.350835 0.49809,0.18233 1.27896,0.07921 0.75644,-0.220606 0.54433,-0.37795 1.06421,-0.285988 0.22591,-0.168504 0.13078,-0.247712 0.0351,-0.372107 5.3e-4,0.0041 -0.0356,0.378474 -0.13076,0.247712 -0.22593,0.168515 -1.06421,0.285988 -0.54433,0.378484 -0.75643,0.220062 -1.27897,-0.07869 -0.49809,-0.18233 -0.42472,-0.351369 -0.16585,-0.897824 -0.29662,-0.481608 -0.33223,-1.679245 -0.1903,-0.275352 -0.44919,-0.350844 -1.13491,-0.663938 -0.6751,-0.585256 -0.29662,-0.704868 -0.33223,-0.351369 -0.37795,-0.274827 -3.0539,-0.925474 -0.95789,-0.508714 -0.26154,-0.247711 z m 12.62223,1.787161 -0.463,0.547525 -0.37795,0.261002 -0.23708,0.285977 0.24772,-0.299803 0.37848,-0.261001 z m 10.55175,0.702204 0.0707,0.07921 0.0819,1.238033 -0.0819,0.416761 -0.15256,0.350834 -0.22591,0.07921 -0.003,-0.001 0.20732,-0.07231 0.15256,-0.35137 0.0819,-0.416226 -0.0819,-1.238567 -0.0707,-0.07869 -0.20732,0.01276 0.017,-0.0051 z m -7.47871,0.679882 -0.13662,0.139281 -0.10632,0.533699 -0.0245,1.121084 -0.44864,0.912184 -0.23708,0.337555 -0.004,-0.0051 0.22965,-0.327454 0.44917,-0.911649 0.0245,-1.121619 0.10632,-0.533164 0.1414,-0.144588 z m 1.47193,0.473636 0.009,0.0062 -0.0915,0.324264 v 0.247712 l -0.43801,0.938754 -0.23655,0.781421 0.85157,0.443332 0.0952,0.130763 0.13078,0.533174 -0.0245,0.234421 -0.42738,0.467794 -0.0149,-10e-4 0.42578,-0.466723 0.0245,-0.234421 -0.13024,-0.533175 -0.0951,-0.130763 -0.84893,-0.441737 0.002,-0.0021 0.23709,-0.781421 0.43801,-0.938754 v -0.247711 z m 5.0271,0.741015 0.004,0.0021 -0.0782,0.03086 -0.15469,0.220607 -0.15521,0.457156 -0.19084,0.196145 -0.71018,0.261002 -0.004,-5.45e-4 0.69264,-0.255149 0.19084,-0.196155 0.15522,-0.457157 0.15468,-0.220071 z m -9.02773,0.712841 0.86699,0.08774 0.005,0.0093 -0.87232,-0.08826 -0.15256,0.144054 0.0103,0.152035 -0.002,-0.0051 -0.0107,-0.155214 z m 10.81594,0.66978 1.633,0.457157 0.0351,0.103658 -0.261,0.443331 0.0814,0.155225 0.41356,0.130763 h -0.008 l -0.0819,0.299278 -0.2828,0.663938 0.0287,0.218477 -0.0314,-0.215823 0.28279,-0.663938 0.0819,-0.299278 -0.41357,-0.130763 -0.0819,-0.155214 0.26154,-0.443342 -0.0356,-0.103648 -1.633,-0.457157 -0.54646,0.05102 0.002,-0.0021 z m 5.31787,1.817991 0.71284,0.318411 v 0.71284 l -0.71284,0.397618 -0.002,-5.45e-4 0.71178,-0.397083 v -0.71284 l -0.71124,-0.317887 z m -12.50581,0.15256 0.0143,0.001 -0.16426,0.07766 -0.48426,0.454492 0.41356,0.767596 0.2121,0.716029 -0.22591,0.75377 -0.0245,0.416227 0.43855,0.05205 1.08867,-0.07921 0.48426,0.196155 0.28279,0.19562 0.29664,0.07921 0.20359,-0.01327 -0.002,0.0021 -0.2121,0.01378 -0.29661,-0.07921 -0.28333,-0.19562 -0.48427,-0.196145 -1.08866,0.07921 -0.43536,-0.05154 v -0.0031 l 0.0245,-0.416216 0.22591,-0.753771 -0.2121,-0.716039 -0.41409,-0.767585 -0.003,-0.0021 0.47895,-0.452373 z m 14.55503,0.350835 -0.16585,0.313103 -0.0463,0.636822 -0.0601,0.285988 -0.2828,0.402401 0.28013,-0.399737 0.0601,-0.285988 0.0463,-0.636832 0.16584,-0.313093 z m -7.43832,0.533709 -0.91218,0.193491 5.5e-4,-5.45e-4 z m -82.5939,0.944073 -0.29396,0.03559 -0.68572,0.457157 -0.0601,0.389111 0.0952,0.443866 0.20148,0.261002 0.20146,0.116948 0.16585,0.05205 0.71072,-0.02705 0.4024,0.247176 h 0.10631 l -0.0952,-0.375286 -0.0463,-0.808526 -0.35935,-0.623007 z m 84.54797,0.912708 0.006,0.02232 -0.003,0.0021 z m -2.85243,0.08188 -0.002,0.0021 -0.3434,0.03724 5.5e-4,-0.0021 z m -2.82213,0.312043 0.22592,0.02705 0.35403,0.351369 0.39177,0.15469 0.5337,0.117473 0.38273,-0.07756 -0.002,10e-4 -0.3923,0.07921 -0.53317,-0.116949 -0.39231,-0.155214 -0.35349,-0.351369 -0.22592,-0.02716 z m -3.65244,0.299803 v 0.0051 l -0.0951,0.234422 -1.23006,0.557625 -0.13077,0.247712 v -0.0051 l 0.13077,-0.247711 1.23006,-0.558161 z m 11.8828,0.08826 -0.0898,0.02819 h -0.003 z m -4.11225,0.04999 -0.0792,0.873908 -0.55497,1.823298 v 3.331374 l -0.0574,1.379977 0.77026,-0.11164 0.95258,0.397618 0.71338,1.031262 0.41356,0.413562 -0.0872,1.118965 1.10249,1.085472 0.13502,0.0072 -0.003,0.0041 -0.13448,-0.0072 -1.10249,-1.086007 0.0871,-1.118965 -0.41356,-0.413563 -0.71338,-1.031251 -0.95258,-0.397618 -0.77025,0.11163 -0.0218,0.525192 0.0792,0.713376 0.63151,0.788858 0.003,0.0031 0.63417,1.267812 -0.0792,1.508076 -0.87338,0.71284 v 0.713365 l 0.63205,0.789393 h -5.5e-4 l -0.63416,-0.792047 v -0.713375 l 0.87337,-0.71284 0.0792,-1.508076 -0.63416,-1.268337 -0.63417,-0.791512 -0.0792,-0.713375 0.0792,-1.902506 v -3.331374 l 0.55496,-1.823298 0.0792,-0.873908 z m -140.38081,2.463309 -0.307249,0.01327 -0.04625,0.182855 0.02444,0.350844 0.141398,0.155215 v 0.233896 l 0.06006,0.0898 0.08134,0.05154 0.201468,-0.01327 0.08186,0.130763 0.01065,-0.898358 0.04625,-0.08188 -0.04625,-0.127574 z m 132.39709,1.029133 0.001,0.0021 -0.0463,0.103658 -0.1903,0.05154 -0.14193,0.220606 -0.11695,0.402926 -1.00627,2.181056 -5.5e-4,-0.0041 1.00681,-2.183175 0.11694,-0.402411 0.14194,-0.220596 0.1903,-0.05154 z m -1.31139,4.079837 5.5e-4,0.0021 -0.0946,0.773974 -5.4e-4,-10e-4 z m -158.63135,0.990321 -0.119604,0.07334 0.154689,0.1414 0.318943,-0.02448 -0.04677,-0.133417 z m 176.75804,0.239204 -0.39975,0.171704 0.0106,0.0898 -0.22592,0.519884 0.19881,0.0898 0.0628,0.299278 0.0463,-0.03827 -0.0463,-0.247711 h 0.0463 v -0.702214 z m -31.9354,0.734638 -0.42473,1.03445 -0.025,0.519874 0.10633,0.506594 0.22591,0.519875 0.62885,0.726665 0.51988,0.402401 0.1414,0.247712 0.0707,0.636832 0.28333,0.816498 -0.12013,1.154043 0.0819,0.726665 0.41356,2.087489 0.24771,0.531045 0.2121,1.477772 v 0.971723 l -0.11694,0.957898 -0.13077,0.465129 0.12811,-0.457157 0.11695,-0.957898 v -0.971712 l -0.2121,-1.477783 -0.24771,-0.53051 -0.41357,-2.087489 -0.0819,-0.726665 0.11694,-1.154053 -0.28279,-0.816498 -0.0707,-0.636822 -0.14193,-0.247712 -0.51935,-0.402936 -0.62885,-0.726665 -0.22592,-0.519874 -0.10631,-0.50606 0.0245,-0.519884 0.42739,-1.039758 z m 27.86247,1.886561 h 0.002 l 0.75909,0.253564 v 5.35e-4 l -0.13343,-0.01749 z m -165.51364,0.315757 -0.165853,0.114284 0.05954,0.454503 0.225919,0.299268 0.179673,0.09248 0.03561,-0.144053 0.116947,-0.03827 v -0.155214 l -0.367319,-0.350845 0.01065,-0.130773 z m 19.179732,0.971713 -0.212628,0.103123 -0.130235,0.103658 v 0.0898 l 0.367318,0.247711 h 0.106314 l 0.04625,0.220071 0.130237,0.103658 v 0.18233 l 0.04625,0.02705 0.106316,-0.1414 0.06006,0.05154 0.02444,-0.05154 v -0.285987 l -0.225921,-0.18233 -0.07335,-0.337545 -0.128108,-0.12492 z m 144.347948,0.219011 0.71125,0.235491 0.71284,0.397083 -0.001,0.0062 -0.70912,-0.395499 -0.71337,-0.23655 z m -134.903993,1.936523 -0.242404,0.03775 -0.225389,0.492769 0.0107,0.116948 0.08456,0.193491 0.2121,0.168515 0.305121,0.402926 0.204116,0.04094 -0.02767,0.18233 0.130774,0.103134 0.15256,0.01378 -0.02448,-0.558151 0.105777,-0.233896 0.296624,0.37582 0.07118,-0.02767 -0.01121,-0.06491 -0.296624,-0.361996 0.106322,-0.182329 -0.15257,-0.02767 -0.201463,-0.465129 -0.201463,-0.130774 z m 128.943983,3.307983 0.28067,0.317352 0.16426,0.05051 -0.16426,-0.04783 z m -150.60564,1.250798 -0.364662,0.04886 -0.106314,0.192967 0.01116,0.272162 0.09515,0.155225 0.198809,0.141399 0.0027,0.16904 0.08134,0.155214 0.283326,0.1414 0.106317,-0.05154 0.01065,-0.272173 0.152562,-0.245047 V 62.08932 l -0.174357,-0.375296 z m 108.69738,4.411539 0.44121,1.154052 0.69955,2.136392 0.77025,1.902505 h -0.003 l -0.77025,-1.902505 z m -21.04077,2.999138 -0.0733,0.117483 0.11961,0.206781 0.0107,0.309904 0.0957,-0.09248 0.16585,-0.0107 0.17968,0.02448 0.008,0.141399 h 0.14458 l -0.0245,-0.233896 -0.18817,-0.157879 v -0.101014 l -0.24771,-0.05154 z m -2.88752,0.285988 -0.14724,0.06007 -0.51989,0.02448 -0.0351,0.06542 0.0463,0.155214 -0.24505,0.389111 -0.22593,0.220082 -0.41356,0.207306 -0.0627,-0.16904 -0.18765,0.02716 -0.0601,-0.07602 -0.17701,0.1005 0.1414,0.06542 -0.1414,0.103658 0.0111,0.1414 h 0.30725 l 0.17702,-0.07602 0.56878,0.244523 0.4763,-0.261002 0.30512,-0.06275 0.4024,0.337554 h 0.0957 l 0.13023,-0.206781 -0.30725,-0.503405 -0.0111,-0.351369 0.0627,-0.206782 -0.0489,-0.168514 z m 0.53849,0.797365 -0.11695,0.116948 0.0601,0.117473 0.27217,0.220071 -0.1414,0.272163 0.0245,0.116948 0.30724,-0.01327 0.27483,0.08723 -0.10844,-0.307775 -0.0112,-0.389121 -0.28279,-0.206781 -0.17702,-0.0082 z m -120.9501728,0.843603 -0.1010041,0.09834 -0.190304,0.01327 -0.1419303,0.155214 -0.010636,0.326918 -0.201467,0.345527 0.011161,0.103123 0.2365505,0.207316 0.0707,0.19562 0.1413995,0.155214 0.1307673,-0.02448 0.021797,-0.130763 0.4380159,-0.636833 V 71.51995 l 0.117478,-0.03827 -0.02445,-0.0898 -0.3077807,-0.07602 -0.0707,-0.141399 0.046249,-0.116948 z m 117.1999128,0.688924 -1.05889,1.238032 -0.68574,0.609718 -0.6044,0.278015 -0.77025,0.119602 -0.20094,-0.05154 -0.0601,0.05154 0.0707,0.192967 0.66394,0.620878 0.79204,0.168504 1.31458,0.620354 0.15522,-0.01327 0.0819,-0.103648 0.0569,0.103648 -0.0324,0.192966 0.11694,0.296625 0.0952,-0.01327 0.14139,-0.337544 -0.0952,-0.427388 -0.261,-0.413562 -0.0707,-0.285988 -0.14193,-0.220071 -0.261,-0.751652 -0.0112,-0.233886 0.14194,-0.413562 0.29661,-0.337554 0.0351,-0.206781 0.24771,-0.441213 0.2121,-0.168505 -0.0245,-0.05421 z m 1.73665,0.362006 -0.0112,0.06542 0.13077,0.02448 0.0489,0.103123 -0.0601,0.182329 0.27217,0.116949 -0.0107,0.169039 0.1414,0.155215 0.16585,0.01059 0.17702,0.106312 h 0.23708 l 0.11695,-0.193491 0.45184,-0.07869 0.49542,0.220606 0.2121,0.272162 0.36466,0.0106 0.19349,0.106322 0.0596,-0.07921 -0.55496,-0.478954 0.0245,-0.06542 0.12758,-0.06542 0.16905,0.01378 0.28278,0.500741 0.0707,-0.51722 0.16639,-0.03775 -0.28333,-0.128109 -0.56878,0.0898 -0.2828,-0.01378 -0.1414,-0.06542 -0.16639,0.06542 -0.2121,-0.269508 -0.19083,0.08723 -1.32521,-0.304596 z m -0.0277,1.039758 -0.0463,0.176477 -0.63949,0.272173 0.11695,0.193491 0.15523,0.01378 0.0463,0.206781 0.57994,0.595902 0.24772,-0.01378 0.0952,0.06542 0.3317,-0.285464 0.55549,0.103134 -0.0218,-0.492779 -0.13343,-0.179131 -0.2828,-0.144588 -0.17701,0.01378 -0.19881,-0.247722 -0.31044,-0.05154 z m 2.62651,0.160533 -0.2121,0.04362 -0.21263,0.296624 0.0819,0.309904 0.11695,0.103658 0.21263,-0.07921 0.0463,-0.206781 0.1414,-0.08137 -0.068,-0.283334 z m -96.558882,0.402401 -0.217946,0.02181 -0.177014,0.441213 -0.282796,0.18233 -0.354029,0.685735 -0.23655,0.323719 0.03508,0.258882 0.212629,0.595892 0.699554,0.413563 -0.05741,0.182329 0.0707,0.02448 0.06007,-0.130228 0.09515,0.01327 v 0.193491 l 0.106314,0.06542 0.09782,0.282799 v 0.751117 l -0.108973,0.724001 v 0.571441 l -0.190304,-0.01327 -0.01116,0.245058 0.103658,0.06481 0.389113,-0.06481 -0.03509,-0.258873 0.0707,-1.292788 0.130235,-0.879225 0.177014,-0.01327 -0.119604,-0.116948 0.342867,-0.531046 0.165849,0.07921 0.04944,-0.03034 -0.15256,-0.138736 0.08133,-0.258347 0.130767,0.07869 0.296621,-0.05154 v -0.400282 l -0.165853,-0.413562 -0.187645,-1.009464 -0.09569,-0.06542 -0.30725,-0.03827 -0.08186,-0.07869 v -0.14193 L 34.669809,73.69738 Z m 95.715272,0.449184 -0.0356,0.209435 0.0713,0.141935 0.50871,0.103123 0.0601,-0.03775 0.0351,-0.141934 -0.0463,-0.0898 -0.2828,-0.02716 -0.23708,-0.157878 z m -6.47192,1.037095 -0.0463,0.119612 0.0596,0.179666 -0.1196,-0.02448 -0.13076,-0.18233 -0.11962,0.02705 -0.0601,0.245058 0.0707,0.05154 v 0.130763 l -0.11695,0.15256 0.0925,0.220607 -0.10313,0.182329 0.15522,0.103124 0.0245,0.0898 0.15469,0.02448 0.20146,0.144588 0.31841,0.399737 h 0.16639 l 0.14405,-0.0898 0.22061,-0.399747 -0.10631,-0.234421 -0.0952,-0.05154 -0.16584,-0.413573 h -0.14194 l 0.0245,-0.324254 0.0712,0.01378 0.0463,-0.06542 -0.42739,-0.296624 z m 1.34967,0.780886 -0.0681,0.02448 0.0574,0.08723 -0.0112,0.234421 0.65066,0.261012 -0.0601,0.155214 -0.0707,-0.116948 -0.66394,-0.220596 -0.0952,0.261527 0.17649,0.141399 0.21262,0.400282 0.36732,-0.01646 0.29662,0.247711 0.1196,0.01327 0.42739,0.531045 0.10632,0.05154 -0.13077,-0.362006 0.52253,-0.400272 -0.1196,-0.154689 -0.1414,-0.06542 -0.15522,-0.582602 -0.50925,-0.130763 -0.50871,-0.258348 z m 1.65745,0.528381 -0.0436,0.359351 0.43855,0.15469 0.14139,-0.02448 0.0106,-0.0898 -0.15523,-0.258348 -0.13022,-0.09248 z m 0.86275,0.217417 -0.15523,0.01646 -0.0707,0.0898 0.0707,0.258347 0.13343,0.130763 0.70752,0.307786 0.23709,0.22326 0.84095,0.233896 0.32107,0.299268 0.068,0.345527 h 0.21263 l 0.2121,-0.116949 0.41356,-0.0898 0.15522,-0.114285 -0.14139,-0.416226 -0.28334,-0.299278 -1.05304,-0.402936 -0.71072,-0.138735 -0.27217,-0.18233 -0.57941,-0.05205 z m -8.29257,0.116948 -0.36199,0.18233 -0.0463,0.531045 -0.13077,0.06542 -0.0707,0.130763 0.10579,0.05154 -0.0351,0.399747 0.0707,0.141925 0.19032,-0.05472 -0.0839,-0.359342 0.15469,0.310439 0.26152,-0.05153 -0.26152,-0.310439 -0.0106,-0.18233 -0.11695,-0.116949 0.0351,-0.51722 z m 8.69549,0.708057 -0.27481,0.179676 0.11695,0.544325 0.0951,0.07869 -0.0245,0.09248 -0.261,-0.0031 -0.0819,-0.193501 -0.0819,0.02767 -0.0245,0.130239 -0.16585,0.03827 -0.2828,-0.116948 0.18765,-0.402936 -0.0218,-0.155215 -0.14406,0.06542 -0.10632,0.362006 -0.15522,0.231232 0.0601,0.324254 0.15469,0.168515 0.69955,0.06275 -0.0106,0.247711 0.62566,-0.07921 0.20147,-0.361996 0.49809,-0.141399 v -0.07869 l 0.0627,-0.02448 0.17434,0.116938 -0.0138,0.144064 0.13077,0.01111 0.19031,-0.103658 0.0245,-0.245047 -0.10579,-0.141399 0.003,-0.179676 -0.11961,-0.144054 -1.12693,-0.247711 z m -8.32019,0.715494 -0.23655,0.05154 0.11695,0.337555 h 0.14405 l 0.0356,-0.337555 z m 0.76759,0 -0.14671,0.07921 0.0106,0.244523 0.10632,0.776103 0.13023,0.34818 0.29716,0.07921 0.15469,-0.103658 0.17701,0.01378 0.0952,0.168505 0.6044,0.155224 0.15523,0.1414 0.36731,0.114284 0.40027,0.220606 0.23655,-0.02716 0.26154,0.130239 0.73464,-0.272173 0.0707,-0.192956 -1.01797,-0.37582 h -0.1414 l -0.0819,-0.08137 -0.54432,-0.152561 -0.2828,-0.141399 -1.0286,-0.879226 -0.463,-0.05154 0.003,-0.103658 z m -0.49543,0.0082 -0.11695,0.02973 -0.0601,0.478944 0.24771,-0.01378 0.0383,-0.07869 z m -118.046709,1.012118 -0.2477135,0.386457 -0.2120982,0.130763 -0.0707,0.128109 -0.0707,0.233897 0.1169462,0.06275 0.011161,0.103123 0.1196042,0.04094 0.0707,-0.09248 -0.0707,-0.03827 0.024451,-0.07602 0.2583457,-0.0898 0.095151,0.258348 -0.059539,-0.285453 0.2365505,-0.02448 0.201467,0.309904 0.3784808,0.117483 0.010626,-0.05205 -0.3072492,-0.116938 -0.1525625,-0.299278 0.0707,-0.217952 0.296618,-0.116938 0.204125,0.03559 -0.048902,0.636822 h 0.1063139 l 0.010636,-0.272163 0.2615345,-0.231232 -0.1552195,-0.02767 -0.046248,0.130763 -0.011161,-0.192966 0.1201361,-0.05205 -0.048903,-0.157879 -0.2232601,-0.02448 -0.024451,0.05472 H 2.7827863 L 2.2490861,79.349852 2.1294818,79.186655 Z m 114.875869,0.784075 -0.65277,0.19562 -0.22911,0.555486 -0.55496,0.48958 -1.73347,0.09834 0.29396,0.228579 1.01478,0.163196 1.37465,0.490115 0.45716,0.554962 h 0.52253 l -0.13077,-0.715505 -0.52785,-0.424723 0.0542,-0.533699 0.34021,-0.34818 z m 1.50807,0.908985 v 0.557626 l 0.81119,0.626196 0.6937,1.009989 -0.29396,0.522538 -0.35934,0.0324 -0.39708,-0.350834 0.13608,0.710176 0.55496,0.09783 0.45768,-0.130773 0.1632,-0.48958 0.362,-0.655956 -0.0654,-0.457157 -0.94991,-1.015307 -0.59059,-0.457156 z m -71.516936,1.093979 0.07335,0.141399 -0.250374,0.157879 -0.201465,0.03827 -0.0707,-0.103658 -0.106314,-0.01327 -0.272166,0.127575 -0.342867,0.451838 -0.307782,0.710711 0.04625,0.02973 -0.0707,0.332237 v 0.516695 l 0.225919,0.724001 0.21263,0.400272 0.759088,0.65862 0.247715,0.51723 -0.06007,0.01327 -0.212096,-0.244523 -0.201469,0.530511 0.04625,0.245047 0.261536,0.155225 0.639484,-0.283324 0.0271,-0.141399 -0.08718,-0.283334 -0.2121,0.07653 -0.06006,0.310449 -0.08133,-0.01389 -0.02444,-0.103647 0.03508,-0.15469 0.22592,-0.272173 0.0707,0.02716 0.130768,-0.12812 -0.03561,-0.116938 0.177013,-0.0031 -0.152031,-0.06007 0.02447,-0.0898 0.39177,-0.323719 0.130768,-0.01378 0.0707,0.0898 -0.114288,0.285988 -0.108972,0.03827 -0.201466,-0.07921 0.237081,0.155224 h 0.190304 l 0.296618,-0.838295 0.152563,-0.06542 -0.02444,0.0898 h 0.119603 l 0.130768,-0.361995 0.190304,-0.0898 -0.06273,-0.0898 0.155219,-0.647459 -0.0707,-0.375821 0.130764,-0.168504 0.03509,-0.400282 0.05741,0.168515 -0.0436,0.996163 0.0707,-0.03775 0.01116,-0.12811 -0.02499,-1.03444 -0.116947,-0.02448 -0.105783,-0.413572 -0.247714,-0.350835 -0.332233,-0.234421 -0.459814,-0.08713 -0.141399,-0.116949 -0.544332,0.07921 -0.04625,-0.171704 v -0.0031 z m 68.604446,0.544336 -0.55496,0.819152 -1.34169,0.457156 -0.13078,0.884544 0.19616,0.457682 1.11311,0.163196 0.35935,0.58792 0.13023,0.554962 0.58793,0.688389 0.35934,0.229113 0.62354,-0.655965 1.50488,0.326383 0.45716,-0.359342 -0.35934,-0.78354 -1.11312,-0.647993 -0.45715,-0.792037 -0.26101,-0.58793 -0.0329,-0.522538 z m -47.612575,0.519884 -0.563468,0.29396 -0.05956,0.451828 0.09515,0.14141 0.342863,0.206781 0.685735,0.116948 0.07334,0.179666 0.106312,0.05205 -0.130773,-0.296614 0.155224,-0.05205 0.0082,-0.168515 -0.07921,-0.02448 -0.106322,0.168515 -0.04629,-0.01327 -0.07067,-0.128109 0.01121,-0.179676 -0.283333,-0.644805 -0.07067,-0.103658 z m 21.843989,1.083343 -0.639486,0.255683 -0.255694,0.446531 0.255694,0.511367 0.574094,0.06275 0.57463,-0.318411 z m -11.547923,0.05154 -0.163197,0.03559 -0.141399,0.15469 -0.69955,0.025 -0.62885,0.231232 -1.290135,0.255684 -0.119602,0.07869 0.106312,0.0898 -0.08188,0.0898 -0.130763,-0.103123 h -0.173833 l -0.108966,0.130763 -0.318422,0.0082 -0.370502,0.157878 -0.261002,-0.01378 -0.119602,-0.08137 -0.117483,0.274817 0.01121,0.192966 0.250376,-0.0031 0.198809,0.22326 0.225914,0.03827 0.190302,0.220072 0.116948,0.258882 0.77025,0.06542 0.108976,-0.05205 0.163186,-0.761753 0.07067,-0.103648 0.166376,-0.127584 0.296624,-0.03827 0.165851,0.06275 0.296613,0.296624 0.568787,0.05154 0.177012,0.155224 0.225924,0.05154 0.296614,0.672445 0.413573,0.155225 -0.130239,-0.427388 0.02448,-0.310439 -0.120137,-0.258347 0.03559,-0.386457 0.272162,-0.582602 0.163197,-0.02716 0.108976,0.07869 0.296614,0.01121 0.201473,-0.0898 -0.402936,-0.454492 z m -5.837754,0.233887 -0.342862,0.274826 0.04629,0.451839 0.296614,0.283324 0.03508,0.141409 0.166386,0.204117 0.685725,-0.06542 0.04629,-0.108976 -0.0574,-0.416216 -0.402401,-0.155224 -0.07129,-0.103123 -0.01059,-0.193491 z m 27.727973,1.84563 -0.742607,0.02973 -0.122791,0.525193 -0.609717,0.283334 -0.470972,0.552297 h -0.680416 l -1.850409,0.854775 -0.468318,-0.451839 -1.246539,0.745798 -0.299278,0.615036 -0.661274,0.309904 -0.914313,0.03034 -1.143417,0.525193 -0.647458,0.710186 0.247721,0.525192 0.277481,0.310439 0.554962,0.06275 0.647993,-0.06275 0.402926,-0.369978 h 0.554962 l 0.8654,0.680417 0.680417,0.369978 0.495433,0.369978 0.957898,0.125455 1.668604,0.06275 1.080688,-0.215288 -0.06275,-0.772903 0.155225,-0.772914 0.340208,-0.462465 0.554962,0.277481 0.184984,0.310439 0.09248,0.680417 1.143415,0.06223 0.15522,0.370502 0.89517,0.124921 0.77291,0.215288 0.58793,-0.215288 0.9579,-0.247712 0.58791,-1.205609 0.0303,-0.495433 -1.02062,-1.235379 -0.71072,-0.215277 -1.54581,-0.155225 -0.49544,-0.184984 -0.39443,0.07386 -0.43853,-0.599091 -0.584743,-0.78354 0.06223,-0.647983 0.370513,-0.122267 0.30991,-0.278016 z m -78.059558,0.745799 -0.169041,0.157878 -0.141398,0.02448 -0.225919,0.231233 -0.06006,0.272162 0.06006,0.192966 -0.04625,0.528381 -0.119604,0.362006 -0.09569,0.07869 0.03561,0.07602 0.177015,0.02767 0.39177,-0.07921 0.06007,0.133427 -0.04625,0.08723 h -0.0707 l -0.01116,-0.128109 -0.106315,0.02705 0.120136,0.272173 0.176483,-0.15469 0.07389,-0.217952 0.223261,-0.130763 0.0707,-0.220072 0.08133,-0.130763 0.0707,-0.01378 0.02445,-0.141399 -0.01063,-0.193501 -0.0978,-0.02448 0.08132,-0.155214 -0.0707,-0.192966 0.15522,-0.0898 V 87.460631 H 22.47917 L 22.373386,87.12574 Z m 87.171818,1.311396 0.0324,0.555497 0.57463,0.138735 0.96321,1.10515 0.71869,0.09783 0.0978,-0.457157 -0.35935,-0.492769 -0.32638,-0.130763 -0.39178,-0.358817 -0.35934,-0.457681 z m -27.548848,0.16904 -0.996164,0.16585 -0.33702,0.258873 -0.03559,0.154689 0.247712,0.400272 0.579948,0.4763 0.514031,-0.128109 0.408244,0.03827 0.299278,-0.03827 -0.02448,-0.48958 -0.133427,-0.465664 -0.296614,-0.34818 z m -60.477742,0.778221 -0.0707,0.0031 0.03509,0.193491 -0.09515,0.02448 -0.201466,1.341691 -0.0707,0.179676 0.08186,0.116948 0.0707,-0.01327 0.0027,-0.06542 0.103657,-0.0082 0.105784,0.07386 0.02445,0.119602 0.342865,0.05154 0.04944,-0.168515 -0.120135,-0.101014 v -0.116949 l 0.01116,-0.245057 0.09782,-0.19562 -0.02712,-0.07653 -0.0707,0.02716 0.03774,-0.47629 -0.0489,-0.424198 -0.08133,-0.1414 -0.130768,-0.0031 z m 88.0893,0.163197 0.65597,1.211452 h 0.39176 l 0.13078,-0.590574 -0.52254,-0.392299 z m -22.342056,0.106312 -0.138746,0.119602 0.0107,0.478954 0.201463,0.117473 0.212099,0.01327 0.04629,-0.0898 -0.07067,-0.0898 -0.02448,-0.427387 z m 20.205666,0.348181 -0.31842,0.702214 0.446,0.318411 0.83829,-0.0051 0.69423,0.579947 0.63949,-0.128109 -0.12811,-0.89517 -0.50871,-0.378485 -0.7676,-0.128109 z"
       style="fill:#828282;fill-opacity:1;stroke-width:0.272166" />
  </g>
</svg>
